SplineFontDB: 3.2
FontName: poj-Garamond12-Italic
FullName: poj-Garamond 12 Italic
FamilyName: poj-Garamond 12
Weight: Regular
Copyright: POJ support by Edward Greve <edward.greve@gmail.com>\nCreated by Georg Duffner with FontForge 2.0 (http://fontforge.sf.net)
UComments: "2010-5-17: Created."
Version: 1.000
ItalicAngle: -17
UnderlinePosition: -100
UnderlineWidth: 50
Ascent: 710
Descent: 290
InvalidEm: 0
LayerCount: 2
Layer: 0 0 "Back" 1
Layer: 1 0 "Zeichenebene" 0
XUID: [1021 114 2024522534 14749]
UseXUID: 1
FSType: 0
OS2Version: 3
OS2_WeightWidthSlopeOnly: 0
OS2_UseTypoMetrics: 1
CreationTime: 1274079135
ModificationTime: 1598257449
PfmFamily: 17
TTFWeight: 400
TTFWidth: 5
LineGap: 0
VLineGap: 0
Panose: 2 2 5 2 5 2 6 9 4 3
OS2TypoAscent: 710
OS2TypoAOffset: 0
OS2TypoDescent: -290
OS2TypoDOffset: 0
OS2TypoLinegap: 0
OS2WinAscent: 910
OS2WinAOffset: 0
OS2WinDescent: 290
OS2WinDOffset: 0
HheadAscent: 710
HheadAOffset: 0
HheadDescent: -290
HheadDOffset: 0
OS2SubXSize: 650
OS2SubYSize: 700
OS2SubXOff: 131
OS2SubYOff: 140
OS2SupXSize: 650
OS2SupYSize: 700
OS2SupXOff: -451
OS2SupYOff: 480
OS2StrikeYSize: 49
OS2StrikeYPos: 258
OS2FamilyClass: 258
OS2Vendor: 'PfEd'
Lookup: 4 0 0 "'ccmp' Glyph Composition POJ" { "'ccmp' Glyph Composition POJ subtable"  } ['ccmp' ('DFLT' <'dflt' > 'latn' <'dflt' > ) ]
Lookup: 4 0 1 "'liga' Standard Ligatures lookup POJ" { "'liga' Standard Ligatures lookup POJ subtable"  } ['liga' ('DFLT' <'dflt' > 'latn' <'dflt' > ) ]
Lookup: 1 0 0 "loclDEU" { "loclDEU subtable"  } ['locl' ('latn' <'DEU ' > ) ]
Lookup: 1 0 0 "loclTRK" { "loclTRK subtable"  } ['locl' ('latn' <'TRK ' 'AZE ' 'CRT ' > ) ]
Lookup: 6 0 0 "loclCAT" { "loclCAT contextual 0"  "loclCAT contextual 1"  } ['locl' ('latn' <'CAT ' > ) ]
Lookup: 1 0 0 "Single Substitution lookup 3" { "Single Substitution lookup 3 subtable"  } []
Lookup: 1 0 0 "Single Substitution lookup 4" { "Single Substitution lookup 4 subtable"  } []

StartChar: a
Encoding: 97 97 0
Width: 451
Flags: HMW
AnchorPoint: "POJ_TOP_RIGHT" 514 341 basechar 0
AnchorPoint: "ogonek" 369 18 basechar 0
AnchorPoint: "below_accent" 148 -100 basechar 0
AnchorPoint: "top_accent" 370 550 basechar 0
LayerCount: 2
Fore
SplineSet
329 353 m 0
 265 353 93 156 93 77 c 0
 93 50 97 46 116 46 c 0
 187 46 369 281 369 321 c 0
 369 339 346 353 329 353 c 0
300 -14 m 0
 281 -14 269 8 269 30 c 0
 269 65 296 122 311 153 c 0
 320 171 315 175 309 168 c 0
 186 31 125 -14 57 -14 c 0
 40 -14 14 4 14 21 c 0
 14 130 150 285 256 362 c 0
 284 382 331 406 345 406 c 0
 355 406 371 398 378 387 c 0
 383 379 387 382 390 388 c 0
 401 414 407 426 417 426 c 0
 434 426 451 416 451 406 c 0
 451 401 448 392 444 381 c 2
 341 97 l 2
 332 71 343 49 360 49 c 0
 370 49 412 74 424 88 c 0
 427 92 448 111 448 90 c 0
 448 87 441 74 438 70 c 0
 417 38 357 -14 300 -14 c 0
EndSplineSet
Substitution2: "Smallcaps1 subtable" a.sc
Substitution2: "sups subtable" a.sups
Substitution2: "sinf subtable" a.sinf
Substitution2: "ordn subtable" a.ordn
Substitution2: "subs subtable" a.subs
EndChar

StartChar: t
Encoding: 116 116 1
Width: 285
Flags: MW
AnchorPoint: "top_right" 382 607 basechar 0
AnchorPoint: "top_right1" 383 589 basechar 0
AnchorPoint: "cedilla" 139 8 basechar 0
AnchorPoint: "below_accent" 52 -100 basechar 0
AnchorPoint: "top_accent" 277 594 basechar 0
LayerCount: 2
Fore
SplineSet
229 68 m 0
 181 23 110 -14 82 -14 c 0
 61 -14 49 -5 49 23 c 0
 49 35 51 42 63 79 c 2
 153 346 l 2
 156 355 149 358 143 358 c 2
 103 360 l 2
 86 361 85 369 85 374 c 0
 85 377 101 398 119 398 c 0
 129 398 133 398 155 398 c 0
 169 398 172 401 179 416 c 2
 199 457 l 2
 210 479 244 502 253 502 c 0
 269 502 263 475 261 470 c 2
 239 411 l 2
 236 402 241 400 252 400 c 0
 279 400 309 395 327 392 c 0
 348 388 350 384 350 377 c 0
 350 374 346 366 331 365 c 0
 321 364 261 362 245 362 c 0
 233 362 217 357 214 348 c 2
 132 99 l 2
 126 80 131 59 150 59 c 0
 177 59 196 76 218 93 c 0
 234 105 246 106 246 98 c 0
 246 89 241 79 229 68 c 0
EndSplineSet
Substitution2: "Smallcaps1 subtable" t.sc
Substitution2: "sups subtable" t.sups
Substitution2: "sinf subtable" t.sinf
Substitution2: "ordn subtable" t.ordn
Substitution2: "subs subtable" t.subs
EndChar

StartChar: l
Encoding: 108 108 2
Width: 252
Flags: MW
AnchorPoint: "top_right" 383 634 basechar 0
AnchorPoint: "top_right1" 372 624 basechar 0
AnchorPoint: "below_accent" 56 -100 basechar 0
AnchorPoint: "top_accent" 293 812 basechar 0
LayerCount: 2
Fore
SplineSet
233 99 m 0
 241 107 248 120 253 120 c 0
 258 120 258 115 258 107 c 0
 258 47 129 -14 94 -14 c 0
 62 -14 50 2 50 21 c 0
 50 38 54 52 61 76 c 2
 206 559 l 2
 212 578 220 607 220 624 c 0
 220 646 170 648 170 660 c 0
 170 665 172 669 176 671 c 0
 206 686 274 707 290 707 c 0
 296 707 307 707 307 697 c 0
 307 686 306 683 303 674 c 2
 131 86 l 2
 128 75 126 65 126 57 c 0
 126 47 129 41 136 41 c 0
 168 41 223 89 233 99 c 0
EndSplineSet
Substitution2: "Smallcaps1 subtable" l.sc
Substitution2: "sups subtable" l.sups
Substitution2: "sinf subtable" l.sinf
Substitution2: "ordn subtable" l.ordn
Substitution2: "subs subtable" l.subs
EndChar

StartChar: o
Encoding: 111 111 3
Width: 400
Flags: HMW
AnchorPoint: "POJ_TOP_RIGHT" 461 414 basechar 0
AnchorPoint: "ogonek" 228 18 basechar 0
AnchorPoint: "below_accent" 137 -100 basechar 0
AnchorPoint: "top_accent" 322 550 basechar 0
LayerCount: 2
Fore
SplineSet
326 304 m 0
 326 354 317 384 283 384 c 0
 203 384 109 189 109 96 c 0
 109 46 118 16 152 16 c 0
 232 16 326 211 326 304 c 0
390 296 m 0
 390 176 290 -14 140 -14 c 0
 100 -14 45 28 45 104 c 0
 45 224 145 414 295 414 c 0
 335 414 390 372 390 296 c 0
EndSplineSet
Substitution2: "Smallcaps1 subtable" o.sc
Substitution2: "sups subtable" o.sups
Substitution2: "sinf subtable" o.sinf
Substitution2: "ordn subtable" o.ordn
Substitution2: "subs subtable" o.subs
EndChar

StartChar: h
Encoding: 104 104 4
Width: 504
Flags: MW
AnchorPoint: "cedilla" 67 8 basechar 0
AnchorPoint: "below_accent" 201 -100 basechar 0
AnchorPoint: "top_accent" 423 812 basechar 0
LayerCount: 2
Fore
SplineSet
222 23 m 16
 222 36 237 52 249 52 c 0
 273 52 283 27 305 27 c 0
 373 27 438 255 438 332 c 0
 438 356 428 379 415 379 c 0
 393 379 359 368 283 292 c 0
 248 258 165 151 125 78 c 0
 90 14 79 -18 63 -18 c 0
 53 -18 46 4 46 16 c 0
 46 22 48 36 59 75 c 2
 200 558 l 2
 207 581 218 619 213 632 c 0
 209 644 160 650 160 659 c 0
 160 664 162 668 166 670 c 0
 196 685 263 707 279 707 c 0
 285 707 296 707 296 697 c 0
 296 686 294 683 292 674 c 2
 160 212 l 2
 157 202 164 202 169 208 c 0
 296 368 383 421 448 421 c 0
 487 421 504 394 504 333 c 0
 504 213 402 -14 265 -14 c 0
 242 -14 222 1 222 23 c 16
EndSplineSet
Substitution2: "alternate_h subtable" h.01
Substitution2: "Smallcaps1 subtable" h.sc
Substitution2: "sups subtable" h.sups
Substitution2: "sinf subtable" h.sinf
Substitution2: "ordn subtable" h.ordn
Substitution2: "subs subtable" h.subs
EndChar

StartChar: n
Encoding: 110 110 6
Width: 508
Flags: MW
AnchorPoint: "below_accent" 157 -100 basechar 0
AnchorPoint: "top_accent" 376 550 basechar 0
AnchorPoint: "topleft" 172 552 basechar 0
LayerCount: 2
Fore
SplineSet
291 36 m 2
 396 309 l 2
 418 367 400 371 384 372 c 0
 362 373 325 351 281 297 c 0
 250 259 178 151 138 78 c 0
 103 14 88 -17 72 -17 c 0
 62 -17 55 5 55 17 c 0
 55 23 63 46 77 84 c 2
 164 312 l 2
 175 341 179 356 166 356 c 0
 146 356 126 352 94 310 c 0
 89 304 81 304 79 314 c 0
 78 326 87 353 96 364 c 0
 118 392 144 413 189 414 c 0
 216 414 243 402 227 360 c 2
 173 212 l 2
 169 202 178 201 182 208 c 0
 263 348 348 414 413 414 c 0
 452 414 483 379 446 282 c 2
 371 86 l 2
 360 60 364 50 376 50 c 0
 408 50 472 108 482 118 c 0
 483 119 484 119 485 119 c 0
 489 119 493 115 493 110 c 0
 493 105 491 99 489 96 c 0
 437 33 380 -14 317 -14 c 0
 297 -14 282 12 291 36 c 2
EndSplineSet
Validated: 33
Substitution2: "Smallcaps1 subtable" n.sc
Substitution2: "sups subtable" n.sups
Substitution2: "sinf subtable" n.sinf
Substitution2: "ordn subtable" n.ordn
Substitution2: "subs subtable" n.subs
EndChar

StartChar: m
Encoding: 109 109 7
Width: 755
Flags: MW
AnchorPoint: "below_accent" 287 -100 basechar 0
AnchorPoint: "top_accent" 491 550 basechar 0
LayerCount: 2
Fore
SplineSet
396 309 m 2
 418 367 400 371 384 372 c 0
 362 373 325 351 281 297 c 0
 250 259 178 151 138 78 c 0
 103 14 88 -17 72 -17 c 0
 62 -17 55 5 55 17 c 0
 55 23 63 46 77 84 c 2
 164 312 l 2
 175 341 179 356 166 356 c 0
 146 356 126 352 94 310 c 0
 89 304 81 304 79 314 c 0
 78 326 87 353 96 364 c 0
 118 392 144 413 189 414 c 0
 216 414 243 402 227 360 c 2
 173 212 l 2
 169 202 178 201 182 208 c 0
 263 348 348 414 413 414 c 0
 452 414 482 380 446 282 c 2
 420 212 l 2
 416 202 425 201 429 208 c 0
 510 348 595 414 660 414 c 0
 699 414 731 379 693 282 c 2
 618 86 l 2
 607 60 611 50 623 50 c 0
 655 50 719 108 729 118 c 0
 730 119 731 119 732 119 c 0
 736 119 740 115 740 110 c 0
 740 105 738 99 736 96 c 0
 684 33 627 -14 564 -14 c 0
 544 -14 529 12 538 36 c 2
 643 309 l 2
 665 367 647 371 631 372 c 0
 609 373 572 351 528 297 c 0
 497 259 425 151 385 78 c 0
 350 14 322 -17 306 -17 c 0
 296 -17 289 5 289 17 c 0
 289 23 297 46 311 84 c 2
 396 309 l 2
EndSplineSet
Substitution2: "Smallcaps1 subtable" m.sc
Substitution2: "sups subtable" m.sups
Substitution2: "sinf subtable" m.sinf
Substitution2: "ordn subtable" m.ordn
Substitution2: "subs subtable" m.subs
EndChar

StartChar: p
Encoding: 112 112 8
Width: 445
Flags: MW
AnchorPoint: "top_accent" 311 580 basechar 0
LayerCount: 2
Fore
SplineSet
-80 -286 m 0
 -87 -287 -100 -285 -100 -277 c 0
 -100 -267 -82 -259 -70 -257 c 0
 -42 -253 -26 -246 -18 -220 c 2
 136 294 l 2
 153 352 146 350 136 347 c 0
 108 338 75 322 47 307 c 0
 42 304 32 304 30 311 c 0
 28 318 40 329 45 332 c 0
 63 344 100 366 150 385 c 0
 159 389 165 391 168 401 c 0
 195 487 210 512 240 512 c 0
 253 512 251 502 248 490 c 2
 233 424 l 2
 231 414 230 402 236 402 c 0
 241 402 273 414 320 414 c 0
 375 414 430 368 430 282 c 0
 430 138 271 -14 173 -14 c 0
 148 -14 137 2 132 2 c 0
 122 2 116 -15 113 -24 c 2
 55 -208 l 2
 50 -223 49 -242 87 -246 c 0
 100 -247 117 -251 117 -261 c 0
 117 -269 103 -272 88 -272 c 0
 22 -272 -52 -281 -80 -286 c 0
357 282 m 0
 357 330 335 381 293 381 c 0
 270 381 250 378 238 372 c 0
 229 368 221 351 219 341 c 2
 158 117 l 2
 148 80 147 71 147 57 c 0
 147 37 169 20 192 20 c 0
 231 20 357 137 357 282 c 0
EndSplineSet
Validated: 33
Substitution2: "Smallcaps1 subtable" p.sc
Substitution2: "sups subtable" p.sups
Substitution2: "sinf subtable" p.sinf
Substitution2: "ordn subtable" p.ordn
Substitution2: "subs subtable" p.subs
EndChar

StartChar: b
Encoding: 98 98 9
Width: 452
Flags: MW
AnchorPoint: "below_accent" 89 -100 basechar 0
LayerCount: 2
Fore
SplineSet
198 559 m 2
 205 582 216 620 211 633 c 0
 207 645 155 651 155 660 c 0
 155 665 157 669 161 671 c 0
 191 686 266 707 282 707 c 0
 288 707 298 707 298 697 c 0
 298 686 298 683 295 674 c 2
 295 674 214 410 164 250 c 0
 158 231 167 238 178 251 c 0
 251 341 331 413 390 413 c 0
 426 413 452 378 452 321 c 0
 452 208 299 -8 135 -8 c 0
 88 -8 61 26 61 74 c 0
 61 132 73 161 94 228 c 2
 198 559 l 2
357 371 m 0
 330 371 250 306 191 234 c 0
 151 185 120 121 120 91 c 0
 120 49 139 32 173 32 c 0
 202 32 257 76 299 132 c 0
 350 199 386 281 386 308 c 0
 386 333 384 371 357 371 c 0
EndSplineSet
Validated: 33
Substitution2: "Smallcaps1 subtable" b.sc
Substitution2: "sups subtable" b.sups
Substitution2: "sinf subtable" b.sinf
Substitution2: "ordn subtable" b.ordn
Substitution2: "subs subtable" b.subs
EndChar

StartChar: q
Encoding: 113 113 10
Width: 465
Flags: MW
AnchorPoint: "top_accent" 385 550 basechar 0
LayerCount: 2
Fore
SplineSet
419 372 m 0
 427 372 429 375 434 385 c 2
 447 407 l 2
 456 422 464 428 474 428 c 0
 479 428 483 412 483 407 c 0
 483 401 482 404 477 390 c 2
 282 -199 l 2
 277 -214 270 -242 308 -246 c 0
 321 -247 338 -251 338 -261 c 0
 338 -269 324 -272 309 -272 c 0
 243 -272 161 -281 133 -286 c 0
 126 -287 113 -285 113 -277 c 0
 113 -267 131 -259 143 -257 c 0
 171 -253 196 -236 206 -211 c 2
 333 126 l 2
 347 164 321 140 317 136 c 0
 249 48 173 -14 84 -14 c 0
 53 -14 24 12 24 47 c 0
 24 131 91 246 171 331 c 0
 223 386 292 420 341 420 c 0
 399 420 405 372 419 372 c 0
94 61 m 0
 94 34 100 22 119 22 c 0
 172 22 266 107 318 175 c 0
 354 222 375 281 375 337 c 0
 375 363 364 383 338 383 c 0
 276 383 93 176 94 61 c 0
EndSplineSet
Validated: 33
Substitution2: "Smallcaps1 subtable" q.sc
Substitution2: "sups subtable" q.sups
Substitution2: "sinf subtable" q.sinf
Substitution2: "ordn subtable" q.ordn
Substitution2: "subs subtable" q.subs
EndChar

StartChar: d
Encoding: 100 100 11
Width: 513
Flags: MW
AnchorPoint: "top_right" 641 634 basechar 0
AnchorPoint: "top_right1" 631 624 basechar 0
AnchorPoint: "below_accent" 122 -100 basechar 0
LayerCount: 2
Fore
SplineSet
385 107 m 2
 377 80 383 50 395 50 c 0
 427 50 491 108 501 118 c 0
 502 119 503 119 504 119 c 0
 508 119 513 115 513 110 c 0
 513 105 510 99 508 96 c 0
 456 33 408 -14 345 -14 c 0
 325 -14 319 14 319 36 c 0
 319 77 325 108 333 136 c 0
 336 147 331 151 327 146 c 0
 259 58 175 -14 86 -14 c 0
 55 -14 26 12 26 47 c 0
 26 131 89 250 173 331 c 0
 227 384 294 420 343 420 c 0
 356 420 376 409 384 394 c 0
 390 382 395 384 398 392 c 2
 469 611 l 2
 487 667 424 661 424 675 c 0
 424 690 443 691 458 693 c 0
 476 696 537 705 547 705 c 0
 554 705 553 688 550 677 c 2
 385 107 l 2
96 61 m 0
 96 34 102 18 121 18 c 0
 174 18 268 107 320 175 c 0
 356 222 377 281 377 337 c 0
 377 363 359 389 333 389 c 0
 271 389 95 176 96 61 c 0
EndSplineSet
Substitution2: "Smallcaps1 subtable" d.sc
Substitution2: "sups subtable" d.sups
Substitution2: "sinf subtable" d.sinf
Substitution2: "ordn subtable" d.ordn
Substitution2: "subs subtable" d.subs
EndChar

StartChar: r
Encoding: 114 114 12
Width: 383
Flags: HMW
AnchorPoint: "below_accent" 27 -100 basechar 0
AnchorPoint: "top_accent" 287 550 basechar 0
LayerCount: 2
Fore
SplineSet
269 298 m 0
 239 259 169 151 129 78 c 0
 94 14 73 -17 57 -17 c 0
 47 -17 40 5 40 17 c 0
 40 23 48 46 62 84 c 2
 149 312 l 2
 160 341 164 356 151 356 c 0
 131 356 111 352 79 310 c 0
 74 304 66 304 64 314 c 0
 63 326 72 353 81 364 c 0
 103 392 129 414 174 414 c 0
 202 414 219 397 219 369 c 0
 219 332 194 276 163 212 c 0
 158 202 163 201 167 208 c 0
 264 355 330 419 368 419 c 0
 398 419 418 393 418 366 c 0
 418 339 404 288 376 288 c 0
 361 288 357 305 356 323 c 0
 355 343 351 364 337 364 c 0
 324 364 302 341 269 298 c 0
EndSplineSet
Substitution2: "Smallcaps1 subtable" r.sc
Substitution2: "sups subtable" r.sups
Substitution2: "sinf subtable" r.sinf
Substitution2: "ordn subtable" r.ordn
Substitution2: "subs subtable" r.subs
EndChar

StartChar: e
Encoding: 101 101 13
Width: 365
Flags: HMW
AnchorPoint: "POJ_TOP_RIGHT" 445 414 basechar 0
AnchorPoint: "cedilla" 168 8 basechar 0
AnchorPoint: "ogonek" 212 18 basechar 0
AnchorPoint: "below_accent" 94 -100 basechar 0
AnchorPoint: "top_accent" 316 550 basechar 0
LayerCount: 2
Fore
SplineSet
286 385 m 4
 231 385 149 282 149 252 c 4
 149 246 151 246 156 246 c 4
 186 246 314 273 314 353 c 4
 314 371 306 385 286 385 c 4
127 -15 m 4
 88 -15 42 22 42 98 c 4
 42 218 144 414 301 414 c 4
 355 414 375 392 375 351 c 4
 375 271 216 217 146 217 c 4
 138 217 135 215 131 207 c 4
 117 177 114 154 114 112 c 4
 114 62 130 35 164 35 c 4
 212 35 252 72 272 98 c 4
 278 106 285 109 290 109 c 4
 296 109 300 105 300 99 c 4
 300 97 300 94 298 91 c 4
 258 26 197 -15 127 -15 c 4
EndSplineSet
Substitution2: "Single Substitution lookup 88 subtable" e.fina
Substitution2: "Smallcaps1 subtable" e.sc
Substitution2: "sups subtable" e.sups
Substitution2: "sinf subtable" e.sinf
Substitution2: "ordn subtable" e.ordn
Substitution2: "subs subtable" e.subs
EndChar

StartChar: c
Encoding: 99 99 14
Width: 318
Flags: MW
AnchorPoint: "cedilla" 183 8 basechar 0
AnchorPoint: "below_accent" 102 -100 basechar 0
AnchorPoint: "top_accent" 295 550 basechar 0
LayerCount: 2
Fore
SplineSet
347 375 m 0
 347 362 331 333 317 333 c 0
 294 333 300 380 252 380 c 0
 188 380 114 208 114 98 c 8
 114 66 123 26 155 26 c 16
 203 26 229 56 257 89 c 0
 263 97 269 98 274 98 c 0
 280 98 278 90 278 84 c 0
 278 72 218 -15 122 -15 c 0
 83 -15 41 8 42 84 c 0
 42 204 122 414 292 414 c 0
 330 414 347 385 347 375 c 0
EndSplineSet
Validated: 33
Substitution2: "Smallcaps1 subtable" c.sc
Substitution2: "sups subtable" c.sups
Substitution2: "sinf subtable" c.sinf
Substitution2: "ordn subtable" c.ordn
Substitution2: "subs subtable" c.subs
EndChar

StartChar: u
Encoding: 117 117 15
Width: 498
Flags: HMW
AnchorPoint: "POJ_TOP_RIGHT" 570 351 basechar 0
AnchorPoint: "ogonek" 384 18 basechar 0
AnchorPoint: "below_accent" 181 -100 basechar 0
AnchorPoint: "top_accent" 387 550 basechar 0
LayerCount: 2
Fore
SplineSet
286 36 m 0
 314 96 350 175 360 203 c 0
 366 219 355 219 348 211 c 0
 209 59 134 -14 78 -14 c 0
 51 -14 55 30 66 55 c 26
 156 270 l 2
 165 292 184 339 174 339 c 0
 163 339 125 306 96 280 c 0
 93 277 83 279 83 283 c 0
 83 288 84 298 95 313 c 0
 145 380 221 418 250 418 c 0
 270 418 281 404 265 373 c 2
 144 104 l 2
 132 77 127 50 141 50 c 0
 155 50 181 72 243 136 c 0
 331 226 434 370 448 396 c 0
 457 413 465 414 470 414 c 0
 484 414 491 403 491 391 c 0
 491 385 488 373 478 350 c 2
 363 86 l 2
 352 60 354 47 366 47 c 0
 398 47 464 108 474 118 c 0
 475 119 476 119 477 119 c 0
 481 119 486 115 486 110 c 0
 486 105 483 99 481 96 c 0
 429 33 375 -14 312 -14 c 0
 292 -14 277 16 286 36 c 0
EndSplineSet
Substitution2: "Single Substitution lookup 44 subtable" u.LAT
Substitution2: "Smallcaps1 subtable" u.sc
Substitution2: "sups subtable" u.sups
Substitution2: "sinf subtable" u.sinf
Substitution2: "ordn subtable" u.ordn
Substitution2: "subs subtable" u.subs
Substitution2: "loclLAT subtable" u.LAT
EndChar

StartChar: s
Encoding: 115 115 17
Width: 276
Flags: MW
AnchorPoint: "cedilla" 119 8 basechar 0
AnchorPoint: "below_accent" 47 -100 basechar 0
AnchorPoint: "top_accent" 267 550 basechar 0
LayerCount: 2
Fore
SplineSet
243 414 m 0
 274 414 294 388 294 377 c 0
 294 365 278 335 266 335 c 0
 251 335 243 368 207 368 c 0
 185 368 167 348 167 319 c 0
 167 302 184 254 200 227 c 0
 216 200 230 153 230 123 c 0
 230 44 124 -14 44 -14 c 0
 10 -14 -10 10 -10 30 c 0
 -10 45 8 76 18 76 c 0
 34 76 52 34 109 34 c 0
 143 34 165 62 166 94 c 0
 167 132 156 164 142 190 c 0
 123 225 110 255 110 275 c 0
 110 355 206 414 243 414 c 0
EndSplineSet
Validated: 33
Substitution2: "Single Substitution lookup 50 subtable" longs
Substitution2: "Smallcaps1 subtable" s.sc
Substitution2: "sups subtable" s.sups
Substitution2: "sinf subtable" s.sinf
Substitution2: "ordn subtable" s.ordn
Substitution2: "subs subtable" s.subs
EndChar

StartChar: f
Encoding: 102 102 18
Width: 297
Flags: MW
AnchorPoint: "below_accent" 153 -100 basechar 0
AnchorPoint: "top_accent" 412 812 basechar 0
LayerCount: 2
Fore
SplineSet
-48 -248 m 0
 -5 -248 14 -192 48 -58 c 2
 48 -58 145 324 148 339 c 0
 151 352 148 357 134 357 c 2
 68 356 l 2
 59 356 55 361 55 368 c 0
 55 379 64 393 74 394 c 2
 153 398 l 2
 160 398 162 401 164 411 c 0
 218 635 350 706 424 706 c 0
 467 706 511 696 511 651 c 0
 511 626 490 590 469 590 c 0
 458 590 457 604 457 618 c 0
 457 640 430 665 380 665 c 0
 327 664 290 605 270 557 c 0
 263 539 233 438 229 422 c 0
 228 419 228 416 228 414 c 0
 228 403 235 400 244 400 c 0
 278 400 312 402 346 403 c 0
 348 403 353 398 353 396 c 0
 353 387 334 365 327 365 c 2
 247 362 l 2
 207 361 210 351 206 336 c 2
 126 0 l 2
 75 -214 -24 -288 -80 -288 c 0
 -130 -288 -171 -277 -171 -238 c 0
 -171 -214 -152 -194 -132 -194 c 0
 -112 -194 -98 -248 -48 -248 c 0
EndSplineSet
Substitution2: "Single Substitution lookup 81 subtable" f.short
Substitution2: "Single Substitution lookup 80 subtable" f.short
Substitution2: "Smallcaps1 subtable" f.sc
Substitution2: "sups subtable" f.sups
Substitution2: "sinf subtable" f.sinf
Substitution2: "ordn subtable" f.ordn
Substitution2: "subs subtable" f.subs
Substitution2: "loclDEU subtable" f.DEU
EndChar

StartChar: longs
Encoding: 383 383 19
Width: 249
Flags: MW
AnchorPoint: "below_accent" 164 -100 basechar 0
AnchorPoint: "top_accent" 454 812 basechar 0
LayerCount: 2
Fore
SplineSet
287 532 m 24
 200 333 158 172 118 0 c 0
 68 -216 -37 -288 -90 -288 c 0
 -140 -288 -186 -266 -186 -244 c 0
 -186 -220 -164 -191 -150 -191 c 0
 -124 -191 -104 -240 -62 -240 c 0
 -27 -240 2 -206 38 -58 c 0
 69 69 136 318 172 411 c 0
 253 621 360 706 433 706 c 0
 476 706 536 696 536 651 c 0
 536 626 515 590 494 590 c 0
 483 590 474 604 474 618 c 0
 474 640 459 665 409 665 c 0
 356 664 315 596 287 532 c 24
EndSplineSet
Validated: 1
Substitution2: "Single Substitution lookup 81 subtable" longs.short
Substitution2: "Single Substitution lookup 80 subtable" longs.short
Substitution2: "Smallcaps1 subtable" s.sc
EndChar

StartChar: germandbls
Encoding: 223 223 21
Width: 484
VWidth: 0
Flags: MW
LayerCount: 2
Fore
SplineSet
422 443 m 0
 454 472 553 535 553 591 c 0
 553 629 535 670 468 670 c 0
 352 670 271 519 230 406 c 0
 189 294 151 141 126 0 c 0
 105 -118 39 -288 -77 -288 c 0
 -127 -288 -168 -277 -168 -238 c 0
 -168 -214 -149 -194 -129 -194 c 0
 -109 -194 -95 -241 -45 -241 c 0
 -2 -241 12 -206 29 -124 c 0
 37 -85 69 69 80 118 c 0
 103 223 127 324 165 414 c 0
 250 616 359 706 517 706 c 0
 579 706 629 665 629 609 c 0
 629 543 502 476 478 456 c 2
 440 423 l 2
 416 402 392 378 392 317 c 0
 392 300 411 249 422 227 c 0
 439 192 456 163 456 133 c 0
 456 83 413 49 391 32 c 0
 361 9 322 -13 279 -14 c 0
 252 -15 212 -13 212 25 c 0
 212 47 234 69 255 69 c 0
 268 69 273 64 284 49 c 0
 293 38 304 34 319 34 c 0
 353 34 387 64 387 96 c 0
 387 120 371 154 354 188 c 0
 339 218 318 266 318 292 c 0
 318 353 364 392 422 443 c 0
EndSplineSet
Validated: 33
Substitution2: "Smallcaps1 subtable" germandbls.sc
EndChar

StartChar: v
Encoding: 118 118 22
Width: 395
Flags: HMW
AnchorPoint: "below_accent" 121 -100 basechar 0
AnchorPoint: "top_accent" 337 550 basechar 0
LayerCount: 2
Fore
SplineSet
137 133 m 2
 117 74 132 43 162 43 c 0
 251 43 358 179 358 288 c 0
 358 310 345 328 321 353 c 0
 315 359 315 368 315 373 c 0
 315 381 349 418 376 418 c 0
 390 418 405 395 405 349 c 0
 405 261 379 172 302 81 c 0
 248 18 187 -14 133 -14 c 0
 62 -14 57 80 84 151 c 10
 128 270 l 2
 136 293 149 334 136 334 c 0
 127 334 96 307 68 280 c 0
 65 277 55 279 55 283 c 0
 55 288 56 298 67 313 c 0
 117 380 176 418 205 418 c 0
 225 418 231 406 220 373 c 2
 137 133 l 2
EndSplineSet
Substitution2: "Single Substitution lookup 86 subtable" v.init
AlternateSubs2: "v_alternates subtable" v.init v.alt v.initalt
Substitution2: "ss03 subtable" v.alt
Substitution2: "Single Substitution lookup 45 subtable" v.LATmedi
Substitution2: "Smallcaps1 subtable" v.sc
Substitution2: "sups subtable" v.sups
Substitution2: "sinf subtable" v.sinf
Substitution2: "ordn subtable" v.ordn
Substitution2: "subs subtable" v.subs
Substitution2: "loclLAT subtable" v.LAT
EndChar

StartChar: w
Encoding: 119 119 23
Width: 604
Flags: HMW
AnchorPoint: "below_accent" 262 -100 basechar 0
AnchorPoint: "top_accent" 442 550 basechar 0
LayerCount: 2
Fore
SplineSet
354 143 m 0
 344 82 351 41 384 41 c 0
 458 41 555 179 555 288 c 0
 555 310 544 327 526 353 c 0
 521 360 521 369 523 374 c 0
 530 394 558 420 585 420 c 0
 599 420 614 395 614 349 c 0
 614 261 577 171 500 80 c 0
 446 17 409 -14 355 -14 c 0
 304 -14 283 54 298 120 c 0
 301 133 297 132 290 120 c 0
 242 44 171 -14 133 -14 c 0
 82 -14 40 40 80 141 c 10
 128 270 l 2
 137 293 149 334 136 334 c 0
 127 334 96 307 68 280 c 0
 65 277 55 279 55 283 c 0
 55 288 56 298 67 313 c 0
 117 380 176 418 205 418 c 0
 225 418 231 406 220 373 c 2
 133 120 l 2
 117 74 129 43 162 43 c 0
 210 43 305 182 311 202 c 0
 318 227 332 294 339 334 c 0
 340 342 348 362 359 372 c 0
 373 385 389 397 416 397 c 0
 430 397 426 348 416 322 c 0
 398 275 386 239 375 214 c 0
 365 191 356 157 354 143 c 0
EndSplineSet
Substitution2: "Single Substitution lookup 86 subtable" w.init
Substitution2: "ss03 subtable" w.alt
Substitution2: "Smallcaps1 subtable" w.sc
Substitution2: "sups subtable" w.sups
Substitution2: "sinf subtable" w.sinf
Substitution2: "ordn subtable" w.ordn
Substitution2: "subs subtable" w.subs
EndChar

StartChar: y
Encoding: 121 121 24
Width: 420
Flags: MW
AnchorPoint: "top_accent" 292 550 basechar 0
LayerCount: 2
Fore
SplineSet
145 355 m 0
 125 355 96 314 89 290 c 0
 87 283 78 261 70 261 c 0
 65 261 61 274 61 289 c 0
 61 350 119 414 164 414 c 0
 184 414 216 397 231 348 c 0
 249 290 264 212 258 79 c 0
 257 55 264 59 273 76 c 0
 317 160 359 271 359 401 c 0
 359 414 367 423 378 423 c 0
 388 423 415 401 415 374 c 0
 415 250 315 53 167 -130 c 0
 97 -217 20 -287 -35 -287 c 0
 -55 -287 -80 -273 -80 -245 c 0
 -80 -223 -55 -195 -38 -195 c 0
 -21 -195 -16 -227 20 -227 c 0
 41 -227 80 -200 104 -166 c 0
 156 -93 202 12 202 116 c 0
 202 301 165 355 145 355 c 0
EndSplineSet
Substitution2: "Smallcaps1 subtable" y.sc
Substitution2: "sups subtable" y.sups
Substitution2: "sinf subtable" y.sinf
Substitution2: "ordn subtable" y.ordn
Substitution2: "subs subtable" y.subs
EndChar

StartChar: g
Encoding: 103 103 25
Width: 365
Flags: MW
AnchorPoint: "top_accent" 287 550 basechar 0
LayerCount: 2
Fore
SplineSet
136 -86 m 0
 123 -79 109 -82 96 -86 c 0
 16 -111 -39 -141 -39 -182 c 0
 -39 -226 54 -260 136 -260 c 0
 230 -260 251 -224 250 -188 c 0
 248 -144 173 -106 136 -86 c 0
241 381 m 0
 225 381 202 366 187 347 c 0
 151 302 111 212 112 158 c 0
 113 110 131 104 141 104 c 0
 211 104 274 265 272 330 c 0
 271 350 264 381 241 381 c 0
91 -66 m 0
 96 -64 97 -56 93 -52 c 0
 69 -31 57 -12 57 14 c 0
 57 39 71 44 98 65 c 0
 105 70 116 81 110 84 c 0
 93 94 47 134 47 180 c 0
 46 269 143 414 248 414 c 0
 276 414 294 405 300 399 c 0
 307 392 313 391 323 391 c 0
 358 393 377 404 412 404 c 0
 420 404 428 400 428 392 c 0
 428 363 423 346 418 346 c 0
 389 346 373 353 344 353 c 0
 337 353 323 355 327 344 c 0
 331 332 332 318 331 300 c 0
 329 247 282 140 215 99 c 0
 191 84 155 77 144 77 c 0
 136 77 131 67 126 61 c 0
 120 53 115 55 116 38 c 0
 117 10 140 -9 175 -33 c 0
 209 -56 255 -84 296 -114 c 0
 313 -126 323 -146 323 -166 c 0
 323 -271 190 -290 85 -290 c 0
 0 -290 -103 -249 -103 -180 c 0
 -103 -138 5 -95 20 -90 c 0
 49 -81 66 -75 91 -66 c 0
EndSplineSet
Validated: 33
AlternateSubs2: "alternate_g subtable" g.01
Substitution2: "Smallcaps1 subtable" g.sc
Substitution2: "sups subtable" g.sups
Substitution2: "sinf subtable" g.sinf
Substitution2: "ordn subtable" g.ordn
Substitution2: "subs subtable" g.subs
EndChar

StartChar: P
Encoding: 80 80 26
Width: 570
VWidth: 0
Flags: MW
AnchorPoint: "below_accent" 170 -100 basechar 0
AnchorPoint: "top_accent" 445 710 basechar 0
LayerCount: 2
Fore
SplineSet
157 2 m 24
 109 2 84 -5 34 -5 c 0
 18 -5 10 -2 10 6 c 0
 10 15 23 20 46 24 c 0
 95 33 123 51 138 100 c 2
 267 522 l 2
 290 596 277 616 211 622 c 0
 191 624 187 633 187 642 c 0
 187 650 201 653 217 653 c 0
 227 653 296 652 306 652 c 0
 343 652 391 657 417 657 c 8
 524 657 629 595 629 484 c 8
 629 343 491 254 350 254 c 16
 337 254 308 256 308 267 c 0
 308 275 319 279 326 280 c 0
 455 294 546 357 546 471 c 8
 546 553 491 630 409 630 c 16
 374 630 370 618 361 588 c 2
 215 111 l 2
 200 63 207 33 251 24 c 0
 271 20 276 15 276 6 c 0
 276 -2 262 -5 246 -5 c 0
 196 -5 192 2 157 2 c 24
EndSplineSet
Validated: 33
Substitution2: "Swash subtable" P.sw
Substitution2: "c2sc subtable" P.sc
Substitution2: "sups subtable" P.sups
Substitution2: "sinf subtable" P.sinf
Substitution2: "ordn subtable" P.ordn
Substitution2: "subs subtable" P.subs
EndChar

StartChar: M
Encoding: 77 77 27
Width: 1004
VWidth: 0
Flags: MW
AnchorPoint: "below_accent" 393 -100 basechar 0
AnchorPoint: "top_accent" 726 710 basechar 0
LayerCount: 2
Fore
SplineSet
1017 583 m 2
 869 106 l 2
 856 65 877 33 921 26 c 0
 941 23 947 18 947 9 c 0
 947 3 933 -3 917 -3 c 0
 867 -3 832 8 777 8 c 24
 731 8 710 -3 660 -3 c 0
 644 -3 637 1 637 9 c 0
 637 17 650 25 672 28 c 0
 731 35 761 57 776 104 c 2
 905 471 l 2
 909 482 916 506 913 506 c 0
 911 506 883 479 875 469 c 2
 430 10 l 1
 418 -7 409 -14 405 -14 c 0
 400 -14 400 -4 401 11 c 2
 441 486 l 2
 442 500 444 537 435 537 c 0
 429 537 418 519 401 490 c 2
 167 90 l 2
 153 66 147 33 191 26 c 0
 211 23 216 18 216 9 c 0
 216 1 203 -3 187 -3 c 0
 137 -3 125 0 79 0 c 8
 45 0 43 -6 -7 -6 c 0
 -23 -6 -31 -4 -31 4 c 0
 -31 13 -19 19 4 23 c 0
 67 34 83 52 124 119 c 2
 378 532 l 2
 411 586 427 622 310 622 c 0
 298 622 288 632 288 642 c 0
 288 653 320 658 326 658 c 0
 360 658 500 653 524 653 c 0
 541 653 522 599 519 553 c 2
 496 172 l 2
 495 162 499 157 503 157 c 0
 506 157 521 163 528 170 c 2
 913 573 l 2
 953 615 968 650 982 650 c 0
 1054 650 1091 658 1119 658 c 0
 1125 658 1138 654 1138 645 c 0
 1138 634 1124 625 1103 623 c 0
 1045 617 1024 605 1017 583 c 2
EndSplineSet
Validated: 33
Substitution2: "Swash subtable" M.sw
Substitution2: "c2sc subtable" M.sc
Substitution2: "sups subtable" M.sups
Substitution2: "sinf subtable" M.sinf
Substitution2: "ordn subtable" M.ordn
Substitution2: "subs subtable" M.subs
EndChar

StartChar: N
Encoding: 78 78 28
Width: 819
VWidth: 0
Flags: MW
AnchorPoint: "below_accent" 374 -100 basechar 0
AnchorPoint: "top_accent" 552 710 basechar 0
LayerCount: 2
Fore
SplineSet
800 650 m 0
 845 650 871 653 928 653 c 0
 944 653 951 650 951 642 c 0
 951 633 937 624 914 622 c 0
 856 616 836 588 818 555 c 0
 806 533 694 168 682 112 c 0
 681 109 681 94 686 82 c 0
 697 57 724 16 724 6 c 0
 724 0 720 0 716 0 c 0
 695 0 648 0 643 0 c 0
 632 0 623 5 601 43 c 2
 357 456 l 2
 351 467 338 485 333 485 c 0
 326 485 316 463 313 455 c 2
 197 117 l 2
 171 40 200 34 257 24 c 0
 277 20 282 15 282 6 c 0
 282 -2 268 -5 252 -5 c 0
 202 -5 187 0 146 0 c 24
 105 0 92 -5 42 -5 c 0
 26 -5 18 -2 18 6 c 0
 18 15 20 25 43 30 c 0
 106 44 106 29 136 108 c 2
 285 500 l 2
 292 518 297 549 291 557 c 2
 258 596 l 2
 250 606 208 615 169 620 c 0
 164 621 148 631 148 644 c 0
 148 657 166 658 173 658 c 0
 245 656 266 653 333 653 c 0
 344 653 345 645 350 636 c 2
 628 188 l 2
 632 182 641 169 648 169 c 0
 653 169 655 174 661 189 c 0
 676 233 759 513 769 564 c 0
 776 599 706 615 687 619 c 0
 667 623 662 630 662 639 c 0
 662 647 677 650 693 650 c 0
 726 650 790 650 800 650 c 0
EndSplineSet
Validated: 33
Substitution2: "Swash subtable" N.sw
Substitution2: "c2sc subtable" N.sc
Substitution2: "sups subtable" N.sups
Substitution2: "sinf subtable" N.sinf
Substitution2: "ordn subtable" N.ordn
Substitution2: "subs subtable" N.subs
EndChar

StartChar: R
Encoding: 82 82 29
Width: 639
VWidth: 0
Flags: MW
AnchorPoint: "below_accent" 312 -100 basechar 0
AnchorPoint: "top_accent" 441 710 basechar 0
LayerCount: 2
Fore
SplineSet
304 356 m 0
 299 319 318 318 350 318 c 0
 406 318 536 360 536 500 c 0
 536 576 484 630 414 630 c 16
 386 630 374 618 366 588 c 2
 366 588 306 374 304 356 c 0
220 111 m 2
 205 63 212 33 256 24 c 0
 276 20 281 15 281 6 c 0
 281 -2 267 -5 251 -5 c 0
 201 -5 197 2 162 2 c 24
 114 2 89 -5 39 -5 c 0
 23 -5 15 -2 15 6 c 0
 15 15 28 20 51 24 c 0
 100 33 128 51 143 100 c 2
 272 522 l 2
 295 596 282 616 216 622 c 0
 196 624 186 633 186 642 c 0
 186 650 206 653 222 653 c 0
 232 653 301 652 311 652 c 0
 348 652 396 657 422 657 c 0
 524 657 619 618 619 524 c 0
 619 398 537 354 446 312 c 0
 437 308 433 304 437 295 c 0
 451 259 508 133 537 78 c 0
 556 43 584 27 605 27 c 0
 622 27 639 22 639 13 c 0
 639 -2 614 -4 597 -4 c 0
 542 -4 495 1 477 32 c 0
 444 89 400 181 376 241 c 0
 357 287 350 290 300 290 c 0
 290 290 276 286 272 274 c 2
 220 111 l 2
EndSplineSet
Validated: 33
Substitution2: "Swash subtable" R.sw
Substitution2: "c2sc subtable" R.sc
Substitution2: "sups subtable" R.sups
Substitution2: "sinf subtable" R.sinf
Substitution2: "ordn subtable" R.ordn
Substitution2: "subs subtable" R.subs
EndChar

StartChar: B
Encoding: 66 66 30
Width: 592
VWidth: 0
Flags: MW
AnchorPoint: "below_accent" 230 -100 basechar 0
AnchorPoint: "top_accent" 445 710 basechar 0
LayerCount: 2
Fore
SplineSet
345 371 m 0
 435 371 536 422 536 516 c 16
 536 578 505 625 426 625 c 0
 393 625 379 617 372 594 c 2
 372 594 322 418 319 408 c 0
 309 374 322 371 345 371 c 0
253 -4 m 0
 236 -4 203 0 166 0 c 0
 118 0 98 -5 44 -5 c 0
 28 -5 20 -3 20 6 c 0
 20 16 33 20 56 24 c 0
 105 33 137 51 152 99 c 2
 289 549 l 2
 304 597 293 612 249 621 c 0
 229 625 222 628 222 638 c 0
 222 647 239 650 255 650 c 0
 288 650 301 651 329 651 c 0
 359 651 409 657 430 657 c 0
 578 658 617 579 617 517 c 0
 617 430 524 382 456 369 c 0
 445 367 448 361 453 359 c 0
 478 350 561 318 561 193 c 0
 561 73 414 -4 253 -4 c 0
336 343 m 0
 312 343 297 336 288 307 c 0
 269 247 243 161 229 108 c 0
 224 90 222 68 229 56 c 0
 236 45 261 25 284 25 c 8
 384 25 474 99 474 198 c 8
 474 281 427 343 336 343 c 0
EndSplineSet
Validated: 33
Substitution2: "Swash subtable" B.sw
Substitution2: "c2sc subtable" B.sc
Substitution2: "sups subtable" B.sups
Substitution2: "sinf subtable" B.sinf
Substitution2: "ordn subtable" B.ordn
Substitution2: "subs subtable" B.subs
EndChar

StartChar: A
Encoding: 65 65 31
Width: 772
VWidth: 0
Flags: HMW
AnchorPoint: "POJ_TOP_RIGHT" 880 580 basechar 0
AnchorPoint: "cedilla" 145 8 basechar 0
AnchorPoint: "ogonek" 598 18 basechar 0
AnchorPoint: "below_accent" 334 -100 basechar 0
AnchorPoint: "top_accent" 792 710 basechar 0
LayerCount: 2
Fore
SplineSet
672 -5 m 0
 646 -5 586 1 544 1 c 0
 508 1 474 0 452 0 c 0
 436 0 428 3.75 428 12 c 0
 428 21.490234375 447 27 465 31 c 0
 533 45 540 56 559 112 c 2
 600 235 l 2
 604 246 591 253 572 253 c 2
 391 244 l 2
 386 244 367 238 356 226 c 2
 240 102 l 2
 195 54 228 32 241 30 c 0
 262 27 266 22 266 12 c 0
 266 3 251 -1 235 -1 c 0
 218 -1 185 1 151 1 c 0
 110 1 69 -5 38 -5 c 0
 22 -5 15 -1 15 8 c 0
 15 18 29 24 52 31 c 0
 87 41 136 65 180 108 c 2
 652 564 l 2
 681 592 698 622 706 622 c 0
 719 622 730 626 752 636 c 0
 769 644 796 676 801 676 c 0
 806 676 808 662 803 644 c 2
 648 128 l 2
 630 67 643 35 678 28 c 0
 698 24 704 16.490234375 704 7 c 0
 704 -1.25 688 -5 672 -5 c 0
640 506 m 2
 442 310 l 2
 430 298 422 285 458 288 c 2
 592 296 l 2
 606 297 615 303 622 324 c 2
 680 494 l 2
 689 521 690 539 684 539 c 0
 679 539 665 531 640 506 c 2
EndSplineSet
Substitution2: "Swash subtable" A.sw
Substitution2: "c2sc subtable" A.sc
Substitution2: "sups subtable" A.sups
Substitution2: "sinf subtable" A.sinf
Substitution2: "ordn subtable" A.ordn
Substitution2: "subs subtable" A.subs
EndChar

StartChar: C
Encoding: 67 67 32
Width: 622
VWidth: 0
Flags: MW
AnchorPoint: "cedilla" 408 8 basechar 0
AnchorPoint: "below_accent" 350 -100 basechar 0
AnchorPoint: "top_accent" 551 710 basechar 0
LayerCount: 2
Fore
SplineSet
384 -14 m 8
 234 -14 96 90 96 240 c 16
 96 494 293 663 529 663 c 16
 610 663 662 629 672 629 c 0
 684 629 700 645 715 645 c 0
 727 645 726 634 722 629 c 0
 700 599 664 532 655 487 c 0
 653 477 644 467 637 467 c 8
 625 467 620 481 622 493 c 0
 628 523 634 565 613 593 c 0
 596 616 558 628 519 628 c 0
 326 628 180 432 180 228 c 8
 180 110 294 23 402 23 c 0
 465 23 513 76 552 139 c 0
 558 149 564 157 569 157 c 0
 575 157 576 149 576 138 c 0
 576 115 523 -7 512 -9 c 0
 502 -11 492 11 472 11 c 0
 452 11 435 -14 384 -14 c 8
EndSplineSet
Validated: 33
Substitution2: "Swash subtable" C.sw
Substitution2: "c2sc subtable" C.sc
Substitution2: "sups subtable" C.sups
Substitution2: "sinf subtable" C.sinf
Substitution2: "ordn subtable" C.ordn
Substitution2: "subs subtable" C.subs
EndChar

StartChar: I
Encoding: 73 73 33
Width: 371
VWidth: 0
Flags: HMW
AnchorPoint: "POJ_TOP_RIGHT" 473 547 basechar 0
AnchorPoint: "ogonek" 173 18 basechar 0
AnchorPoint: "below_accent" 130 -100 basechar 0
AnchorPoint: "top_accent" 359 710 basechar 0
LayerCount: 2
Fore
SplineSet
275 550 m 2
 289 597 278 613 234 622 c 0
 214 626 210 633 210 642 c 0
 210 650 224 653 240 653 c 0
 290 653 305 650 348 650 c 24
 388 650 400 653 450 653 c 0
 466 653 474 650 474 642 c 0
 474 633 460 626 437 622 c 0
 388 613 363 597 349 550 c 2
 211 98 l 2
 197 51 218 33 262 24 c 0
 282 20 287 15 287 6 c 0
 287 -2 273 -5 257 -5 c 0
 207 -5 192 0 149 0 c 24
 103 0 79 -5 29 -5 c 0
 13 -5 5 -2 5 6 c 0
 5 15 18 20 41 24 c 0
 90 33 123 51 137 98 c 2
 275 550 l 2
EndSplineSet
Substitution2: "Swash subtable" I.sw
Substitution2: "c2sc subtable" I.sc
Substitution2: "sups subtable" I.sups
Substitution2: "sinf subtable" I.sinf
Substitution2: "ordn subtable" I.ordn
Substitution2: "subs subtable" I.subs
EndChar

StartChar: T
Encoding: 84 84 34
Width: 635
VWidth: 0
Flags: MW
AnchorPoint: "cedilla" 290 18 basechar 0
AnchorPoint: "below_accent" 247 -100 basechar 0
AnchorPoint: "top_accent" 450 710 basechar 0
LayerCount: 2
Fore
SplineSet
327 102 m 6
 313 54 333 31 377 22 c 4
 397 18 402 15 402 6 c 4
 402 -2 388 -5 372 -5 c 4
 322 -5 307 0 265 0 c 28
 218 0 194 -5 144 -5 c 4
 128 -5 120 -2 120 6 c 4
 120 15 134 18 157 22 c 4
 206 31 239 54 253 102 c 6
 383 557 l 6
 389 575 393 607 379 607 c 4
 349 607 289 607 250 607 c 4
 194 607 161 560 142 524 c 4
 135 511 131 506 123 506 c 4
 115 506 115 506 115 517 c 4
 115 522 143 596 161 646 c 4
 164 655 169 666 174 666 c 4
 184 666 184 642 223 642 c 6
 691 642 l 6
 720 642 733 666 743 666 c 0
 746 666 749 658 749 650 c 0
 749 643 745 634 741 627 c 0
 734 614 714 565 706 511 c 0
 704 500 700 497 695 497 c 0
 686 497 681 506 681 520 c 0
 681 525 697 607 630 607 c 4
 582 607 507 607 488 607 c 4
 474 607 463 575 457 557 c 6
 327 102 l 6
EndSplineSet
Validated: 33
Substitution2: "Swash subtable" T.sw
Substitution2: "c2sc subtable" T.sc
Substitution2: "sups subtable" T.sups
Substitution2: "sinf subtable" T.sinf
Substitution2: "ordn subtable" T.ordn
Substitution2: "subs subtable" T.subs
EndChar

StartChar: E
Encoding: 69 69 35
Width: 621
VWidth: 0
Flags: HMW
AnchorPoint: "POJ_TOP_RIGHT" 746 654 basechar 0
AnchorPoint: "cedilla" 363 8 basechar 0
AnchorPoint: "ogonek" 518 18 basechar 0
AnchorPoint: "below_accent" 280 -100 basechar 0
AnchorPoint: "top_accent" 501 710 basechar 0
LayerCount: 2
Fore
SplineSet
247 653 m 0
 262 653 314 650 356 650 c 2
 611 650 l 2
 636 650 660 654 665 654 c 0
 672 654 673 651 673 644 c 0
 673 632 654 593 646 540 c 0
 645 534 635 523 629 523 c 0
 622 523 618 539 618 546 c 0
 618 583 621 618 570 618 c 2
 426 618 l 2
 399 618 383 608 377 588 c 2
 308 374 l 2
 305 364 306 349 315 349 c 2
 460 352 l 2
 487 353 512 368 531 389 c 0
 540 399 554 408 559 408 c 0
 564 408 571 401 566 392 c 0
 540 342 533 320 520 269 c 0
 517 260 514 252 507 252 c 8
 496 252 492 268 492 275 c 0
 492 306 469 319 455 320 c 0
 432 322 348 322 330 322 c 0
 307 322 290 320 282 291 c 2
 231 113 l 2
 216 62 223 30 265 30 c 2
 430 30 l 2
 502 30 535 77 565 116 c 0
 571 124 573 126 581 126 c 0
 587 126 589 122 589 114 c 0
 589 96 565 39 547 11 c 0
 542 3 533 -5 524 -5 c 8
 380 -5 247 1 154 1 c 8
 105 1 79 -5 29 -5 c 0
 13 -5 5 -2 5 6 c 0
 5 15 18 20 41 24 c 0
 90 33 134 51 149 99 c 2
 286 549 l 2
 301 597 285 613 241 622 c 0
 221 626 216 633 216 642 c 0
 216 650 231 653 247 653 c 0
EndSplineSet
Substitution2: "Swash subtable" E.sw
Substitution2: "c2sc subtable" E.sc
Substitution2: "sups subtable" E.sups
Substitution2: "sinf subtable" E.sinf
Substitution2: "ordn subtable" E.ordn
Substitution2: "subs subtable" E.subs
EndChar

StartChar: L
Encoding: 76 76 36
Width: 619
VWidth: 0
Flags: MW
AnchorPoint: "top_right" 612 615 basechar 0
AnchorPoint: "top_right1" 631 620 basechar 0
AnchorPoint: "cedilla" 183 8 basechar 0
AnchorPoint: "below_accent" 314 -100 basechar 0
AnchorPoint: "top_accent" 379 710 basechar 0
LayerCount: 2
Fore
SplineSet
152 99 m 2
 293 560 l 2
 308 608 300 613 256 622 c 0
 236 626 231 633 231 642 c 0
 231 650 245 653 261 653 c 0
 311 653 324 650 365 650 c 24
 411 650 433 653 483 653 c 0
 499 653 506 650 506 642 c 0
 506 633 493 626 470 622 c 0
 421 613 382 606 370 567 c 2
 235 113 l 2
 220 62 227 30 269 30 c 2
 450 30 l 2
 522 30 555 77 585 116 c 0
 591 124 593 126 601 126 c 0
 607 126 609 122 609 114 c 0
 609 96 585 39 567 11 c 0
 562 3 553 -5 544 -5 c 8
 393 -5 251 1 158 1 c 8
 109 1 83 -5 33 -5 c 0
 17 -5 9 -2 9 6 c 0
 9 15 22 20 45 24 c 0
 94 33 138 52 152 99 c 2
EndSplineSet
Substitution2: "Swash subtable" L.sw
Substitution2: "c2sc subtable" L.sc
Substitution2: "sups subtable" L.sups
Substitution2: "sinf subtable" L.sinf
Substitution2: "ordn subtable" L.ordn
Substitution2: "subs subtable" L.subs
Position2: "Single Positioning lookup 2 subtable" dx=0 dy=0 dh=40 dv=0
EndChar

StartChar: V
Encoding: 86 86 37
Width: 644
VWidth: 0
Flags: MW
AnchorPoint: "below_accent" 82 -100 basechar 0
AnchorPoint: "top_accent" 471 710 basechar 0
LayerCount: 2
Fore
SplineSet
561 549 m 2
 603 600 559 619 546 621 c 0
 525 624 522 632 522 641 c 0
 522 649 536 652 552 652 c 0
 569 652 616 650 650 650 c 0
 691 650 710 656 741 656 c 0
 757 656 764 651 764 643 c 0
 764 634 750 627 727 620 c 0
 692 610 649 591 610 543 c 2
 240 94 l 2
 227 78 209 46 199 26 c 0
 197 22 133 -25 117 -25 c 0
 112 -25 112 -13 112 5 c 0
 112 10 125 60 133 106 c 2
 202 523 l 2
 212 586 201 613 139 623 c 0
 119 626 115 637 115 646 c 0
 115 654 129 656 145 656 c 0
 171 656 216 650 258 650 c 0
 294 650 330 651 352 651 c 0
 368 651 376 648 376 640 c 0
 376 631 357 624 339 620 c 0
 303 613 281 591 273 539 c 2
 219 168 l 2
 213 140 214 134 220 134 c 0
 225 134 234 138 256 166 c 2
 561 549 l 2
EndSplineSet
Validated: 33
Substitution2: "Swash subtable" V.sw
Substitution2: "VW_alts subtable" V.01
Substitution2: "c2sc subtable" V.sc
Substitution2: "sups subtable" V.sups
Substitution2: "sinf subtable" V.sinf
Substitution2: "ordn subtable" V.ordn
Substitution2: "subs subtable" V.subs
EndChar

StartChar: W
Encoding: 87 87 38
Width: 976
VWidth: 0
Flags: MW
AnchorPoint: "below_accent" 263 -100 basechar 0
AnchorPoint: "top_accent" 623 710 basechar 0
LayerCount: 2
Fore
SplineSet
899 549 m 2
 941 600 897 619 884 621 c 0
 863 624 860 632 860 641 c 0
 860 649 874 652 890 652 c 0
 907 652 954 650 988 650 c 0
 1029 650 1048 656 1079 656 c 0
 1095 656 1102 651 1102 643 c 0
 1102 634 1088 627 1065 620 c 0
 1030 610 987 591 948 543 c 2
 578 94 l 2
 543 51 482 -25 468 -25 c 0
 463 -25 458 -15 454 6 c 0
 453 10 460 58 471 106 c 1
 535 490 l 1
 208 94 l 2
 173 51 112 -25 98 -25 c 0
 93 -25 88 -15 84 6 c 0
 83 10 90 58 101 106 c 1
 170 523 l 2
 180 586 169 613 107 623 c 0
 87 626 83 637 83 646 c 0
 83 654 97 656 113 656 c 0
 139 656 184 650 226 650 c 0
 262 650 298 651 320 651 c 0
 336 651 344 648 344 640 c 0
 344 631 325 624 307 620 c 0
 271 613 249 591 241 539 c 2
 187 168 l 1
 181 140 182 134 188 134 c 0
 193 134 202 138 224 166 c 2
 529 549 l 2
 535 557 540 564 543 570 c 1
 539 600 521 616 477 623 c 0
 457 626 453 637 453 646 c 0
 453 654 467 656 483 656 c 0
 513 656 570 650 609 650 c 0
 647 650 677 656 709 656 c 0
 725 656 732 651 732 643 c 0
 732 634 718 627 695 620 c 0
 675 614 651 605 628 589 c 1
 620 577 614 561 611 539 c 2
 557 168 l 1
 551 140 552 134 558 134 c 0
 563 134 572 138 594 166 c 2
 899 549 l 2
EndSplineSet
Validated: 33
Substitution2: "Swash subtable" W.sw
Substitution2: "VW_alts subtable" W.01
Substitution2: "c2sc subtable" W.sc
Substitution2: "sups subtable" W.sups
Substitution2: "sinf subtable" W.sinf
Substitution2: "ordn subtable" W.ordn
Substitution2: "subs subtable" W.subs
EndChar

StartChar: period
Encoding: 46 46 39
Width: 215
VWidth: 0
Flags: MW
LayerCount: 2
Fore
SplineSet
90 101 m 16
 116 101 135 77 135 51 c 8
 135 15 106 -14 70 -14 c 8
 44 -14 25 10 25 36 c 8
 25 72 54 101 90 101 c 16
EndSplineSet
Validated: 1
Substitution2: "sups subtable" period.sups
Substitution2: "sinf subtable" period.sinf
Substitution2: "ordn subtable" period.ordn
Substitution2: "subs subtable" period.subs
EndChar

StartChar: G
Encoding: 71 71 40
Width: 687
VWidth: 0
Flags: MW
AnchorPoint: "below_accent" 363 -100 basechar 0
AnchorPoint: "top_accent" 536 710 basechar 0
LayerCount: 2
Fore
SplineSet
716 629 m 0
 694 599 658 532 649 487 c 0
 647 477 638 467 631 467 c 8
 619 467 614 481 616 493 c 0
 622 523 628 565 607 593 c 0
 590 616 552 628 513 628 c 8
 315 628 182 436 182 242 c 0
 182 110 311 23 418 23 c 0
 478 23 507 73 514 100 c 2
 542 208 l 2
 554 252 498 256 479 256 c 0
 465 256 456 265 456 274 c 0
 456 283 466 290 480 290 c 8
 526 290 552 287 598 287 c 24
 631 287 649 290 682 290 c 16
 687 290 696 285 696 276 c 0
 696 267 683 258 671 256 c 0
 641 251 626 240 614 213 c 0
 596 174 578 103 578 88 c 0
 578 76 594 64 592 60 c 0
 590 55 582 48 574 42 c 0
 555 26 477 -14 405 -14 c 0
 229 -14 98 82 98 254 c 0
 98 486 277 663 523 663 c 0
 604 663 656 629 666 629 c 0
 678 629 694 645 709 645 c 0
 721 645 720 634 716 629 c 0
EndSplineSet
Validated: 33
Substitution2: "Swash subtable" G.sw
Substitution2: "c2sc subtable" G.sc
Substitution2: "sups subtable" G.sups
Substitution2: "sinf subtable" G.sinf
Substitution2: "ordn subtable" G.ordn
Substitution2: "subs subtable" G.subs
EndChar

StartChar: F
Encoding: 70 70 41
Width: 536
VWidth: 0
Flags: MW
AnchorPoint: "top_accent" 474 710 basechar 0
LayerCount: 2
Fore
SplineSet
212 113 m 2
 192 44 215 33 259 24 c 0
 279 20 284 16 284 6 c 0
 284 -3 270 -5 254 -5 c 0
 204 -5 192 2 153 2 c 24
 107 2 84 -5 34 -5 c 0
 18 -5 10 -3 10 6 c 0
 10 16 23 20 46 24 c 0
 95 33 115 50 130 99 c 2
 267 549 l 1
 283 597 266 613 222 622 c 0
 202 626 197 633 197 642 c 0
 197 650 212 653 228 653 c 0
 243 653 295 650 337 650 c 2
 592 650 l 2
 617 650 641 654 646 654 c 0
 653 654 654 651 654 644 c 0
 654 629 637 598 627 540 c 0
 626 534 616 523 610 523 c 0
 603 523 599 539 599 546 c 0
 599 583 602 618 551 618 c 2
 397 618 l 2
 372 618 365 604 358 588 c 0
 354 579 304 423 289 374 c 0
 286 363 287 349 296 349 c 2
 441 352 l 2
 468 353 493 368 512 389 c 0
 521 399 535 408 540 408 c 0
 545 408 552 401 547 392 c 0
 521 342 514 320 501 269 c 0
 498 260 495 252 488 252 c 8
 477 252 473 268 473 275 c 0
 473 306 450 319 436 320 c 0
 413 322 329 322 311 322 c 0
 288 322 271 320 263 291 c 2
 212 113 l 2
EndSplineSet
Validated: 33
Substitution2: "Swash subtable" F.sw
Substitution2: "c2sc subtable" F.sc
Substitution2: "sups subtable" F.sups
Substitution2: "sinf subtable" F.sinf
Substitution2: "ordn subtable" F.ordn
Substitution2: "subs subtable" F.subs
EndChar

StartChar: J
Encoding: 74 74 42
Width: 335
VWidth: 0
Flags: MW
AnchorPoint: "top_accent" 351 710 basechar 0
LayerCount: 2
Fore
SplineSet
-10 -158 m 0
 34 -158 70 -97 100 0 c 2
 268 551 l 1
 283 597 273 613 229 622 c 0
 209 626 204 633 204 642 c 0
 204 650 219 653 235 653 c 0
 285 653 299 650 342 650 c 24
 376 650 381 653 431 653 c 0
 447 653 454 650 454 642 c 0
 454 633 441 626 418 622 c 0
 369 613 358 597 343 551 c 1
 218 142 l 2
 154 -68 122 -94 84 -134 c 0
 47 -173 5 -200 -50 -200 c 0
 -110 -200 -133 -180 -133 -158 c 0
 -133 -130 -100 -103 -83 -103 c 0
 -59 -103 -51 -111 -45 -129 c 0
 -38 -152 -26 -158 -10 -158 c 0
EndSplineSet
Validated: 33
Substitution2: "Swash subtable" J.sw
Substitution2: "historic_j subtable" J.hist
Substitution2: "c2sc subtable" J.sc
Substitution2: "sups subtable" J.sups
Substitution2: "sinf subtable" J.sinf
Substitution2: "ordn subtable" J.ordn
Substitution2: "subs subtable" J.subs
EndChar

StartChar: D
Encoding: 68 68 43
Width: 773
VWidth: 0
Flags: MW
AnchorPoint: "cedilla" 409 8 basechar 0
AnchorPoint: "below_accent" 297 -100 basechar 0
AnchorPoint: "top_accent" 508 710 basechar 0
LayerCount: 2
Fore
SplineSet
335 -7 m 0
 316 -7 221 0 148 0 c 0
 111 0 93 -5 44 -5 c 0
 28 -5 20 -2 20 6 c 0
 20 15 33 23 56 24 c 0
 119 26 131 51 147 99 c 2
 297 560 l 2
 312 608 254 613 210 622 c 0
 190 626 186 633 186 642 c 0
 186 650 200 653 216 653 c 0
 269 653 311 651 353 651 c 0
 393 651 391 656 449 656 c 0
 628 656 783 578 783 406 c 0
 783 149 588 -7 335 -7 c 0
697 395 m 0
 697 548 602 618 445 618 c 0
 425 618 385 611 371 567 c 2
 229 121 l 2
 202 36 241 28 343 28 c 8
 542 28 697 207 697 395 c 0
EndSplineSet
Validated: 33
Substitution2: "Swash subtable" D.sw
Substitution2: "c2sc subtable" D.sc
Substitution2: "sups subtable" D.sups
Substitution2: "sinf subtable" D.sinf
Substitution2: "ordn subtable" D.ordn
Substitution2: "subs subtable" D.subs
EndChar

StartChar: Q
Encoding: 81 81 44
Width: 665
VWidth: 0
Flags: MW
AnchorPoint: "top_accent" 503 710 basechar 0
LayerCount: 2
Fore
SplineSet
482 630 m 0
 352 630 170 419 170 217 c 0
 170 110 214 28 305 28 c 0
 416 28 595 275 595 448 c 0
 595 528 571 630 482 630 c 0
270 -2 m 0
 182 8 80 100 80 214 c 0
 80 242 85 274 95 307 c 0
 156 505 289 662 490 662 c 0
 605 662 673 583 673 441 c 0
 673 278 551 119 428 32 c 0
 329 -38 283 -55 206 -81 c 0
 195 -85 196 -92 213 -94 c 0
 317 -106 330 -217 495 -217 c 0
 552 -217 593 -187 622 -164 c 0
 630 -158 635 -155 644 -155 c 0
 650 -155 650 -168 647 -171 c 0
 618 -210 549 -270 459 -270 c 0
 287 -270 284 -135 121 -135 c 0
 71 -135 25 -152 15 -152 c 0
 2 -152 -16 -150 -16 -135 c 0
 -16 -122 1 -115 17 -111 c 0
 88 -91 169 -65 249 -26 c 0
 265 -19 296 -5 270 -2 c 0
EndSplineSet
Validated: 33
Substitution2: "Swash subtable" Q.sw
Substitution2: "Single Substitution lookup 78 subtable" Q.long
Substitution2: "Single Substitution lookup 77 subtable" Q.long
Substitution2: "c2sc subtable" Q.sc
Substitution2: "sups subtable" Q.sups
Substitution2: "sinf subtable" Q.sinf
Substitution2: "ordn subtable" Q.ordn
Substitution2: "subs subtable" Q.subs
EndChar

StartChar: S
Encoding: 83 83 45
Width: 464
VWidth: 0
Flags: MW
AnchorPoint: "cedilla" 265 8 basechar 0
AnchorPoint: "below_accent" 173 -100 basechar 0
AnchorPoint: "top_accent" 364 710 basechar 0
LayerCount: 2
Fore
SplineSet
214 16 m 16
 277 16 339 67 339 120 c 0
 339 178 297 231 233 303 c 0
 179 364 138 421 138 479 c 0
 138 584 215 659 340 659 c 0
 383 659 424 629 446 628 c 0
 466 627 469 638 485 638 c 0
 495 638 497 627 497 622 c 0
 497 619 475 594 459 491 c 0
 456 471 447 459 443 459 c 0
 433 459 432 478 432 493 c 0
 432 583 395 630 328 630 c 16
 257 630 213 577 213 513 c 16
 213 455 270 388 303 354 c 0
 347 308 421 234 421 154 c 0
 421 46 304 -14 194 -14 c 16
 127 -14 77 13 67 13 c 0
 57 13 37 0 23 0 c 0
 15 0 13 9 13 23 c 0
 13 35 45 97 56 176 c 0
 58 190 62 196 72 196 c 0
 83 196 84 184 84 157 c 8
 84 82 139 16 214 16 c 16
EndSplineSet
Validated: 33
Substitution2: "Swash subtable" S.sw
Substitution2: "c2sc subtable" S.sc
Substitution2: "sups subtable" S.sups
Substitution2: "sinf subtable" S.sinf
Substitution2: "ordn subtable" S.ordn
Substitution2: "subs subtable" S.subs
EndChar

StartChar: O
Encoding: 79 79 46
Width: 712
VWidth: 0
Flags: HMW
AnchorPoint: "POJ_TOP_RIGHT" 724 664 basechar 0
AnchorPoint: "cedilla" 341 8 basechar 0
AnchorPoint: "ogonek" 463 18 basechar 0
AnchorPoint: "below_accent" 304 -100 basechar 0
AnchorPoint: "top_accent" 501 710 basechar 0
LayerCount: 2
Fore
SplineSet
479 628 m 0
 279 628 171 386 171 186 c 8
 171 95 245 21 336 21 c 16
 536 21 642 284 642 484 c 0
 642 569 564 628 479 628 c 0
484 664 m 16
 611 664 724 571 724 444 c 8
 724 208 565 -14 329 -14 c 8
 197 -14 89 94 89 226 c 16
 89 456 254 664 484 664 c 16
EndSplineSet
Substitution2: "Swash subtable" O.sw
Substitution2: "c2sc subtable" O.sc
Substitution2: "sups subtable" O.sups
Substitution2: "sinf subtable" O.sinf
Substitution2: "ordn subtable" O.ordn
Substitution2: "subs subtable" O.subs
EndChar

StartChar: H
Encoding: 72 72 47
Width: 788
VWidth: 0
Flags: MW
AnchorPoint: "cedilla" 168 8 basechar 0
AnchorPoint: "below_accent" 356 -100 basechar 0
AnchorPoint: "top_accent" 578 710 basechar 0
LayerCount: 2
Fore
SplineSet
648 100 m 2
 633 51 632 33 676 24 c 0
 696 20 701 15 701 6 c 0
 701 -2 687 -5 671 -5 c 0
 621 -5 614 0 576 0 c 24
 537 0 525 -5 475 -5 c 0
 459 -5 451 -2 451 6 c 0
 451 15 464 20 487 24 c 0
 529 32 560 54 573 97 c 2
 631 287 l 2
 633 294 637 302 631 302 c 2
 276 302 l 2
 272 302 270 299 268 291 c 2
 211 106 l 2
 198 64 220 32 260 24 c 0
 280 20 285 15 285 6 c 0
 285 -2 271 -5 255 -5 c 0
 205 -5 189 0 147 0 c 24
 107 0 93 -5 43 -5 c 0
 27 -5 20 -2 20 6 c 0
 20 15 33 20 56 24 c 0
 105 33 120 51 135 99 c 2
 273 551 l 2
 287 597 289 613 245 622 c 0
 225 626 221 633 221 642 c 0
 221 650 235 653 251 653 c 0
 301 653 309 650 346 650 c 24
 384 650 395 653 445 653 c 0
 461 653 469 650 469 642 c 0
 469 633 455 626 432 622 c 0
 383 613 359 590 347 551 c 2
 289 359 l 2
 287 351 293 350 299 350 c 2
 644 350 l 2
 649 350 651 353 654 362 c 2
 712 552 l 2
 723 588 716 613 672 622 c 0
 652 626 648 633 648 642 c 0
 648 650 662 653 678 653 c 0
 728 653 743 650 785 650 c 24
 818 650 820 653 870 653 c 0
 886 653 894 650 894 642 c 0
 894 633 880 626 857 622 c 0
 808 613 799 590 787 552 c 2
 648 100 l 2
EndSplineSet
Validated: 33
Substitution2: "Swash subtable" H.sw
Substitution2: "c2sc subtable" H.sc
Substitution2: "sups subtable" H.sups
Substitution2: "sinf subtable" H.sinf
Substitution2: "ordn subtable" H.ordn
Substitution2: "subs subtable" H.subs
EndChar

StartChar: U
Encoding: 85 85 48
Width: 737
VWidth: 0
Flags: HMW
AnchorPoint: "POJ_TOP_RIGHT" 847 527 basechar 0
AnchorPoint: "cedilla" 397 8 basechar 0
AnchorPoint: "ogonek" 475 18 basechar 0
AnchorPoint: "below_accent" 355 -100 basechar 0
AnchorPoint: "top_accent" 544 710 basechar 0
LayerCount: 2
Fore
SplineSet
752 547 m 0
 710 432 684 346 653 254 c 0
 601 99 523 -14 344 -14 c 8
 225 -14 104 55 152 222 c 2
 246 547 l 2
 260 595 244 614 225 620 c 0
 205 626 193 633 193 642 c 0
 193 650 215 653 231 653 c 0
 259 653 285 650 320 650 c 24
 349 650 375 652 395 652 c 0
 411 652 418 649 418 641 c 0
 418 632 405 628 382 621 c 0
 366 616 333 589 321 549 c 2
 234 238 l 2
 193 90 272 26 370 26 c 16
 516 26 579 144 627 300 c 0
 640 344 666 434 688 511 c 0
 703 562 707 612 683 620 c 0
 671 624 658 631 658 640 c 0
 658 648 673 651 689 651 c 0
 717 651 731 650 758 650 c 24
 788 650 813 653 834 653 c 0
 850 653 858 650 858 642 c 0
 858 633 844 627 821 622 c 0
 786 615 766 587 752 547 c 0
EndSplineSet
Substitution2: "Swash subtable" U.sw
Substitution2: "Single Substitution lookup 46 subtable" U.LAT
Substitution2: "c2sc subtable" U.sc
Substitution2: "sups subtable" U.sups
Substitution2: "sinf subtable" U.sinf
Substitution2: "ordn subtable" U.ordn
Substitution2: "subs subtable" U.subs
Substitution2: "loclLAT subtable" U.LAT
EndChar

StartChar: Y
Encoding: 89 89 49
Width: 595
VWidth: 0
Flags: MW
AnchorPoint: "below_accent" 215 -100 basechar 0
AnchorPoint: "top_accent" 445 710 basechar 0
LayerCount: 2
Fore
SplineSet
222 108 m 2
 267 256 l 2
 275 283 272 302 266 330 c 2
 224 522 l 2
 206 603 186 616 150 620 c 0
 131 622 122 633 122 642 c 0
 122 650 141 653 157 653 c 0
 185 653 226 650 270 650 c 24
 299 650 325 652 345 652 c 0
 361 652 368 649 368 641 c 0
 368 632 355 623 331 621 c 0
 299 618 286 614 298 560 c 2
 334 395 l 2
 340 369 346 357 353 357 c 0
 360 357 372 370 395 395 c 0
 440 444 470 478 515 534 c 0
 559 589 557 614 512 620 c 0
 499 622 488 631 488 640 c 0
 488 648 502 651 518 651 c 0
 546 651 566 650 596 650 c 24
 634 650 673 653 694 653 c 0
 710 653 717 650 717 642 c 0
 717 633 704 627 681 622 c 0
 646 615 587 565 558 534 c 0
 508 482 429 392 392 352 c 0
 362 320 353 294 341 256 c 2
 296 108 l 2
 282 63 300 33 344 24 c 0
 364 20 369 15 369 6 c 0
 369 -2 355 -5 339 -5 c 0
 289 -5 273 0 231 0 c 24
 184 0 161 -5 111 -5 c 0
 95 -5 87 -2 87 6 c 0
 87 15 100 20 123 24 c 0
 172 33 207 60 222 108 c 2
EndSplineSet
Validated: 33
Substitution2: "Swash subtable" Y.sw
Substitution2: "c2sc subtable" Y.sc
Substitution2: "sups subtable" Y.sups
Substitution2: "sinf subtable" Y.sinf
Substitution2: "ordn subtable" Y.ordn
Substitution2: "subs subtable" Y.subs
EndChar

StartChar: one
Encoding: 49 49 50
Width: 338
VWidth: 0
Flags: MW
LayerCount: 2
Fore
SplineSet
122 68 m 2
 203 333 l 2
 217 380 184 380 160 384 c 0
 157 384 144 393 144 396 c 0
 144 403 161 406 166 406 c 0
 222 406 222 403 258 403 c 24
 294 403 296 406 350 406 c 0
 354 406 364 399 364 396 c 0
 364 390 350 385 343 384 c 0
 315 378 286 380 271 333 c 0
 242 244 203 115 190 68 c 0
 179 29 203 28 242 22 c 0
 248 21 263 14 263 10 c 0
 263 3 243 -3 234 -3 c 0
 181 -3 174 2 136 2 c 24
 95 2 82 -3 32 -3 c 0
 28 -3 14 2 14 7 c 0
 14 14 30 21 40 22 c 0
 66 24 109 27 122 68 c 2
EndSplineSet
Validated: 33
Substitution2: "'tnum' Tabular Numbers lookup 35 subtable" one.taboldstyle
Substitution2: "'lnum' Lining Figures lookup 33 subtable" one.lnum
Substitution2: "Single Substitution lookup 32 subtable" one.ordn
Substitution2: "Single Substitution lookup 31 subtable" one.subs
Substitution2: "sups subtable" one.sups
Substitution2: "sinf subtable" one.sinf
Substitution2: "ordn subtable" one.ordn
Substitution2: "subs subtable" one.subs
EndChar

StartChar: bracketleft
Encoding: 91 91 51
Width: 343
VWidth: 0
Flags: MW
LayerCount: 2
Fore
SplineSet
299 640 m 24
 306 663 309 702 339 702 c 0
 343 702 348 702 352 702 c 10
 505 701 l 26
 513 701 522 695 517 686 c 25
 510 675 500 675 489 674 c 16
 471 672 457 672 444 672 c 0
 424 672 406 673 381 673 c 0
 367 673 355 659 350 644 c 8
 299 495 274 411 228 262 c 8
 183 114 154 30 112 -118 c 0
 99 -164 104 -167 124 -167 c 8
 166 -167 189 -168 231 -172 c 0
 242 -173 253 -178 249 -190 c 24
 246 -201 231 -203 221 -203 c 26
 70 -200 l 18
 47 -200 42 -195 51 -170 c 10
 272 542 l 26
 284 580 286 602 299 640 c 24
EndSplineSet
Validated: 33
Substitution2: "sups subtable" bracketleft.sups
Substitution2: "sinf subtable" bracketleft.sinf
Substitution2: "ordn subtable" bracketleft.ordn
Substitution2: "subs subtable" bracketleft.subs
EndChar

StartChar: bracketright
Encoding: 93 93 52
Width: 341
VWidth: 0
Flags: MW
LayerCount: 2
Fore
SplineSet
434 702 m 0
 464 702 444 664 437 640 c 24
 425 602 415 580 403 542 c 26
 189 -170 l 18
 181 -195 175 -200 152 -200 c 10
 -1 -203 l 26
 -11 -203 -25 -201 -22 -190 c 24
 -18 -178 -3 -173 8 -172 c 0
 52 -168 75 -167 117 -167 c 16
 137 -167 144 -164 159 -118 c 0
 207 30 231 114 276 262 c 16
 322 411 347 495 388 644 c 16
 392 659 388 673 374 673 c 0
 349 673 330 672 310 672 c 0
 297 672 283 672 267 674 c 8
 257 675 245 675 246 686 c 24
 246 695 259 701 267 701 c 26
 421 702 l 18
 425 702 430 702 434 702 c 0
EndSplineSet
Validated: 33
Substitution2: "sups subtable" bracketright.sups
Substitution2: "sinf subtable" bracketright.sinf
Substitution2: "ordn subtable" bracketright.ordn
Substitution2: "subs subtable" bracketright.subs
EndChar

StartChar: x
Encoding: 120 120 53
Width: 438
Flags: MW
AnchorPoint: "below_accent" 222 -100 basechar 0
AnchorPoint: "top_accent" 307 550 basechar 0
LayerCount: 2
Fore
SplineSet
24 -14 m 0
 4 -14 -10 2 -10 28 c 0
 -10 51 9 85 26 85 c 0
 35 85 37 79 42 65 c 0
 46 53 60 46 63 46 c 0
 70 46 81 48 91 60 c 2
 91 60 150 120 196 188 c 0
 198 190 197 193 196 198 c 2
 162 327 l 2
 158 342 150 345 142 345 c 0
 132 345 118 342 91 308 c 0
 88 304 77 293 68 293 c 0
 63 293 61 300 61 310 c 0
 61 343 117 414 169 414 c 0
 192 414 204 393 209 374 c 2
 238 262 l 2
 241 252 247 255 254 264 c 2
 322 355 l 2
 343 383 376 414 412 414 c 0
 438 414 462 387 463 371 c 0
 464 359 448 316 422 316 c 0
 414 316 411 318 404 333 c 0
 397 351 391 356 382 356 c 0
 347 357 260 224 260 224 c 2
 253 216 254 206 259 189 c 2
 286 90 l 2
 295 55 312 49 319 49 c 0
 343 49 359 67 378 116 c 0
 382 126 389 130 394 130 c 0
 399 130 404 128 404 108 c 0
 404 58 352 -14 294 -14 c 0
 264 -14 244 13 233 53 c 0
 228 70 212 137 212 137 c 2
 208 153 204 153 196 143 c 0
 154 93 98 27 98 27 c 2
 70 -6 48 -14 24 -14 c 0
EndSplineSet
Validated: 33
Substitution2: "Smallcaps1 subtable" x.sc
Substitution2: "sups subtable" x.sups
Substitution2: "sinf subtable" x.sinf
Substitution2: "ordn subtable" x.ordn
Substitution2: "subs subtable" x.subs
EndChar

StartChar: comma
Encoding: 44 44 54
Width: 250
VWidth: 0
Flags: MW
LayerCount: 2
Fore
SplineSet
45 80 m 0
 45 103 73 120 108 120 c 0
 142 120 166 84 166 50 c 0
 166 -50 70 -129 9 -129 c 8
 -1 -129 -15 -128 -15 -121 c 0
 -15 -115 -5 -112 10 -104 c 0
 68 -73 106 -25 106 25 c 0
 106 64 45 47 45 80 c 0
EndSplineSet
Validated: 1
Substitution2: "sups subtable" comma.sups
Substitution2: "sinf subtable" comma.sinf
Substitution2: "ordn subtable" comma.ordn
Substitution2: "subs subtable" comma.subs
EndChar

StartChar: quotesinglbase
Encoding: 8218 8218 56
Width: 210
VWidth: 0
Flags: MW
LayerCount: 2
Fore
SplineSet
45 60 m 0
 42 61 30 70 30 80 c 0
 30 103 58 120 93 120 c 0
 127 120 151 84 151 50 c 0
 151 -50 55 -129 -6 -129 c 8
 -16 -129 -30 -128 -30 -121 c 0
 -30 -115 -20 -112 -5 -104 c 0
 53 -73 91 -25 91 25 c 0
 91 48 63 56 45 60 c 0
EndSplineSet
Validated: 1
EndChar

StartChar: quoteright
Encoding: 8217 8217 60
Width: 212
VWidth: 0
Flags: MW
LayerCount: 2
Fore
SplineSet
221 630 m 0
 218 631 206 640 206 650 c 0
 206 673 234 690 269 690 c 0
 303 690 327 654 327 620 c 0
 327 520 231 441 170 441 c 8
 160 441 146 442 146 449 c 0
 146 455 156 458 171 466 c 0
 229 497 267 545 267 595 c 0
 267 618 239 626 221 630 c 0
EndSplineSet
Validated: 1
Position2: "Single Positioning lookup 5 subtable" dx=0 dy=0 dh=65 dv=0
Position2: "Single Positioning lookup 3 subtable" dx=0 dy=0 dh=40 dv=0
EndChar

StartChar: K
Encoding: 75 75 61
Width: 685
VWidth: 0
Flags: MW
AnchorPoint: "below_accent" 318 -100 basechar 0
AnchorPoint: "top_accent" 524 710 basechar 0
LayerCount: 2
Fore
SplineSet
649 -5 m 0
 594 -5 547 0 496 0 c 0
 473 0 471 -1 429 -1 c 0
 413 -1 406 2 406 10 c 0
 406 19 417 23 436 27 c 0
 475 36 476 40 457 72 c 2
 317 306 l 26
 310 318 289 323 284 323 c 0
 279 323 276 310 274 302 c 2
 220 110 l 2
 204 53 217 33 261 24 c 0
 281 20 286 15 286 6 c 0
 286 -2 272 -5 256 -5 c 0
 206 -5 197 2 159 2 c 24
 113 2 90 -5 40 -5 c 0
 24 -5 16 -2 16 6 c 0
 16 15 29 20 52 24 c 0
 101 33 123 51 138 101 c 2
 276 551 l 2
 290 597 279 613 235 622 c 0
 215 626 210 633 210 642 c 0
 210 650 225 653 241 653 c 0
 291 653 304 651 344 651 c 24
 379 651 385 653 435 653 c 0
 451 653 459 650 459 642 c 0
 459 633 445 626 422 622 c 0
 373 613 366 604 350 551 c 2
 293 364 l 2
 291 359 287 345 292 345 c 0
 332 345 363 377 372 385 c 2
 587 567 l 2
 614 589 646 616 599 620 c 0
 578 622 576 631 576 640 c 0
 576 648 591 651 607 651 c 0
 640 651 648 651 657 651 c 0
 710 651 773 655 809 655 c 0
 821 655 826 651 826 644 c 0
 826 635 812 628 789 624 c 0
 740 615 683 597 628 558 c 0
 542 497 481 438 392 355 c 24
 387 350 387 344 391 337 c 2
 548 95 l 2
 568 64 602 27 654 24 c 0
 675 23 679 15 679 6 c 0
 679 -2 665 -5 649 -5 c 0
EndSplineSet
Validated: 33
Substitution2: "Swash subtable" K.sw
Substitution2: "c2sc subtable" K.sc
Substitution2: "sups subtable" K.sups
Substitution2: "sinf subtable" K.sinf
Substitution2: "ordn subtable" K.ordn
Substitution2: "subs subtable" K.subs
EndChar

StartChar: k
Encoding: 107 107 62
Width: 469
Flags: MW
AnchorPoint: "below_accent" 164 -100 basechar 0
AnchorPoint: "top_accent" 423 812 basechar 0
LayerCount: 2
Fore
SplineSet
400 346 m 0
 400 368 381 372 361 372 c 0
 305 372 202 248 202 220 c 0
 202 212 206 203 214 203 c 0
 297 203 400 296 400 346 c 0
106 16 m 0
 98 -6 96 -15 80 -15 c 0
 70 -15 55 3 55 15 c 0
 55 21 57 35 68 74 c 2
 209 557 l 2
 216 580 227 618 222 631 c 0
 218 643 169 649 169 658 c 0
 169 663 171 667 175 669 c 0
 205 684 272 706 288 706 c 0
 294 706 304 706 304 696 c 0
 304 685 304 682 301 673 c 2
 180 266 l 2
 176 251 184 255 189 262 c 0
 261 357 351 414 399 414 c 0
 438 414 469 404 469 371 c 0
 469 296 334 207 266 188 c 0
 259 186 258 184 261 177 c 2
 307 68 l 2
 313 54 325 39 340 39 c 0
 365 39 394 66 412 95 c 0
 419 107 423 110 428 110 c 0
 430 110 433 105 433 100 c 0
 433 35 349 -21 319 -21 c 0
 304 -21 275 -15 256 28 c 2
 218 134 l 2
 210 156 194 178 172 178 c 0
 163 178 149 150 145 136 c 0
 139 117 113 35 106 16 c 0
EndSplineSet
Substitution2: "alternate_h subtable" k.01
Substitution2: "Smallcaps1 subtable" k.sc
Substitution2: "sups subtable" k.sups
Substitution2: "sinf subtable" k.sinf
Substitution2: "ordn subtable" k.ordn
Substitution2: "subs subtable" k.subs
EndChar

StartChar: X
Encoding: 88 88 63
Width: 707
VWidth: 0
Flags: MW
AnchorPoint: "cedilla" 393 8 basechar 0
AnchorPoint: "below_accent" 283 -100 basechar 0
AnchorPoint: "top_accent" 535 710 basechar 0
LayerCount: 2
Fore
SplineSet
674 650 m 0
 710 650 757 656 782 656 c 0
 798 656 806 653 806 645 c 0
 806 636 792 631 769 625 c 0
 731 615 665 564 613 510 c 18
 478 370 l 2
 460 350 457 343 460 331 c 2
 517 111 l 10
 530 60 590 36 622 26 c 0
 642 20 647 15 647 6 c 0
 647 -2 633 -5 617 -5 c 0
 591 -5 503 1 459 1 c 0
 421 1 394 0 372 0 c 0
 356 0 348 3 348 11 c 0
 348 20 372 29 386 31 c 0
 433 37 450 41 430 111 c 2
 387 262 l 2
 383 276 377 276 368 267 c 2
 214 93 l 2
 187 62 200 39 232 30 c 0
 252 24 256 19 256 10 c 0
 256 2 242 -1 226 -1 c 0
 209 -1 173 1 140 1 c 0
 98 1 52 -5 21 -5 c 0
 5 -5 -3 -2 -3 6 c 0
 -3 15 11 25 35 28 c 0
 82 34 125 53 192 124 c 2
 344 284 l 2
 363 304 376 319 373 329 c 2
 314 529 l 2
 291 609 260 616 222 622 c 0
 203 625 190 634 190 643 c 0
 190 651 212 655 228 655 c 0
 259 655 322 650 368 650 c 0
 405 650 433 652 450 652 c 0
 466 652 474 649 474 641 c 0
 474 632 461 623 437 621 c 0
 386 617 380 601 402 528 c 2
 439 403 l 2
 442 393 446 388 450 388 c 0
 454 388 459 391 466 400 c 2
 586 538 l 2
 631 590 617 612 593 620 c 0
 581 624 569 631 569 640 c 0
 569 648 583 651 599 651 c 0
 621 651 646 650 674 650 c 0
EndSplineSet
Validated: 33
Substitution2: "Swash subtable" X.sw
Substitution2: "c2sc subtable" X.sc
Substitution2: "sups subtable" X.sups
Substitution2: "sinf subtable" X.sinf
Substitution2: "ordn subtable" X.ordn
Substitution2: "subs subtable" X.subs
EndChar

StartChar: Z
Encoding: 90 90 64
Width: 636
VWidth: 0
Flags: MW
AnchorPoint: "below_accent" 281 -100 basechar 0
AnchorPoint: "top_accent" 457 710 basechar 0
LayerCount: 2
Fore
SplineSet
189 -2 m 0
 152 -2 113 -3 78 -3 c 0
 55 -3 36 -3 6 -3 c 8
 0 -3 4 11 4 11 c 1
 7 21 55 73 86 104 c 0
 269 290 375 395 552 588 c 24
 557 593 565 603 543 604 c 0
 510 605 457 606 408 606 c 0
 372 606 314 606 290 604 c 0
 260 602 229 580 193 520 c 0
 186 508 175 493 166 493 c 0
 157 493 155 505 155 512 c 0
 155 526 192 594 209 636 c 0
 215 651 230 652 235 652 c 0
 251 652 286 648 319 647 c 16
 367 646 435 646 477 646 c 0
 554 646 624 647 693 649 c 0
 699 649 702 636 697 631 c 2
 616 550 l 1
 431 364 330 262 155 70 c 24
 147 62 143 42 153 41 c 0
 179 38 216 36 257 36 c 0
 299 36 409 38 454 41 c 0
 500 45 556 72 596 142 c 0
 601 150 615 171 624 171 c 0
 630 171 631 159 631 150 c 0
 631 139 573 36 555 12 c 0
 549 4 542 -5 533 -5 c 0
 427 -5 272 -2 189 -2 c 0
EndSplineSet
Validated: 1
Substitution2: "Swash subtable" Z.sw
Substitution2: "c2sc subtable" Z.sc
Substitution2: "sups subtable" Z.sups
Substitution2: "sinf subtable" Z.sinf
Substitution2: "ordn subtable" Z.ordn
Substitution2: "subs subtable" Z.subs
EndChar

StartChar: z
Encoding: 122 122 65
Width: 381
VWidth: 0
Flags: MW
AnchorPoint: "below_accent" 134 -100 basechar 0
AnchorPoint: "top_accent" 282 550 basechar 0
LayerCount: 2
Fore
SplineSet
422 428 m 0
 426 428 431 422 431 416 c 0
 431 406 418 384 399 366 c 2
 135 114 l 2
 127 106 125 96 130 96 c 0
 180 96 238 18 284 18 c 0
 329 18 337 69 337 98 c 0
 337 114 335 116 335 129 c 0
 335 141 335 143 348 143 c 0
 362 143 381 124 381 92 c 0
 381 31 290 -34 250 -34 c 0
 172 -34 131 52 97 52 c 0
 57 52 34 25 34 -6 c 0
 34 -19 24 -20 19 -20 c 0
 15 -20 6 -7 5 6 c 0
 4 20 10 41 29 59 c 2
 308 320 l 18
 316 328 304 335 285 342 c 0
 265 350 201 376 146 376 c 0
 122 376 97 352 98 332 c 0
 98 322 100 308 108 296 c 0
 113 288 113 284 108 278 c 0
 99 268 73 256 67 256 c 0
 60 256 46 268 46 290 c 0
 46 326 64 348 96 378 c 0
 119 400 169 424 191 424 c 0
 245 424 316 389 347 389 c 0
 367 389 377 396 392 410 c 0
 399 417 412 428 422 428 c 0
EndSplineSet
Substitution2: "Smallcaps1 subtable" z.sc
Substitution2: "sups subtable" z.sups
Substitution2: "sinf subtable" z.sinf
Substitution2: "ordn subtable" z.ordn
Substitution2: "subs subtable" z.subs
EndChar

StartChar: exclam
Encoding: 33 33 66
Width: 248
VWidth: 0
Flags: MW
LayerCount: 2
Fore
SplineSet
155 97 m 16
 179 97 195 75 195 51 c 16
 195 16 167 -14 132 -14 c 8
 108 -14 92 9 92 33 c 16
 92 68 120 97 155 97 c 16
260 573 m 0
 272 612 298 649 332 649 c 0
 364 649 368 612 357 575 c 0
 330 488 272 358 223 244 c 0
 213 222 203 205 194 205 c 0
 185 205 183 215 189 244 c 0
 213 358 241 510 260 573 c 0
EndSplineSet
Validated: 33
Substitution2: "sups subtable" exclam.sups
Substitution2: "sinf subtable" exclam.sinf
Substitution2: "ordn subtable" exclam.ordn
Substitution2: "subs subtable" exclam.subs
EndChar

StartChar: exclamdown
Encoding: 161 161 67
Width: 259
VWidth: 0
Flags: MW
LayerCount: 2
Fore
SplineSet
254 374 m 24
 223 374 206 401 216 434 c 24
 226 467 260 494 291 494 c 24
 322 494 338 467 328 434 c 24
 318 401 285 374 254 374 c 24
86 -180 m 0
 52 -180 48 -145 60 -106 c 0
 79 -43 131 87 176 205 c 0
 187 234 206 263 220 263 c 0
 229 263 229 233 224 211 c 0
 200 95 179 -21 152 -108 c 0
 141 -144 117 -180 86 -180 c 0
EndSplineSet
Validated: 33
EndChar

StartChar: quotedbl
Encoding: 34 34 68
Width: 285
VWidth: 0
Flags: MW
LayerCount: 2
Fore
SplineSet
202 467 m 0
 220 520 232 557 246 619 c 0
 249 633 263 648 274 655 c 0
 293 667 306 676 321 676 c 0
 335 676 325 645 316 624 c 0
 286 555 253 505 227 469 c 0
 219 457 206 444 201 444 c 0
 196 444 199 458 202 467 c 0
324 467 m 0
 342 520 353 557 367 619 c 0
 370 633 385 648 396 655 c 0
 415 667 428 676 443 676 c 0
 457 676 447 645 438 624 c 0
 408 555 375 505 349 469 c 0
 341 457 328 444 323 444 c 0
 318 444 321 458 324 467 c 0
EndSplineSet
Validated: 33
Substitution2: "sups subtable" quotedbl.sups
Substitution2: "sinf subtable" quotedbl.sinf
Substitution2: "ordn subtable" quotedbl.ordn
Substitution2: "subs subtable" quotedbl.subs
EndChar

StartChar: quotesingle
Encoding: 39 39 69
Width: 178
VWidth: 0
Flags: MW
LayerCount: 2
Fore
SplineSet
202 467 m 0
 220 520 232 557 246 619 c 0
 249 633 263 648 274 655 c 0
 293 667 306 676 321 676 c 0
 335 676 325 645 316 624 c 0
 286 555 253 505 227 469 c 0
 219 457 206 444 201 444 c 0
 196 444 199 458 202 467 c 0
EndSplineSet
Validated: 33
Substitution2: "sups subtable" quotesingle.sups
Substitution2: "sinf subtable" quotesingle.sinf
Substitution2: "ordn subtable" quotesingle.ordn
Substitution2: "subs subtable" quotesingle.subs
EndChar

StartChar: colon
Encoding: 58 58 70
Width: 258
VWidth: 0
Flags: MW
LayerCount: 2
Fore
SplineSet
176 383 m 16
 202 383 221 359 221 333 c 8
 221 297 192 268 156 268 c 8
 130 268 111 292 111 318 c 8
 111 354 140 383 176 383 c 16
95 101 m 16
 121 101 140 77 140 51 c 8
 140 15 111 -14 75 -14 c 8
 49 -14 30 10 30 36 c 8
 30 72 59 101 95 101 c 16
EndSplineSet
Validated: 1
Substitution2: "sups subtable" colon.sups
Substitution2: "sinf subtable" colon.sinf
Substitution2: "ordn subtable" colon.ordn
Substitution2: "subs subtable" colon.subs
EndChar

StartChar: semicolon
Encoding: 59 59 71
Width: 210
VWidth: 0
Flags: MW
LayerCount: 2
Fore
SplineSet
212 373 m 24
 240 373 256 348 247 318 c 24
 238 288 207 263 179 263 c 24
 151 263 135 288 144 318 c 24
 153 348 184 373 212 373 c 24
91 29 m 0
 65 32 53 49 60 71 c 0
 68 98 99 117 126 117 c 0
 171 117 190 76 173 20 c 0
 142 -81 38 -145 -10 -147 c 0
 -11 -147 -11 -147 -12 -147 c 0
 -32 -147 -29 -128 -9 -124 c 0
 34 -115 93 -85 114 -15 c 0
 119 1 111 27 91 29 c 0
EndSplineSet
Validated: 33
Substitution2: "sups subtable" semicolon.sups
Substitution2: "sinf subtable" semicolon.sinf
Substitution2: "ordn subtable" semicolon.ordn
Substitution2: "subs subtable" semicolon.subs
EndChar

StartChar: dotlessi
Encoding: 305 305 76
Width: 274
Flags: MW
AnchorPoint: "top_accent" 245 550 basechar 0
LayerCount: 2
Fore
SplineSet
61 76 m 2
 133 270 l 2
 141 293 146 318 133 318 c 0
 122 318 96 309 66 295 c 0
 62 293 51 296 51 300 c 0
 51 305 52 309 60 315 c 0
 126 362 162 384 223 418 c 0
 229 421 242 425 242 414 c 0
 242 400 238 387 232 370 c 2
 129 86 l 2
 125 75 122 65 122 57 c 0
 122 47 127 41 134 41 c 0
 166 41 236 108 246 118 c 0
 247 119 248 120 250 120 c 0
 253 120 256 118 256 115 c 0
 256 38 127 -14 92 -14 c 0
 60 -14 49 2 49 21 c 0
 49 44 52 53 61 76 c 2
EndSplineSet
Validated: 33
Substitution2: "Smallcaps1 subtable" dotlessi.sc
EndChar

StartChar: two
Encoding: 50 50 77
Width: 424
VWidth: 0
Flags: MW
LayerCount: 2
Fore
SplineSet
246 65 m 2
 281 65 306 76 330 117 c 0
 341 136 343 144 353 144 c 0
 363 144 364 138 364 132 c 0
 364 112 326 41 311 12 c 0
 303 -3 298 -4 294 -4 c 0
 235 -4 203 0 145 0 c 24
 93 0 30 -5 12 -5 c 0
 10 -5 -1 0 0 14 c 0
 1 22 24 41 73 74 c 0
 102 94 286 211 286 312 c 0
 286 344 259 358 232 358 c 0
 190 358 161 335 128 300 c 0
 124 295 118 290 113 290 c 0
 107 290 103 293 103 302 c 0
 103 330 168 413 269 413 c 0
 314 413 363 370 363 326 c 0
 363 262 314 230 272 191 c 0
 233 155 131 80 120 73 c 0
 113 69 120 65 126 65 c 2
 246 65 l 2
EndSplineSet
Validated: 1
Substitution2: "'tnum' Tabular Numbers lookup 35 subtable" two.taboldstyle
Substitution2: "'lnum' Lining Figures lookup 33 subtable" two.lnum
Substitution2: "Single Substitution lookup 32 subtable" two.ordn
Substitution2: "Single Substitution lookup 31 subtable" two.subs
Substitution2: "sups subtable" two.sups
Substitution2: "sinf subtable" two.sinf
Substitution2: "ordn subtable" two.ordn
Substitution2: "subs subtable" two.subs
EndChar

StartChar: five
Encoding: 53 53 78
Width: 346
VWidth: 0
Flags: MW
LayerCount: 2
Fore
SplineSet
180 24 m 0
 180 83 129 144 92 187 c 0
 77 205 75 228 75 241 c 0
 75 247 84 265 87 269 c 0
 103 294 130 336 143 356 c 0
 155 376 175 385 186 389 c 0
 238 409 303 416 322 416 c 0
 330 416 331 408 331 402 c 0
 331 386 302 336 277 335 c 0
 226 334 216 344 187 343 c 0
 179 343 168 339 157 326 c 0
 154 322 128 284 128 280 c 0
 128 274 133 265 139 257 c 0
 206 172 246 120 246 64 c 0
 246 -89 148 -194 12 -194 c 16
 -40 -194 -52 -176 -52 -169 c 0
 -52 -159 -40 -128 -29 -128 c 0
 -21 -128 -1 -155 50 -155 c 8
 136 -155 180 -91 180 24 c 0
EndSplineSet
Validated: 33
Substitution2: "'tnum' Tabular Numbers lookup 35 subtable" five.taboldstyle
Substitution2: "'lnum' Lining Figures lookup 33 subtable" five.lnum
Substitution2: "Single Substitution lookup 32 subtable" five.ordn
Substitution2: "Single Substitution lookup 31 subtable" five.subs
Substitution2: "sups subtable" five.sups
Substitution2: "sinf subtable" five.sinf
Substitution2: "ordn subtable" five.ordn
Substitution2: "subs subtable" five.subs
EndChar

StartChar: four
Encoding: 52 52 79
Width: 482
VWidth: 0
Flags: MW
LayerCount: 2
Fore
SplineSet
279 104 m 2
 284 104 291 108 292 112 c 2
 355 296 l 2
 356 299 349 299 346 297 c 24
 264 224 219 181 139 105 c 24
 136 102 132 96 136 96 c 2
 279 104 l 2
43 61 m 0
 157 170 314 315 388 376 c 0
 408 393 450 424 457 425 c 0
 458 425 l 0
 464 425 465 418 463 413 c 8
 417 299 397 232 358 116 c 24
 357 114 358 110 361 110 c 16
 366 110 419 112 454 114 c 0
 460 114 461 103 461 99 c 8
 461 78 436 57 429 57 c 0
 407 57 376 56 354 56 c 0
 349 56 340 47 340 46 c 2
 278 -150 l 2
 270 -175 224 -181 217 -181 c 0
 210 -181 204 -178 207 -168 c 2
 271 41 l 2
 273 47 260 50 259 50 c 0
 183 50 49 35 44 35 c 0
 41 35 33 39 33 45 c 0
 33 51 41 59 43 61 c 0
EndSplineSet
Validated: 1
Substitution2: "'tnum' Tabular Numbers lookup 35 subtable" four.taboldstyle
Substitution2: "'lnum' Lining Figures lookup 33 subtable" four.lnum
Substitution2: "Single Substitution lookup 32 subtable" four.ordn
Substitution2: "Single Substitution lookup 31 subtable" four.subs
Substitution2: "sups subtable" four.sups
Substitution2: "sinf subtable" four.sinf
Substitution2: "ordn subtable" four.ordn
Substitution2: "subs subtable" four.subs
EndChar

StartChar: seven
Encoding: 55 55 80
Width: 430
VWidth: 0
Flags: MW
LayerCount: 2
Fore
SplineSet
359 326 m 2
 362 331 367 335 353 336 c 0
 339 336 301 337 282 337 c 0
 245 337 184 336 160 336 c 0
 141 336 120 321 100 297 c 0
 95 290 78 272 70 272 c 0
 63 272 62 281 62 285 c 0
 62 303 118 383 125 395 c 0
 130 404 135 406 138 406 c 0
 141 406 173 403 196 402 c 0
 223 401 276 401 313 401 c 0
 396 401 409 407 424 407 c 0
 426 407 430 401 430 394 c 0
 430 384 403 342 390 323 c 2
 52 -166 l 10
 44 -178 25 -186 16 -186 c 0
 4 -186 0 -178 0 -173 c 0
 0 -168 14 -151 32 -126 c 2
 359 326 l 2
EndSplineSet
Validated: 1
Substitution2: "'tnum' Tabular Numbers lookup 35 subtable" seven.taboldstyle
Substitution2: "'lnum' Lining Figures lookup 33 subtable" seven.lnum
Substitution2: "Single Substitution lookup 32 subtable" seven.ordn
Substitution2: "Single Substitution lookup 31 subtable" seven.subs
Substitution2: "sups subtable" seven.sups
Substitution2: "sinf subtable" seven.sinf
Substitution2: "ordn subtable" seven.ordn
Substitution2: "subs subtable" seven.subs
EndChar

StartChar: six
Encoding: 54 54 81
Width: 389
VWidth: 0
Flags: MW
LayerCount: 2
Fore
SplineSet
259 363 m 0
 165 363 99 185 99 103 c 0
 99 66 109 15 147 15 c 0
 208 15 309 157 309 308 c 8
 309 337 293 363 259 363 c 0
31 113 m 0
 31 315 295 608 493 608 c 0
 497 608 501 602 501 600 c 0
 501 588 486 583 468 578 c 0
 393 557 297 471 262 422 c 0
 256 414 244 388 254 390 c 0
 264 392 271 393 281 393 c 0
 345 393 373 330 373 284 c 8
 373 131 263 -15 118 -15 c 8
 58 -15 31 32 31 113 c 0
EndSplineSet
Validated: 33
Substitution2: "'tnum' Tabular Numbers lookup 35 subtable" six.taboldstyle
Substitution2: "'lnum' Lining Figures lookup 33 subtable" six.lnum
Substitution2: "Single Substitution lookup 32 subtable" six.ordn
Substitution2: "Single Substitution lookup 31 subtable" six.subs
Substitution2: "sups subtable" six.sups
Substitution2: "sinf subtable" six.sinf
Substitution2: "ordn subtable" six.ordn
Substitution2: "subs subtable" six.subs
EndChar

StartChar: nine
Encoding: 57 57 82
Width: 367
VWidth: 0
Flags: MW
LayerCount: 2
Fore
SplineSet
177 72 m 0
 271 72 301 240 301 322 c 0
 301 352 291 386 261 386 c 0
 217 386 127 283 127 132 c 8
 127 102 143 72 177 72 c 0
366 286 m 0
 366 84 120 -209 -78 -209 c 0
 -82 -209 -88 -208 -88 -201 c 0
 -88 -189 -73 -184 -55 -179 c 0
 35 -154 166 -35 202 37 c 0
 206 46 197 52 187 50 c 0
 177 48 170 47 160 47 c 0
 96 47 60 110 60 156 c 8
 60 286 150 414 273 414 c 0
 323 414 366 351 366 286 c 0
EndSplineSet
Validated: 1
Substitution2: "'tnum' Tabular Numbers lookup 35 subtable" nine.taboldstyle
Substitution2: "'lnum' Lining Figures lookup 33 subtable" nine.lnum
Substitution2: "Single Substitution lookup 32 subtable" nine.ordn
Substitution2: "Single Substitution lookup 31 subtable" nine.subs
Substitution2: "sups subtable" nine.sups
Substitution2: "sinf subtable" nine.sinf
Substitution2: "ordn subtable" nine.ordn
Substitution2: "subs subtable" nine.subs
EndChar

StartChar: zero
Encoding: 48 48 83
Width: 440
VWidth: 0
Flags: MW
LayerCount: 2
Fore
SplineSet
298 384 m 16
 206 384 108 176 108 45 c 8
 108 28 121 15 138 15 c 16
 221 15 327 203 327 354 c 8
 327 370 314 384 298 384 c 16
308 414 m 8
 354 414 391 376 391 330 c 8
 391 160 268 -15 123 -15 c 8
 78 -15 45 24 45 69 c 16
 45 226 163 414 308 414 c 8
EndSplineSet
Validated: 1
Substitution2: "'tnum' Tabular Numbers lookup 35 subtable" zero.taboldstyle
Substitution2: "'lnum' Lining Figures lookup 33 subtable" zero.lnum
Substitution2: "Single Substitution lookup 32 subtable" zero.ordn
Substitution2: "Single Substitution lookup 31 subtable" zero.subs
Substitution2: "sups subtable" zero.sups
Substitution2: "sinf subtable" zero.sinf
Substitution2: "ordn subtable" zero.ordn
Substitution2: "subs subtable" zero.subs
EndChar

StartChar: three
Encoding: 51 51 84
Width: 344
VWidth: 0
Flags: MW
LayerCount: 2
Fore
SplineSet
234 413 m 0
 285 413 324 368 324 321 c 0
 324 264 283 216 190 167 c 0
 186 165 184 161 189 161 c 0
 254 159 279 96 279 59 c 0
 279 -54 160 -194 19 -194 c 16
 -33 -194 -38 -156 -38 -149 c 0
 -38 -139 -33 -128 -22 -128 c 0
 -14 -128 6 -155 57 -155 c 8
 147 -155 199 -63 199 27 c 16
 199 55 179 112 138 112 c 16
 124 112 99 105 74 92 c 0
 66 88 58 96 61 101 c 24
 71 118 87 128 100 135 c 0
 124 148 146 160 181 186 c 0
 201 200 254 246 254 305 c 0
 254 330 232 360 204 360 c 0
 162 360 134 348 105 308 c 0
 102 304 98 301 94 301 c 0
 90 301 85 310 85 314 c 0
 85 333 145 413 234 413 c 0
EndSplineSet
Validated: 1
Substitution2: "'tnum' Tabular Numbers lookup 35 subtable" three.taboldstyle
Substitution2: "'lnum' Lining Figures lookup 33 subtable" three.lnum
Substitution2: "Single Substitution lookup 32 subtable" three.ordn
Substitution2: "Single Substitution lookup 31 subtable" three.subs
Substitution2: "sups subtable" three.sups
Substitution2: "sinf subtable" three.sinf
Substitution2: "ordn subtable" three.ordn
Substitution2: "subs subtable" three.subs
EndChar

StartChar: eight
Encoding: 56 56 85
Width: 420
VWidth: 0
Flags: MW
LayerCount: 2
Fore
SplineSet
206 263 m 0
 116 195 100 147 100 102 c 8
 100 62 125 24 165 24 c 16
 203 24 260 35 260 110 c 0
 260 170 241 220 217 262 c 0
 215 266 210 266 206 263 c 0
266 335 m 0
 365 407 385 433 385 480 c 8
 385 520 371 555 316 555 c 0
 273 555 220 513 220 460 c 0
 220 421 238 378 256 338 c 0
 258 333 262 332 266 335 c 0
275 300 m 0
 304 246 330 194 330 148 c 0
 330 68 218 -13 130 -13 c 8
 77 -13 30 27 30 80 c 16
 30 145 66 195 189 285 c 0
 193 288 194 293 192 298 c 0
 176 335 160 371 160 420 c 0
 160 510 262 589 350 589 c 8
 401 589 445 551 445 500 c 16
 445 439 398 394 278 310 c 0
 274 307 273 304 275 300 c 0
EndSplineSet
Validated: 1
Substitution2: "'tnum' Tabular Numbers lookup 35 subtable" eight.taboldstyle
Substitution2: "'lnum' Lining Figures lookup 33 subtable" eight.lnum
Substitution2: "Single Substitution lookup 32 subtable" eight.ordn
Substitution2: "Single Substitution lookup 31 subtable" eight.subs
Substitution2: "sups subtable" eight.sups
Substitution2: "sinf subtable" eight.sinf
Substitution2: "ordn subtable" eight.ordn
Substitution2: "subs subtable" eight.subs
EndChar

StartChar: question
Encoding: 63 63 86
Width: 316
VWidth: 0
Flags: HMW
LayerCount: 2
Fore
SplineSet
133 97 m 16
 157 97 173 75 173 51 c 16
 173 16 145 -14 110 -14 c 8
 86 -14 70 9 70 33 c 16
 70 68 98 97 133 97 c 16
241 661 m 0
 321 661 368 588 368 496 c 0
 368 424 337 382 289 357 c 2
 201 312 l 1
 169 294 149 262 149 236 c 0
 149 218 169 202 169 192 c 0
 169 184 158 178 154 178 c 0
 144 178 110 213 110 255 c 0
 110 327 154 364 240 404 c 0
 289 427 333 460 333 512 c 0
 333 551 300 591 254 591 c 0
 216 591 214 577 199 577 c 0
 184 577 175 592 175 610 c 0
 175 640 218 661 241 661 c 0
EndSplineSet
Substitution2: "sups subtable" question.sups
Substitution2: "sinf subtable" question.sinf
Substitution2: "ordn subtable" question.ordn
Substitution2: "subs subtable" question.subs
EndChar

StartChar: grave
Encoding: 96 96 87
Width: 257
VWidth: 0
Flags: MW
LayerCount: 2
Fore
SplineSet
231 636 m 0
 235 650 256 664 272 664 c 0
 293 664 305 655 310 637 c 0
 319 603 348 477 343 462 c 0
 340 453 336 449 327 449 c 0
 319 449 312 464 309 471 c 0
 269 582 225 617 231 636 c 0
EndSplineSet
Validated: 33
Substitution2: "sups subtable" grave.sups
Substitution2: "sinf subtable" grave.sinf
Substitution2: "ordn subtable" grave.ordn
Substitution2: "subs subtable" grave.subs
EndChar

StartChar: asciicircum
Encoding: 94 94 89
Width: 500
Flags: MW
LayerCount: 2
Fore
SplineSet
250 603 m 1
 276 566 408 375 449 305 c 0
 455 295 451 284 443 284 c 0
 442 284 442 284 441 284 c 0
 429 287 410 295 404 302 c 0
 368 341 284 470 254 514 c 0
 249 520 248 520 244 514 c 0
 214 470 123 332 96 302 c 0
 89 295 71 287 59 284 c 0
 58 284 58 284 57 284 c 0
 49 284 45 295 51 305 c 0
 89 369 222 564 250 603 c 1
EndSplineSet
Validated: 1
Substitution2: "sups subtable" asciicircum.sups
Substitution2: "sinf subtable" asciicircum.sinf
Substitution2: "ordn subtable" asciicircum.ordn
Substitution2: "subs subtable" asciicircum.subs
EndChar

StartChar: circumflex
Encoding: 710 710 90
Width: 237
VWidth: 0
Flags: HMW
LayerCount: 2
Fore
SplineSet
192 465 m 6
 184 457 172 447 161 447 c 4
 154 447 151 456 160 468 c 6
 160 468 247 582 278 619 c 4
 293 637 306 648 313 648 c 4
 320 648 326 637 330 619 c 4
 340 576 357 468 357 468 c 6
 359 456 350 447 343 447 c 4
 332 447 325 458 322 465 c 6
 287 561 l 5
 192 465 l 6
EndSplineSet
Validated: 1
EndChar

StartChar: circumflexcomb
Encoding: 770 770 91
Width: 0
VWidth: 0
Flags: MW
AnchorPoint: "top_accent" 134 550 mark 0
LayerCount: 2
Fore
SplineSet
135 570 m 0
 105 539 65 500 42 478 c 0
 35 471 24 462 19 462 c 0
 14 462 10 465 10 471 c 0
 10 477 13 483 17 489 c 0
 34 513 90 587 114 615 c 0
 132 636 154 657 164 657 c 0
 173 657 176 649 182 627 c 0
 192 588 205 493 205 483 c 0
 205 475 202 462 197 462 c 0
 190 462 185 468 180 479 c 0
 172 499 156 539 144 570 c 0
 142 575 138 574 135 570 c 0
EndSplineSet
Validated: 1
Substitution2: "Smallcaps1 subtable" circumflexcomb.sc
Substitution2: "Single Substitution lookup 17 subtable" uni0302.stack
Substitution2: "Single Substitution lookup 15 subtable" uni0302.stack
Substitution2: "Single Substitution lookup 13 subtable" uni0302.flat
Substitution2: "'case' Case-Sensitive Forms lookup 8 subtable" circumflexcomb.cap
EndChar

StartChar: hyphen
Encoding: 45 45 94
Width: 274
VWidth: 0
Flags: MW
LayerCount: 2
Fore
SplineSet
62 170 m 2
 54 169 50 169 50 173 c 0
 50 195 74 229 83 230 c 2
 266 255 l 2
 272 256 274 254 274 247 c 0
 274 222 248 196 238 195 c 2
 62 170 l 2
EndSplineSet
Validated: 1
Substitution2: "sups subtable" hyphen.sups
Substitution2: "sinf subtable" hyphen.sinf
Substitution2: "ordn subtable" hyphen.ordn
Substitution2: "subs subtable" hyphen.subs
Substitution2: "'case' Case-Sensitive Forms lookup 8 subtable" hyphen.cap
EndChar

StartChar: numbersign
Encoding: 35 35 95
Width: 468
Flags: MW
LayerCount: 2
Fore
SplineSet
134 206 m 1
 90 27 l 2
 87 14 73 12 60 12 c 0
 53 12 48 20 50 27 c 2
 94 204 l 1
 31 201 l 2
 24 201 17 207 17 213 c 0
 17 222 20 260 41 261 c 2
 108 264 l 1
 142 402 l 1
 78 399 l 2
 71 399 64 405 64 411 c 0
 64 420 67 458 88 459 c 2
 157 462 l 1
 199 633 l 2
 202 647 218 650 232 650 c 0
 239 650 241 640 239 633 c 2
 198 464 l 1
 311 470 l 1
 354 644 l 2
 357 658 373 661 387 661 c 0
 394 661 396 651 394 644 c 2
 352 472 l 1
 411 475 l 2
 418 475 426 468 424 461 c 0
 418 440 415 416 393 415 c 2
 337 412 l 1
 303 274 l 1
 364 277 l 2
 371 277 379 270 377 263 c 0
 371 242 368 218 346 217 c 2
 288 214 l 1
 245 38 l 2
 242 25 228 23 215 23 c 0
 208 23 203 31 205 38 c 2
 248 212 l 1
 134 206 l 1
149 266 m 1
 263 272 l 1
 296 410 l 1
 183 404 l 1
 149 266 l 1
EndSplineSet
Validated: 1
Substitution2: "sups subtable" numbersign.sups
Substitution2: "sinf subtable" numbersign.sinf
Substitution2: "ordn subtable" numbersign.ordn
Substitution2: "subs subtable" numbersign.subs
EndChar

StartChar: slash
Encoding: 47 47 96
Width: 370
VWidth: 0
Flags: MW
LayerCount: 2
Fore
SplineSet
13 -47 m 26
 415 648 l 26
 424 663 439 665 456 665 c 24
 463 665 467 654 463 648 c 26
 61 -47 l 26
 53 -61 39 -62 23 -62 c 24
 16 -62 9 -53 13 -47 c 26
EndSplineSet
Validated: 1
Substitution2: "frac_slash subtable" fraction
Substitution2: "sups subtable" slash.sups
Substitution2: "sinf subtable" slash.sinf
Substitution2: "ordn subtable" slash.ordn
Substitution2: "subs subtable" slash.subs
EndChar

StartChar: backslash
Encoding: 92 92 97
Width: 300
VWidth: 0
Flags: MW
LayerCount: 2
Fore
SplineSet
267 -47 m 26
 269 -57 257 -62 247 -62 c 24
 234 -62 221 -59 218 -47 c 26
 65 648 l 26
 63 657 73 665 82 665 c 24
 96 665 110 661 113 648 c 26
 267 -47 l 26
EndSplineSet
Validated: 1
Substitution2: "sups subtable" backslash.sups
Substitution2: "sinf subtable" backslash.sinf
Substitution2: "ordn subtable" backslash.ordn
Substitution2: "subs subtable" backslash.subs
EndChar

StartChar: dollar
Encoding: 36 36 98
Width: 424
VWidth: 0
Flags: MW
LayerCount: 2
Fore
SplineSet
327 270 m 2
 225 26 l 2
 221 17 224 16 229 16 c 0
 300 21 343 54 372 148 c 0
 387 198 350 258 332 275 c 0
 330 277 329 275 327 270 c 2
383 367 m 0
 419 331 493 273 462 171 c 0
 438 91 353 -19 213 -19 c 0
 210 -19 204 -20 202 -25 c 2
 171 -101 l 10
 167 -112 153 -116 143 -116 c 24
 135 -116 130 -109 133 -101 c 18
 166 -22 l 2
 167 -19 166 -15 163 -15 c 0
 131 -9 113 2 93 8 c 0
 81 11 83 15 83 20 c 0
 80 43 88 122 97 158 c 0
 99 166 110 174 120 174 c 0
 128 174 123 62 179 26 c 0
 181 25 186 25 187 28 c 2
 300 297 l 2
 301 300 302 305 294 314 c 0
 245 362 204 417 228 497 c 0
 246 555 325 651 443 659 c 0
 449 660 453 662 454 665 c 2
 466 691 l 10
 472 704 486 708 498 708 c 24
 505 708 508 699 505 691 c 18
 493 665 l 2
 492 662 493 659 497 658 c 0
 533 655 553 647 566 644 c 8
 576 642 577 632 576 622 c 0
 571 588 567 550 556 515 c 0
 553 506 544 490 539 490 c 0
 534 490 522 500 523 515 c 0
 526 575 504 605 478 618 c 0
 476 619 473 615 472 613 c 2
 376 386 l 2
 370 371 375 376 383 367 c 0
432 627 m 0
 377 622 322 569 306 517 c 0
 293 476 313 440 339 411 c 0
 341 410 341 409 343 409 c 0
 345 409 347 411 348 413 c 2
 436 619 l 2
 438 624 437 627 432 627 c 0
EndSplineSet
Validated: 33
Substitution2: "sups subtable" dollar.sups
Substitution2: "sinf subtable" dollar.sinf
Substitution2: "ordn subtable" dollar.ordn
Substitution2: "subs subtable" dollar.subs
EndChar

StartChar: equal
Encoding: 61 61 99
Width: 590
Flags: MW
LayerCount: 2
Fore
SplineSet
74 193 m 2
 527 193 l 2
 534 193 543 186 540 179 c 0
 534 162 528 143 509 143 c 2
 64 143 l 2
 57 143 50 149 50 155 c 0
 50 164 56 193 74 193 c 2
74 364 m 2
 527 364 l 2
 534 364 543 357 540 350 c 0
 534 333 528 314 509 314 c 2
 64 314 l 2
 57 314 50 320 50 326 c 0
 50 335 56 364 74 364 c 2
EndSplineSet
Validated: 1
Substitution2: "sups subtable" equal.sups
Substitution2: "sinf subtable" equal.sinf
Substitution2: "ordn subtable" equal.ordn
Substitution2: "subs subtable" equal.subs
EndChar

StartChar: plus
Encoding: 43 43 100
Width: 590
Flags: MW
LayerCount: 2
Fore
SplineSet
330 278 m 2
 330 271 331 272 334 272 c 2
 537 272 l 2
 544 272 553 265 550 258 c 0
 544 241 538 222 519 222 c 2
 334 222 l 2
 331 222 330 221 330 218 c 2
 330 16 l 2
 330 -5 291 -8 282 -8 c 0
 276 -8 270 -1 270 6 c 2
 270 217 l 2
 270 220 269 222 266 222 c 2
 64 222 l 2
 57 222 50 228 50 234 c 0
 50 243 56 272 74 272 c 2
 263 272 l 2
 269 272 270 274 270 280 c 2
 270 451 l 2
 270 473 310 482 316 482 c 0
 323 482 330 476 330 469 c 2
 330 278 l 2
EndSplineSet
Validated: 1
Substitution2: "sups subtable" plus.sups
Substitution2: "sinf subtable" plus.sinf
Substitution2: "ordn subtable" plus.ordn
Substitution2: "subs subtable" plus.subs
EndChar

StartChar: less
Encoding: 60 60 101
Width: 590
Flags: MW
LayerCount: 2
Fore
SplineSet
133 229 m 2
 513 55 l 2
 532 46 537 16 537 7 c 0
 537 2 532 -6 526 -6 c 0
 525 -6 524 -5 523 -5 c 2
 94 195 l 2
 77 203 53 216 53 222 c 0
 53 231 66 259 86 268 c 2
 523 468 l 2
 524 468 525 469 526 469 c 0
 532 469 538 460 536 454 c 0
 530 433 525 417 505 408 c 2
 132 234 l 2
 129 233 130 230 133 229 c 2
EndSplineSet
Validated: 1
Substitution2: "sups subtable" less.sups
Substitution2: "sinf subtable" less.sinf
Substitution2: "ordn subtable" less.ordn
Substitution2: "subs subtable" less.subs
EndChar

StartChar: greater
Encoding: 62 62 102
Width: 590
Flags: MW
LayerCount: 2
Fore
SplineSet
457 234 m 2
 77 408 l 2
 58 417 53 447 53 456 c 0
 53 461 58 469 64 469 c 0
 65 469 66 468 67 468 c 2
 496 268 l 2
 513 260 537 247 537 241 c 0
 537 232 524 204 504 195 c 2
 67 -5 l 2
 66 -5 65 -6 64 -6 c 0
 58 -6 52 3 54 9 c 0
 60 30 65 46 85 55 c 2
 458 229 l 2
 461 230 460 233 457 234 c 2
EndSplineSet
Validated: 1
Substitution2: "sups subtable" greater.sups
Substitution2: "sinf subtable" greater.sinf
Substitution2: "ordn subtable" greater.ordn
Substitution2: "subs subtable" greater.subs
EndChar

StartChar: underscore
Encoding: 95 95 103
Width: 465
VWidth: 0
Flags: MW
LayerCount: 2
Fore
SplineSet
-18 -132 m 26
 413 -132 l 26
 420 -132 424 -139 420 -146 c 24
 409 -163 398 -182 381 -182 c 26
 -43 -182 l 26
 -50 -182 -54 -176 -52 -170 c 0
 -49 -161 -34 -132 -18 -132 c 26
EndSplineSet
Validated: 1
Substitution2: "sups subtable" underscore.sups
Substitution2: "sinf subtable" underscore.sinf
Substitution2: "ordn subtable" underscore.ordn
Substitution2: "subs subtable" underscore.subs
EndChar

StartChar: endash
Encoding: 8211 8211 104
Width: 509
VWidth: 0
Flags: MW
LayerCount: 2
Fore
SplineSet
141 239 m 26
 525 239 l 26
 532 239 537 232 533 225 c 24
 522 206 511 185 492 185 c 26
 115 185 l 26
 108 185 104 191 106 197 c 0
 109 206 123 239 141 239 c 26
EndSplineSet
Validated: 1
Substitution2: "'case' Case-Sensitive Forms lookup 8 subtable" endash.cap
EndChar

StartChar: emdash
Encoding: 8212 8212 105
Width: 881
VWidth: 0
Flags: MW
LayerCount: 2
Fore
SplineSet
141 239 m 26
 897 239 l 26
 904 239 909 232 905 225 c 24
 894 206 883 185 864 185 c 26
 115 185 l 26
 108 185 104 191 106 197 c 0
 109 206 123 239 141 239 c 26
EndSplineSet
Validated: 1
Substitution2: "'case' Case-Sensitive Forms lookup 8 subtable" emdash.cap
EndChar

StartChar: bar
Encoding: 124 124 106
Width: 260
Flags: MW
LayerCount: 2
Fore
SplineSet
100 676 m 2
 100 698 140 707 146 707 c 0
 153 707 160 701 160 694 c 2
 160 -265 l 2
 160 -286 121 -289 112 -289 c 0
 106 -289 100 -282 100 -275 c 2
 100 676 l 2
EndSplineSet
Validated: 1
Substitution2: "sups subtable" bar.sups
Substitution2: "sinf subtable" bar.sinf
Substitution2: "ordn subtable" bar.ordn
Substitution2: "subs subtable" bar.subs
EndChar

StartChar: brokenbar
Encoding: 166 166 107
Width: 260
Flags: MW
LayerCount: 2
Fore
SplineSet
112 276 m 0
 106 276 100 289 100 299 c 2
 100 674 l 2
 100 696 140 705 146 705 c 0
 153 705 160 699 160 692 c 2
 160 297 l 2
 160 287 121 276 112 276 c 0
146 179 m 0
 153 179 160 167 160 157 c 2
 160 -266 l 2
 160 -287 121 -290 112 -290 c 0
 106 -290 100 -283 100 -276 c 2
 100 156 l 2
 100 166 140 179 146 179 c 0
EndSplineSet
Validated: 1
Substitution2: "sups subtable" brokenbar.sups
Substitution2: "sinf subtable" brokenbar.sinf
Substitution2: "ordn subtable" brokenbar.ordn
Substitution2: "subs subtable" brokenbar.subs
EndChar

StartChar: parenleft
Encoding: 40 40 108
Width: 291
VWidth: 0
Flags: MW
LayerCount: 2
Fore
SplineSet
119 269 m 0
 171 439 324 623 412 694 c 0
 419 700 432 705 441 705 c 0
 448 705 452 703 455 698 c 8
 457 694 456 686 451 682 c 0
 363 611 230 451 178 281 c 0
 126 111 142 -115 186 -186 c 0
 188 -190 185 -198 179 -204 c 16
 173 -210 162 -214 154 -214 c 0
 148 -214 144 -212 141 -207 c 0
 97 -136 67 99 119 269 c 0
EndSplineSet
Validated: 33
Substitution2: "sups subtable" parenleft.sups
Substitution2: "sinf subtable" parenleft.sinf
Substitution2: "ordn subtable" parenleft.ordn
Substitution2: "subs subtable" parenleft.subs
EndChar

StartChar: parenright
Encoding: 41 41 109
Width: 292
VWidth: 0
Flags: MW
LayerCount: 2
Fore
SplineSet
333 281 m 0
 281 111 101 -136 13 -207 c 0
 8 -211 3 -213 -4 -213 c 0
 -21 -213 -36 -200 -19 -186 c 0
 69 -115 220 97 272 267 c 0
 324 437 294 611 250 682 c 0
 241 697 264 704 277 704 c 24
 286 704 292 701 296 694 c 0
 340 623 385 451 333 281 c 0
EndSplineSet
Validated: 33
Substitution2: "sups subtable" parenright.sups
Substitution2: "sinf subtable" parenright.sinf
Substitution2: "ordn subtable" parenright.ordn
Substitution2: "subs subtable" parenright.subs
EndChar

StartChar: asciitilde
Encoding: 126 126 110
Width: 500
Flags: MW
LayerCount: 2
Fore
SplineSet
50 279 m 0
 71 318 130 381 175 381 c 0
 221 381 271 333 337 333 c 0
 364 333 420 358 437 380 c 0
 438 381 439 382 440 382 c 0
 445 382 453 367 450 362 c 0
 436 335 374 260 325 260 c 0
 277 260 212 308 158 308 c 0
 135 308 81 279 65 261 c 0
 60 256 47 273 50 279 c 0
EndSplineSet
Validated: 1
Substitution2: "sups subtable" asciitilde.sups
Substitution2: "sinf subtable" asciitilde.sinf
Substitution2: "ordn subtable" asciitilde.ordn
Substitution2: "subs subtable" asciitilde.subs
EndChar

StartChar: tildecomb
Encoding: 771 771 111
Width: 0
VWidth: 0
Flags: MW
AnchorPoint: "top_stack" 193 644 basemark 0
AnchorPoint: "top_accent" 165 550 mark 0
LayerCount: 2
Fore
SplineSet
40 488 m 0
 30 488 26 498 26 508 c 0
 26 518 89 586 114 586 c 0
 139 586 196 578 221 578 c 0
 256 578 270 612 278 612 c 0
 288 612 294 605 294 595 c 0
 294 585 234 518 209 518 c 0
 184 518 122 525 97 525 c 0
 72 525 48 488 40 488 c 0
EndSplineSet
Validated: 1
Substitution2: "Single Substitution lookup 17 subtable" tildecomb.stack
Substitution2: "Single Substitution lookup 15 subtable" tildecomb.stack
Substitution2: "'case' Case-Sensitive Forms lookup 8 subtable" tildecomb.cap
EndChar

StartChar: periodcentered
Encoding: 183 183 113
Width: 184
VWidth: 0
Flags: MW
LayerCount: 2
Fore
SplineSet
172 260 m 24
 200 260 215 235 206 205 c 24
 197 175 166 150 138 150 c 24
 110 150 95 175 104 205 c 24
 113 235 144 260 172 260 c 24
EndSplineSet
Validated: 33
Substitution2: "Single Substitution lookup 4 subtable" periodcentered.CATuc
Substitution2: "Single Substitution lookup 3 subtable" periodcentered.CAT
EndChar

StartChar: guilsinglleft
Encoding: 8249 8249 119
Width: 427
VWidth: 0
Flags: MW
LayerCount: 2
Fore
SplineSet
250 200 m 0
 241 194 244 190 250 184 c 0
 284 148 340 89 367 42 c 0
 372 33 371 19 364 19 c 0
 353 19 337 33 333 37 c 0
 289 80 191 155 145 181 c 0
 139 184 134 188 134 196 c 0
 134 203 141 207 145 209 c 0
 237 256 367 324 439 371 c 0
 446 376 454 381 467 381 c 0
 473 381 470 366 460 357 c 0
 393 299 301 232 250 200 c 0
EndSplineSet
Validated: 1
EndChar

StartChar: uni00AD
Encoding: 173 173 120
Width: 253
VWidth: 0
Flags: MW
LayerCount: 2
Fore
SplineSet
88 170 m 0
 87 170 85 170 84 170 c 0
 79 170 79 172 80 176 c 8
 89 198 102 229 112 230 c 0
 174 239 236 248 298 255 c 0
 302 255 304 253 303 249 c 0
 293 224 282 197 267 195 c 0
 208 186 150 177 88 170 c 0
EndSplineSet
Validated: 1
EndChar

StartChar: brevecomb
Encoding: 774 774 121
Width: 0
VWidth: 0
Flags: MW
AnchorPoint: "top_accent" 169 550 mark 0
LayerCount: 2
Fore
SplineSet
117 601 m 0
 119 568 124 533 167 533 c 0
 217 533 243 560 255 594 c 0
 259 605 269 622 278 622 c 0
 284 622 287 617 287 610 c 0
 287 539 224 484 150 484 c 0
 118 484 78 513 78 554 c 0
 78 587 87 622 107 622 c 0
 114 622 116 610 117 601 c 0
EndSplineSet
Validated: 1
Substitution2: "Smallcaps1 subtable" brevecomb.sc
Substitution2: "Single Substitution lookup 17 subtable" uni0306.stack
Substitution2: "Single Substitution lookup 15 subtable" uni0306.stack
Substitution2: "'case' Case-Sensitive Forms lookup 8 subtable" brevecomb.cap
EndChar

StartChar: uni0307
Encoding: 775 775 122
Width: 0
VWidth: 0
Flags: MW
AnchorPoint: "top_accent" 51 550 mark 0
LayerCount: 2
Fore
SplineSet
66 613 m 16
 87 613 100 591 100 570 c 16
 100 540 75 513 45 513 c 8
 25 513 10 532 10 552 c 8
 10 584 34 613 66 613 c 16
EndSplineSet
Validated: 1
Substitution2: "Smallcaps1 subtable" uni0307.sc
Substitution2: "Single Substitution lookup 17 subtable" uni0307.stack
Substitution2: "Single Substitution lookup 15 subtable" uni0307.stack
Substitution2: "'case' Case-Sensitive Forms lookup 8 subtable" uni0307.cap
EndChar

StartChar: ringcomb
Encoding: 778 778 123
Width: 0
VWidth: 0
Flags: MW
AnchorPoint: "top_accent" 101 550 mark 0
LayerCount: 2
Fore
SplineSet
143 660 m 0
 176 660 199 637 199 605 c 0
 199 535 132 493 87 493 c 0
 54 493 33 518 33 551 c 0
 33 610 97 660 143 660 c 0
70 560 m 0
 70 538 82 521 102 521 c 0
 129 521 162 556 162 592 c 0
 162 614 147 632 126 632 c 0
 97 632 70 598 70 560 c 0
EndSplineSet
Validated: 1
Substitution2: "Smallcaps1 subtable" ringcomb.sc
Substitution2: "Single Substitution lookup 17 subtable" uni030A.stack
Substitution2: "Single Substitution lookup 15 subtable" uni030A.stack
Substitution2: "'case' Case-Sensitive Forms lookup 8 subtable" ringcomb.cap
EndChar

StartChar: uni0312
Encoding: 786 786 125
Width: 0
VWidth: 0
Flags: MW
AnchorPoint: "top_accent" 50 550 mark 0
LayerCount: 2
Fore
SplineSet
6 541 m 0
 6 628 110 686 167 686 c 0
 177 686 181 682 181 678 c 0
 181 673 175 667 164 665 c 0
 116 655 65 618 65 570 c 0
 65 562 71 559 83 559 c 0
 105 559 116 546 116 530 c 0
 116 504 91 481 60 481 c 0
 26 481 6 505 6 541 c 0
EndSplineSet
Validated: 1
Substitution2: "Smallcaps1 subtable" uni0312.sc
EndChar

StartChar: uni0313
Encoding: 787 787 126
Width: 0
VWidth: 0
Flags: HMW
AnchorPoint: "top_accent" 66 550 mark 0
AnchorPoint: "grk_uc_top_left" 82 665 mark 0
LayerCount: 2
Fore
SplineSet
181 626 m 0
 181 539 88 481 31 481 c 0
 21 481 17 489 17 493 c 0
 17 498 23.3085128283 502.731284341 34 506 c 0
 74.4516911772 518.36732311 116 544 116 577 c 0
 116 590.61 108.036317603 604.088069771 96 609 c 0
 79.86328125 615.584960938 67 627 67 643 c 0
 67 666 93 686 127 686 c 0
 161 686 181 662 181 626 c 0
EndSplineSet
Substitution2: "Smallcaps1 subtable" uni0313.sc
Substitution2: "Single Substitution lookup 21 subtable" uni0313.grkstack
Substitution2: "Single Substitution lookup 20 subtable" uni0313.grk
EndChar

StartChar: uni0314
Encoding: 788 788 127
Width: 0
VWidth: 0
Flags: HMW
AnchorPoint: "top_accent" 107 550 mark 0
AnchorPoint: "grk_uc_top_left" 84 665 mark 0
LayerCount: 2
Fore
SplineSet
11 514 m 0
 11 590 85 646 138 646 c 0
 161 646 171 632 171 618 c 0
 171 590 143 579 117 570 c 0
 88.0118686885 559.965646854 59 538.400390625 59 506.400390625 c 0
 59 482.400390625 79 456.399993896 98 450 c 0
 104.899222627 447.676053542 108 442 108 438 c 0
 108 432 100 426 86 426 c 0
 47 426 11 462 11 514 c 0
EndSplineSet
Substitution2: "Smallcaps1 subtable" uni0314.sc
Substitution2: "Single Substitution lookup 21 subtable" uni0314.grkstack
Substitution2: "Single Substitution lookup 20 subtable" uni0314.grk
EndChar

StartChar: uni0328
Encoding: 808 808 128
Width: 0
VWidth: 0
Flags: MW
AnchorPoint: "ogonek" 197 18 mark 0
LayerCount: 2
Fore
SplineSet
52 -286 m 0
 23 -287 0 -250 0 -216 c 0
 0 -110 97 -32 184 18 c 1
 211 18 l 17
 136 -34 71 -89 71 -186 c 0
 71 -204 79 -222 105 -222 c 0
 126 -222 157 -197 169 -183 c 0
 172 -179 193 -160 193 -181 c 0
 193 -184 186 -197 183 -201 c 0
 148 -248 107 -285 52 -286 c 0
EndSplineSet
Validated: 33
Substitution2: "'case' Case-Sensitive Forms lookup 8 subtable" uni0328.cap
EndChar

StartChar: uni0326
Encoding: 806 806 129
Width: 0
VWidth: 0
Flags: MW
AnchorPoint: "below_accent" 54 -100 mark 0
LayerCount: 2
Fore
SplineSet
126 -129 m 0
 126 -216 22 -274 -35 -274 c 0
 -45 -274 -49 -270 -49 -266 c 0
 -49 -261 -43 -255 -32 -253 c 0
 16 -243 67 -206 67 -158 c 0
 67 -150 61 -147 49 -147 c 0
 27 -147 16 -134 16 -118 c 0
 16 -92 41 -69 72 -69 c 0
 106 -69 126 -93 126 -129 c 0
EndSplineSet
Validated: 1
EndChar

StartChar: Aogonek
Encoding: 260 260 183
Width: 772
VWidth: 0
Flags: HMW
AnchorPoint: "cedilla" 124 8 basechar 0
AnchorPoint: "top_accent" 792 710 basechar 0
LayerCount: 2
Fore
SplineSet
453 -286 m 0
 424 -287 390 -250 390 -216 c 0
 390 -110 498 -32 585 18 c 1
 612 18 l 17
 537 -34 472 -92 472 -179 c 0
 472 -197 483 -222 509 -222 c 0
 530 -222 561 -197 573 -183 c 0
 576 -179 600 -160 600 -181 c 0
 600 -184 593 -197 590 -201 c 0
 555 -248 508 -285 453 -286 c 0
EndSplineSet
Refer: 31 65 N 1 0 0 1 0 0 3
Substitution2: "c2sc subtable" Aogonek.sc
MultipleSubs2: "CCMP_Precomp subtable" A uni0328.cap
EndChar

StartChar: Eogonek
Encoding: 280 280 201
Width: 621
VWidth: 0
Flags: MW
AnchorPoint: "top_accent" 501 710 basechar 0
LayerCount: 2
Fore
SplineSet
373 -286 m 0
 344 -287 310 -250 310 -216 c 0
 310 -110 418 -32 505 18 c 1
 532 18 l 17
 457 -34 392 -92 392 -179 c 0
 392 -197 403 -222 429 -222 c 0
 450 -222 481 -197 493 -183 c 0
 496 -179 520 -160 520 -181 c 0
 520 -184 513 -197 510 -201 c 0
 475 -248 428 -285 373 -286 c 0
EndSplineSet
Refer: 35 69 N 1 0 0 1 0 0 3
Substitution2: "c2sc subtable" Eogonek.sc
MultipleSubs2: "CCMP_Precomp subtable" E uni0328.cap
EndChar

StartChar: Iogonek
Encoding: 302 302 221
Width: 371
VWidth: 0
Flags: MW
AnchorPoint: "top_accent" 359 710 basechar 0
LayerCount: 2
Fore
SplineSet
28 -286 m 0
 -1 -287 -35 -250 -35 -216 c 0
 -35 -110 73 -32 160 18 c 1
 187 18 l 17
 112 -34 47 -92 47 -179 c 0
 47 -197 58 -222 84 -222 c 0
 105 -222 136 -197 148 -183 c 0
 151 -179 175 -160 175 -181 c 0
 175 -184 168 -197 165 -201 c 0
 130 -248 83 -285 28 -286 c 0
EndSplineSet
Refer: 33 73 N 1 0 0 1 0 0 3
Substitution2: "c2sc subtable" Iogonek.sc
MultipleSubs2: "CCMP_Precomp subtable" I uni0328.cap
EndChar

StartChar: Uogonek
Encoding: 370 370 275
Width: 737
VWidth: 0
Flags: MW
AnchorPoint: "top_accent" 544 710 basechar 0
LayerCount: 2
Fore
SplineSet
330 -286 m 0
 301 -287 267 -250 267 -216 c 0
 267 -110 375 -32 462 18 c 1
 489 18 l 17
 414 -34 349 -92 349 -179 c 0
 349 -197 360 -222 386 -222 c 0
 407 -222 438 -197 450 -183 c 0
 453 -179 477 -160 477 -181 c 0
 477 -184 470 -197 467 -201 c 0
 432 -248 385 -285 330 -286 c 0
EndSplineSet
Refer: 48 85 N 1 0 0 1 0 0 3
Substitution2: "c2sc subtable" Uogonek.sc
MultipleSubs2: "CCMP_Precomp subtable" U uni0328.cap
EndChar

StartChar: Ohorn
Encoding: 416 416 288
Width: 712
VWidth: 0
Flags: MW
AnchorPoint: "cedilla" 341 8 basechar 0
AnchorPoint: "ogonek" 463 18 basechar 0
AnchorPoint: "below_accent" 304 -100 basechar 0
AnchorPoint: "top_accent" 501 710 basechar 0
LayerCount: 2
Fore
SplineSet
479 628 m 0
 279 628 171 386 171 186 c 8
 171 95 245 21 336 21 c 16
 536 21 642 284 642 484 c 0
 642 569 564 628 479 628 c 0
697 546 m 0
 714 516 724 481 724 444 c 8
 724 208 565 -14 329 -14 c 8
 197 -14 89 94 89 226 c 16
 89 456 254 664 484 664 c 16
 543 664 602 641 633 616 c 0
 646 606 666 601 706 601 c 0
 733 601 745 611 745 629 c 0
 745 650 701 669 701 692 c 0
 701 718 740 733 768 733 c 0
 792 733 800 697 800 673 c 0
 800 617 758 567 704 560 c 0
 699 559 689 560 697 546 c 0
EndSplineSet
Validated: 1
Substitution2: "c2sc subtable" Ohorn.sc
EndChar

StartChar: ohorn
Encoding: 417 417 289
Width: 400
VWidth: 0
Flags: MW
AnchorPoint: "ogonek" 228 18 basechar 0
AnchorPoint: "below_accent" 137 -100 basechar 0
AnchorPoint: "top_accent" 322 550 basechar 0
LayerCount: 2
Fore
SplineSet
326 304 m 0
 326 354 317 384 283 384 c 0
 203 384 109 189 109 96 c 0
 109 46 118 16 152 16 c 0
 232 16 326 211 326 304 c 0
385 333 m 16
 388 322 390 309 390 296 c 0
 390 176 290 -14 140 -14 c 0
 100 -14 45 28 45 104 c 0
 45 224 145 414 295 414 c 0
 308 414 326 408 340 399 c 0
 351 392 371 383 411 383 c 0
 438 383 450 394 450 412 c 0
 450 433 413 437 413 460 c 0
 413 486 454 501 480 501 c 0
 501 501 505 473 505 451 c 0
 505 391 450 343 397 343 c 0
 391 343 383 339 385 333 c 16
EndSplineSet
Validated: 1
Substitution2: "Smallcaps1 subtable" ohorn.sc
EndChar

StartChar: Uhorn
Encoding: 431 431 290
Width: 737
VWidth: 0
Flags: MW
AnchorPoint: "cedilla" 397 8 basechar 0
AnchorPoint: "ogonek" 475 18 basechar 0
AnchorPoint: "below_accent" 355 -100 basechar 0
AnchorPoint: "top_accent" 544 710 basechar 0
LayerCount: 2
Fore
SplineSet
838 607 m 0
 797 606 766 587 752 547 c 0
 710 432 684 346 653 254 c 0
 601 99 523 -14 344 -14 c 8
 225 -14 104 55 152 222 c 2
 246 547 l 2
 260 595 244 614 225 620 c 0
 205 626 193 633 193 642 c 0
 193 650 215 653 231 653 c 0
 259 653 285 650 320 650 c 24
 349 650 375 652 395 652 c 0
 411 652 418 649 418 641 c 0
 418 632 405 628 382 621 c 0
 366 616 333 589 321 549 c 2
 234 238 l 2
 193 90 272 26 370 26 c 16
 516 26 579 144 627 300 c 0
 640 344 666 434 688 511 c 0
 703 562 707 612 683 620 c 0
 671 624 658 631 658 640 c 0
 658 648 673 651 689 651 c 0
 736 651 798 648 839 648 c 0
 867 648 879 654 879 672 c 0
 879 693 835 697 835 720 c 0
 835 746 874 761 902 761 c 0
 926 761 940 723 940 699 c 0
 940 643 873 608 838 607 c 0
EndSplineSet
Validated: 33
Substitution2: "c2sc subtable" Uhorn.sc
EndChar

StartChar: uhorn
Encoding: 432 432 291
Width: 498
VWidth: 0
Flags: MW
AnchorPoint: "ogonek" 384 18 basechar 0
AnchorPoint: "below_accent" 181 -100 basechar 0
AnchorPoint: "top_accent" 387 550 basechar 0
LayerCount: 2
Fore
SplineSet
478 350 m 2
 363 86 l 2
 352 60 354 47 366 47 c 0
 398 47 464 108 474 118 c 0
 475 119 476 119 477 119 c 0
 481 119 486 115 486 110 c 0
 486 105 483 99 481 96 c 0
 429 33 375 -14 312 -14 c 0
 292 -14 277 16 286 36 c 0
 314 96 350 175 360 203 c 0
 366 219 355 219 348 211 c 0
 209 59 134 -14 78 -14 c 0
 51 -14 55 30 66 55 c 26
 156 270 l 2
 165 292 184 339 174 339 c 0
 163 339 125 306 96 280 c 0
 93 277 83 279 83 283 c 0
 83 288 84 298 95 313 c 0
 145 380 221 418 250 418 c 0
 270 418 281 404 265 373 c 2
 144 104 l 2
 132 77 127 50 141 50 c 0
 155 50 181 72 243 136 c 0
 331 226 434 370 448 396 c 0
 457 413 465 414 470 414 c 0
 484 414 477 414 517 414 c 0
 544 414 556 425 556 443 c 0
 556 464 519 468 519 491 c 0
 519 517 560 532 586 532 c 0
 607 532 611 504 611 482 c 0
 611 422 556 374 503 374 c 0
 497 374 488 373 478 350 c 2
EndSplineSet
Validated: 33
Substitution2: "Smallcaps1 subtable" uhorn.sc
EndChar

StartChar: uni01EA
Encoding: 490 490 314
Width: 712
VWidth: 0
Flags: MW
AnchorPoint: "top_accent" 501 710 basechar 0
LayerCount: 2
Fore
SplineSet
318 -286 m 0
 289 -287 255 -250 255 -216 c 0
 255 -110 363 -32 450 18 c 1
 477 18 l 17
 402 -34 337 -92 337 -179 c 0
 337 -197 348 -222 374 -222 c 0
 395 -222 426 -197 438 -183 c 0
 441 -179 465 -160 465 -181 c 0
 465 -184 458 -197 455 -201 c 0
 420 -248 373 -285 318 -286 c 0
EndSplineSet
Refer: 46 79 N 1 0 0 1 0 0 3
MultipleSubs2: "CCMP_Precomp subtable" O uni0328.cap
EndChar

StartChar: dotlessj
Encoding: 567 567 345
Width: 255
Flags: MW
AnchorPoint: "top_accent" 241 550 basechar 0
LayerCount: 2
Fore
SplineSet
136 270 m 2
 143 293 149 318 136 318 c 0
 125 318 99 309 69 295 c 0
 65 293 54 296 54 300 c 0
 54 305 55 309 63 315 c 0
 129 362 165 384 226 418 c 0
 232 421 245 425 245 414 c 0
 245 400 240 387 235 370 c 2
 94 -102 l 2
 63 -205 -30 -283 -101 -283 c 0
 -148 -283 -175 -264 -175 -245 c 0
 -175 -232 -153 -201 -139 -201 c 0
 -115 -201 -107 -242 -62 -242 c 0
 -26 -242 -3 -202 14 -144 c 2
 136 270 l 2
EndSplineSet
Validated: 33
EndChar

StartChar: ordfeminine
Encoding: 170 170 574
Width: 236
VWidth: 0
Flags: MW
LayerCount: 2
Fore
SplineSet
102 196 m 26
 282 196 l 26
 288 196 294 189 289 182 c 24
 279 169 268 161 255 161 c 26
 83 161 l 26
 77 161 73 167 75 173 c 0
 78 182 91 196 102 196 c 26
175 342 m 0
 168 319 181 308 192 308 c 0
 207 308 221 319 232 327 c 0
 238 331 240 335 245 350 c 10
 255 379 l 18
 259 391 255 393 245 390 c 0
 198 376 179 356 175 342 c 0
273 268 m 0
 241 268 238 299 234 299 c 0
 226 299 201 268 155 268 c 0
 131 268 115 304 122 327 c 0
 130 352 140 368 172 380 c 10
 248 408 l 18
 264 414 266 416 271 432 c 2
 278 455 l 26
 284 475 278 491 257 491 c 0
 243 491 224 486 217 478 c 0
 213 472 208 460 207 453 c 0
 205 445 176 438 161 434 c 0
 157 433 156 437 161 444 c 0
 171 459 176 469 194 482 c 0
 217 499 265 524 295 524 c 0
 322 524 342 499 333 471 c 10
 292 347 l 26
 287 330 282 308 298 308 c 0
 308 308 314 310 319 316 c 0
 325 323 329 307 325 301 c 0
 323 298 294 268 273 268 c 0
EndSplineSet
Validated: 33
EndChar

StartChar: uni00B2
Encoding: 178 178 575
Width: 278
VWidth: 0
Flags: MW
LayerCount: 2
Fore
SplineSet
246 678 m 1
 238 668 230 672 233 683 c 0
 239 703 303 770 368 770 c 0
 415 770 440 728 424 677 c 16
 414 643 391 623 368 598 c 0
 337 565 255 506 246 498 c 0
 241 494 251 492 255 492 c 0
 262 492 267 492 272 492 c 0
 283 492 294 492 319 492 c 0
 347 492 380 512 403 542 c 0
 406 547 415 551 420 550 c 24
 424 550 422 544 420 541 c 0
 397 505 382 481 367 450 c 0
 362 439 357 437 354 437 c 0
 353 437 353 437 352 437 c 0
 305 440 305 440 274 440 c 24
 229 440 207 440 159 438 c 0
 154 437 155 447 164 454 c 2
 213 494 l 2
 233 510 344 588 364 651 c 0
 377 689 360 716 331 716 c 0
 298 716 281 708 246 678 c 1
EndSplineSet
Validated: 33
EndChar

StartChar: uni00B3
Encoding: 179 179 576
Width: 277
VWidth: 0
Flags: MW
LayerCount: 2
Fore
SplineSet
236 434 m 0
 209 434 176 439 185 467 c 0
 187 475 202 495 210 495 c 0
 216 495 219 492 220 490 c 0
 229 482 246 468 274 468 c 0
 286 468 330 472 348 530 c 8
 359 566 341 595 306 595 c 0
 297 595 280 591 269 588 c 0
 263 586 253 594 259 599 c 24
 278 614 298 615 313 624 c 0
 347 644 373 654 383 686 c 16
 390 707 367 723 350 723 c 0
 329 723 303 713 274 693 c 0
 270 690 266 686 263 687 c 24
 260 689 258 694 261 698 c 0
 285 729 330 770 379 770 c 1
 426 769 455 750 439 699 c 0
 431 674 402 650 363 632 c 0
 359 630 358 627 362 627 c 8
 396 625 417 598 406 561 c 16
 381 480 285 434 236 434 c 0
EndSplineSet
Validated: 33
EndChar

StartChar: uni00B9
Encoding: 185 185 577
Width: 276
VWidth: 0
Flags: MW
LayerCount: 2
Fore
SplineSet
397 782 m 0
 400 783 402 784 404 784 c 0
 410 784 411 778 408 770 c 0
 402 757 395 738 388 716 c 0
 374 671 356 616 348 589 c 0
 339 559 332 534 325 510 c 0
 315 471 318 470 357 464 c 0
 364 463 367 457 365 451 c 0
 363 445 357 439 350 439 c 0
 297 439 305 444 275 444 c 24
 245 444 247 439 197 439 c 0
 186 439 188 463 205 464 c 0
 230 466 256 469 269 510 c 2
 316 663 l 2
 324 690 294 704 280 710 c 0
 265 716 278 736 287 737 c 0
 336 742 384 776 397 782 c 0
EndSplineSet
Validated: 33
EndChar

StartChar: ordmasculine
Encoding: 186 186 578
Width: 270
VWidth: 0
Flags: MW
LayerCount: 2
Fore
SplineSet
102 196 m 26
 296 196 l 26
 302 196 308 189 303 182 c 24
 293 169 283 161 270 161 c 26
 83 161 l 26
 77 161 73 167 75 173 c 0
 78 182 91 196 102 196 c 26
280 491 m 0
 241 491 213 448 199 402 c 0
 182 347 193 299 231 299 c 0
 269 299 297 341 312 389 c 0
 328 441 319 491 280 491 c 0
299 524 m 0
 356 524 391 469 371 404 c 0
 350 334 289 268 211 268 c 0
 153 268 118 316 140 388 c 0
 163 462 235 524 299 524 c 0
EndSplineSet
Validated: 33
EndChar

StartChar: OE
Encoding: 338 338 581
Width: 712
VWidth: 0
Flags: MW
AnchorPoint: "below_accent" 465 -100 basechar 0
AnchorPoint: "top_accent" 692 710 basechar 0
LayerCount: 2
Fore
SplineSet
618 560 m 0
 589 603 535 628 479 628 c 0
 279 628 171 386 171 186 c 8
 171 95 245 21 336 21 c 0
 403 21 478 62 489 99 c 2
 622 536 l 2
 623 541 625 550 618 560 c 0
329 -14 m 0
 197 -14 89 94 89 226 c 16
 89 456 254 664 484 664 c 16
 602 664 555 650 696 650 c 2
 951 650 l 2
 976 650 1000 654 1005 654 c 0
 1012 654 1013 651 1013 644 c 0
 1013 632 994 593 986 540 c 0
 985 534 975 523 969 523 c 0
 962 523 958 539 958 546 c 0
 958 583 961 618 910 618 c 2
 766 618 l 2
 739 618 723 608 717 588 c 2
 648 374 l 2
 645 364 646 349 655 349 c 2
 800 352 l 2
 827 353 852 368 871 389 c 0
 880 399 894 408 899 408 c 0
 904 408 911 401 906 392 c 0
 880 342 873 320 860 269 c 0
 857 260 854 252 847 252 c 8
 836 252 832 268 832 275 c 0
 832 306 809 319 795 320 c 0
 772 322 688 322 670 322 c 0
 647 322 630 320 622 291 c 2
 571 113 l 2
 556 62 563 30 605 30 c 2
 770 30 l 2
 842 30 875 77 905 116 c 0
 911 124 913 126 921 126 c 0
 927 126 929 122 929 114 c 0
 929 96 905 39 887 11 c 0
 882 3 873 -5 864 -5 c 8
 720 -5 638 1 494 1 c 0
 443 1 391 -14 329 -14 c 0
EndSplineSet
Validated: 33
Substitution2: "c2sc subtable" OE.sc
EndChar

StartChar: oe
Encoding: 339 339 582
Width: 604
Flags: MW
AnchorPoint: "top_accent" 412 550 basechar 0
LayerCount: 2
Fore
SplineSet
508 385 m 0
 453 385 367 282 367 252 c 0
 367 246 369 246 374 246 c 0
 404 246 536 273 536 353 c 0
 536 371 528 385 508 385 c 0
306 304 m 0
 306 354 297 384 263 384 c 0
 183 384 89 189 89 96 c 0
 89 46 98 16 132 16 c 0
 212 16 306 211 306 304 c 0
365 334 m 1
 408 381 459 414 523 414 c 0
 577 414 597 392 597 351 c 0
 597 271 434 217 364 217 c 0
 356 217 353 215 349 207 c 0
 336 177 332 154 332 112 c 0
 332 62 352 35 386 35 c 0
 434 35 474 72 494 98 c 0
 500 106 507 109 512 109 c 0
 518 109 522 105 522 99 c 0
 522 97 522 94 520 91 c 0
 480 26 423 -15 353 -15 c 0
 321 -15 284 10 272 60 c 1
 231 16 180 -14 120 -14 c 0
 80 -14 25 28 25 104 c 0
 25 224 125 414 275 414 c 0
 308 414 351 386 365 334 c 1
EndSplineSet
Validated: 1
Substitution2: "Smallcaps1 subtable" oe.sc
Ligature2: "LATliga subtable" o e
LCarets2: 1 0
EndChar

StartChar: uni01C0
Encoding: 448 448 583
Width: 237
VWidth: 0
Flags: M
LayerCount: 2
Fore
SplineSet
298 676 m 10
 305 698 344 707 350 707 c 0
 357 707 361 701 359 694 c 18
 150 10 l 10
 144 -11 106 -14 98 -14 c 0
 92 -14 89 -7 91 0 c 18
 298 676 l 10
EndSplineSet
Validated: 1
EndChar

StartChar: uni01C1
Encoding: 449 449 584
Width: 249
VWidth: 0
Flags: MW
LayerCount: 2
Fore
SplineSet
243 676 m 10
 250 698 289 707 295 707 c 0
 302 707 306 701 304 694 c 18
 95 10 l 10
 89 -11 51 -14 43 -14 c 0
 37 -14 34 -7 36 0 c 18
 243 676 l 10
364 676 m 10
 371 698 410 707 416 707 c 0
 423 707 427 701 425 694 c 18
 216 10 l 10
 210 -11 172 -14 164 -14 c 0
 158 -14 155 -7 157 0 c 18
 364 676 l 10
EndSplineSet
Validated: 1
EndChar

StartChar: uni02B0
Encoding: 688 688 611
Width: 308
VWidth: 0
Flags: MW
LayerCount: 2
Fore
SplineSet
360 323 m 2
 355 307 367 300 378 297 c 1
 384 294 390 289 388 283 c 0
 386 277 374 273 371 273 c 2
 271 273 l 2
 268 273 258 277 260 283 c 0
 262 289 272 294 279 297 c 1
 292 300 305 307 310 323 c 2
 344 434 l 10
 353 464 335 488 309 488 c 0
 294 488 271 481 256 472 c 0
 241 462 235 454 227 429 c 2
 194 321 l 2
 189 305 198 300 209 297 c 1
 216 294 220 289 218 283 c 0
 216 277 205 273 201 273 c 2
 103 273 l 2
 100 273 90 277 92 283 c 0
 94 289 103 294 110 297 c 1
 123 300 139 305 144 321 c 2
 231 608 l 2
 237 629 237 647 218 652 c 8
 211 654 216 672 224 674 c 16
 257 681 281 690 303 698 c 0
 303 698 303 698 304 698 c 0
 307 698 312 696 313 694 c 1
 311 687 303 677 283 612 c 2
 253 515 l 2
 251 508 249 496 251 493 c 1
 274 507 310 524 348 524 c 0
 387 524 413 498 399 452 c 2
 360 323 l 2
EndSplineSet
Validated: 33
EndChar

StartChar: uni02B2
Encoding: 690 690 612
Width: 127
VWidth: 0
Flags: MW
LayerCount: 2
Fore
SplineSet
233 623 m 0
 239 641 261 658 278 658 c 0
 296 658 307 641 301 623 c 0
 296 606 274 589 256 589 c 0
 239 589 228 606 233 623 c 0
187 425 m 2
 193 446 190 464 172 469 c 8
 165 471 170 489 178 491 c 16
 211 498 239 518 264 530 c 0
 265 530 267 531 269 531 c 0
 273 531 277 530 276 528 c 0
 271 514 257 481 241 429 c 2
 207 319 l 2
 196 282 176 221 145 173 c 0
 118 133 68 97 42 92 c 0
 41 92 41 92 40 92 c 0
 34 92 24 96 25 100 c 0
 27 105 33 116 35 116 c 0
 50 120 68 130 86 154 c 0
 115 191 138 266 151 307 c 2
 187 425 l 2
EndSplineSet
Validated: 33
EndChar

StartChar: uni02B3
Encoding: 691 691 613
Width: 212
VWidth: 0
Flags: MW
LayerCount: 2
Fore
SplineSet
223 421 m 2
 192 322 l 2
 187 306 206 300 217 297 c 1
 223 294 229 289 227 283 c 0
 225 277 213 273 210 273 c 2
 104 273 l 2
 101 273 91 277 93 283 c 0
 95 289 104 294 111 297 c 1
 124 300 138 303 144 319 c 1
 178 431 l 2
 185 453 183 470 164 475 c 8
 157 477 162 495 170 497 c 16
 203 504 227 520 247 530 c 0
 247 530 248 530 249 530 c 0
 253 530 258 528 258 526 c 1
 257 522 252 506 245 487 c 0
 243 481 256 490 262 494 c 0
 287 511 306 521 331 521 c 0
 348 521 364 512 359 496 c 0
 355 484 334 458 322 458 c 0
 308 458 295 469 283 469 c 0
 263 469 235 461 223 421 c 2
EndSplineSet
Validated: 33
EndChar

StartChar: uni02B7
Encoding: 695 695 614
Width: 422
VWidth: 0
Flags: MW
LayerCount: 2
Fore
SplineSet
519 468 m 26
 376 271 l 2
 374 269 370 267 366 267 c 0
 362 267 359 269 359 271 c 2
 347 418 l 2
 347 424 345 426 339 417 c 2
 235 271 l 2
 233 269 229 267 226 267 c 0
 223 267 219 269 219 271 c 2
 199 478 l 2
 198 485 184 491 173 495 c 0
 167 497 161 503 163 509 c 0
 165 515 177 519 180 519 c 2
 276 519 l 2
 279 519 289 515 287 509 c 0
 285 503 275 497 268 495 c 0
 255 491 252 478 253 468 c 18
 263 364 l 2
 263 356 266 356 272 365 c 2
 329 448 l 2
 352 480 340 490 326 495 c 1
 320 496 314 503 316 509 c 0
 318 515 330 519 333 519 c 2
 428 519 l 2
 431 519 441 515 439 509 c 0
 437 503 428 497 421 495 c 0
 408 491 393 480 394 468 c 2
 402 374 l 2
 403 365 406 359 409 359 c 0
 412 359 416 363 422 372 c 2
 485 458 l 2
 505 485 496 491 485 495 c 0
 479 497 473 503 475 509 c 0
 477 515 489 519 492 519 c 2
 565 519 l 2
 568 519 578 515 576 509 c 0
 574 503 565 497 558 495 c 0
 545 491 530 483 519 468 c 26
EndSplineSet
Validated: 33
EndChar

StartChar: uni02B8
Encoding: 696 696 615
Width: 282
VWidth: 0
Flags: MW
LayerCount: 2
Fore
SplineSet
174 500 m 0
 167 502 163 509 165 515 c 0
 167 521 177 524 181 524 c 2
 274 524 l 2
 277 524 286 521 284 515 c 0
 282 509 273 502 266 500 c 0
 253 496 246 480 247 468 c 18
 256 366 l 2
 257 357 260 358 265 366 c 2
 330 458 l 10
 340 473 347 496 336 500 c 0
 330 502 325 509 327 515 c 0
 329 521 340 524 343 524 c 2
 418 524 l 2
 422 524 431 521 429 515 c 0
 427 509 418 502 410 500 c 0
 397 496 378 485 365 468 c 26
 224 273 l 2
 220 268 166 192 123 135 c 0
 110 118 94 110 76 110 c 8
 61 110 45 118 49 132 c 8
 52 143 61 155 72 156 c 1
 83 156 90 147 98 147 c 0
 101 147 104 149 108 153 c 0
 127 174 162 225 194 271 c 0
 199 279 209 301 208 310 c 2
 194 478 l 10
 192 491 185 496 174 500 c 0
EndSplineSet
Validated: 33
EndChar

StartChar: uni02E1
Encoding: 737 737 620
Width: 138
VWidth: 0
Flags: MW
LayerCount: 2
Fore
SplineSet
192 320 m 2
 187 304 200 302 211 298 c 0
 217 296 222 289 220 283 c 0
 218 277 206 273 203 273 c 2
 101 273 l 2
 98 273 88 277 90 283 c 0
 92 289 102 296 109 298 c 0
 122 302 136 304 141 320 c 2
 230 608 l 2
 233 617 233 648 215 652 c 8
 208 654 214 672 222 674 c 16
 255 681 277 691 299 698 c 0
 299 698 299 698 300 698 c 0
 304 698 311 696 310 694 c 0
 308 687 298 666 281 612 c 2
 192 320 l 2
EndSplineSet
Validated: 33
EndChar

StartChar: uni02E2
Encoding: 738 738 621
Width: 188
VWidth: 0
Flags: MW
LayerCount: 2
Fore
SplineSet
259 503 m 0
 235 503 222 485 218 472 c 0
 213 456 239 434 250 417 c 0
 260 402 290 376 280 343 c 0
 267 301 226 269 156 269 c 0
 144 269 109 282 108 290 c 0
 107 299 108 313 112 327 c 0
 114 333 138 335 137 328 c 0
 136 308 156 299 175 299 c 0
 203 299 216 319 219 329 c 0
 224 349 212 365 197 380 c 0
 176 401 151 426 163 464 c 0
 176 506 220 536 269 536 c 0
 270 536 270 536 271 536 c 0
 295 536 312 515 316 509 c 0
 321 500 318 487 313 470 c 0
 312 468 310 467 307 467 c 0
 299 467 285 474 286 479 c 0
 289 500 266 503 259 503 c 0
EndSplineSet
Validated: 33
EndChar

StartChar: uni02E3
Encoding: 739 739 622
Width: 247
VWidth: 0
Flags: MW
LayerCount: 2
Fore
SplineSet
196 482 m 2
 194 487 190 495 179 499 c 0
 173 501 168 507 170 514 c 0
 172 520 184 524 187 524 c 2
 235 524 l 2
 250 524 252 525 266 525 c 0
 269 525 278 519 276 513 c 0
 274 506 266 501 259 498 c 0
 254 496 253 484 254 479 c 2
 259 456 l 2
 263 440 265 442 273 450 c 2
 307 484 l 2
 309 486 315 498 312 499 c 0
 306 501 300 507 302 513 c 0
 304 519 316 524 319 524 c 2
 386 524 l 2
 389 524 399 519 397 513 c 0
 395 507 386 502 379 500 c 0
 366 496 346 495 330 480 c 18
 273 425 l 2
 271 423 272 413 273 411 c 2
 301 314 l 2
 304 306 309 297 320 293 c 0
 326 291 333 289 331 282 c 0
 329 276 317 273 314 273 c 2
 221 273 l 2
 218 273 208 276 210 282 c 0
 216 301 253 292 246 317 c 2
 230 372 l 2
 229 375 222 367 220 365 c 2
 167 309 l 2
 163 305 160 299 171 295 c 0
 177 293 183 288 181 282 c 0
 179 276 167 273 164 273 c 2
 100 273 l 2
 89 273 86 275 88 281 c 0
 90 288 99 292 106 293 c 0
 120 295 144 316 151 323 c 2
 215 387 l 2
 222 394 222 402 221 407 c 2
 196 482 l 2
EndSplineSet
Validated: 33
EndChar

StartChar: acutecomb
Encoding: 769 769 623
Width: 0
VWidth: 0
Flags: HMW
AnchorPoint: "top_accent" 40 550 mark 0
LayerCount: 2
Fore
SplineSet
27.2890625 485.670898438 m 0
 19.1806640625 479.9921875 9.912109375 473.502929688 2.0341796875 474.892578125 c 0
 -2.8896484375 475.760742188 -5.1494140625 480.220703125 -4.455078125 484.16015625 c 0
 -3.7607421875 488.099609375 -3.06640625 492.038085938 -0.4013671875 495.630859375 c 0
 17.0888671875 519.962890625 76.3388671875 596.841796875 98.4638671875 624.418945312 c 0
 107.615234375 636.005859375 117.577148438 646.434570312 127.42578125 644.698242188 c 0
 137.2734375 642.961914062 162.012695312 616.259765625 159.408203125 601.48828125 c 0
 158.540039062 596.563476562 57.9296875 509.71484375 27.2890625 485.670898438 c 0
EndSplineSet
Substitution2: "Smallcaps1 subtable" acutecomb.sc
Substitution2: "Single Substitution lookup 24 subtable" acutecomb.grkstack
Substitution2: "Single Substitution lookup 22 subtable" acutecomb.grk
Substitution2: "Single Substitution lookup 17 subtable" acutecomb.stack
Substitution2: "Single Substitution lookup 15 subtable" acutecomb.flat
Substitution2: "Single Substitution lookup 13 subtable" acutecomb.flat
Substitution2: "'case' Case-Sensitive Forms lookup 8 subtable" acutecomb.cap
EndChar

StartChar: uni0308
Encoding: 776 776 624
Width: 0
VWidth: 0
Flags: HMW
AnchorPoint: "top_stack" 112 474 mark 0
AnchorPoint: "acutestack" 122 579 basemark 0
AnchorPoint: "top_stack" 136 636 basemark 0
AnchorPoint: "gravestack" 141 579 basemark 0
AnchorPoint: "top_accent" 127 550 mark 0
LayerCount: 2
Fore
SplineSet
212 594 m 16
 233 594 246 572 246 551 c 16
 246 521 221 494 191 494 c 8
 171 494 156 513 156 533 c 8
 156 565 180 594 212 594 c 16
61 594 m 16
 82 594 95 572 95 551 c 16
 95 521 70 494 40 494 c 8
 20 494 5 513 5 533 c 8
 5 565 29 594 61 594 c 16
EndSplineSet
Substitution2: "Smallcaps1 subtable" uni0308.sc
Substitution2: "Single Substitution lookup 19 subtable" uni0308.grkstack
Substitution2: "'case' Case-Sensitive Forms lookup 8 subtable" uni0308.cap
EndChar

StartChar: uni030E
Encoding: 782 782 625
Width: 0
Flags: MW
AnchorPoint: "top_accent" 90 550 mark 0
LayerCount: 2
Fore
SplineSet
110 657 m 2
 110 665 128 675 137 675 c 0
 145 675 150 667 150 659 c 2
 150 520 l 2
 150 513 136 500 123 500 c 0
 115 500 110 510 110 519 c 2
 110 657 l 2
30 657 m 2
 30 665 48 675 57 675 c 0
 65 675 70 667 70 659 c 2
 70 520 l 2
 70 513 56 500 43 500 c 0
 35 500 30 510 30 519 c 2
 30 657 l 2
EndSplineSet
Validated: 1
EndChar

StartChar: uni0327
Encoding: 807 807 626
Width: 0
VWidth: 0
Flags: MW
AnchorPoint: "cedilla" 183 8 mark 0
LayerCount: 2
Fore
SplineSet
71 -100 m 0
 71 -67 127 -5 185 25 c 9
 215 25 l 17
 153 -24 130 -62 130 -80 c 0
 130 -101 182 -146 182 -179 c 0
 182 -226 117 -273 78 -273 c 0
 29 -273 14 -219 14 -210 c 0
 14 -202 15 -190 26 -190 c 0
 33 -190 38 -194 42 -199 c 0
 59 -219 82 -235 99 -235 c 0
 114 -235 123 -222 123 -207 c 0
 123 -175 71 -150 71 -100 c 0
EndSplineSet
Substitution2: "'case' Case-Sensitive Forms lookup 8 subtable" uni0327.cap
EndChar

StartChar: Upsilon
Encoding: 933 933 643
Width: 686
VWidth: 0
Flags: MW
AnchorPoint: "grk_uc_top" 558 710 basechar 0
AnchorPoint: "grk_uc_top_left" 73 665 basechar 0
LayerCount: 2
Fore
SplineSet
749 650 m 0
 806 650 829 616 846 589 c 0
 848 585 853 577 852 573 c 0
 851 569 844 565 842 567 c 0
 820 589 784 600 746 600 c 0
 663 600 587 537 533 453 c 0
 504 408 476 326 464 288 c 2
 409 108 l 2
 395 63 413 33 457 24 c 0
 477 20 485 15 482 6 c 0
 480 -2 468 -5 452 -5 c 0
 402 -5 387 0 345 0 c 24
 299 0 274 -5 224 -5 c 0
 208 -5 198 -2 200 6 c 0
 203 15 214 20 237 24 c 0
 286 33 320 60 335 108 c 2
 390 287 l 2
 402 327 419 392 417 452 c 0
 415 528 398 600 323 600 c 0
 277 600 226 573 195 549 c 0
 191 546 185 549 187 553 c 17
 187 553 188 560 205 575 c 0
 222 591 297 650 356 650 c 0
 496 650 473 452 477 452 c 0
 481 452 609 650 749 650 c 0
EndSplineSet
Validated: 33
EndChar

StartChar: omicron
Encoding: 959 959 647
Width: 348
VWidth: 2048
Flags: MW
LayerCount: 2
Fore
SplineSet
313 245 m 0
 313 127 236 -14 138 -14 c 0
 73 -14 35 59 35 140 c 0
 35 278 148 414 234 414 c 0
 300 414 313 325 313 245 c 0
275 256 m 0
 275 293 263 327 233 327 c 0
 146 327 73 185 73 129 c 0
 73 85 96 64 128 64 c 0
 193 64 275 193 275 256 c 0
EndSplineSet
Validated: 1
EndChar

StartChar: rho
Encoding: 961 961 648
Width: 382
VWidth: 2048
Flags: HMW
LayerCount: 2
Fore
SplineSet
362 314 m 0
 362 194 275 100 164 100 c 0
 135 100 119 115 104 127 c 0
 93 136 74 100 74 26 c 0
 74 -16 98 -54 140 -54 c 0
 175 -54 205 -47 242 -47 c 0
 278 -47 297 -74 297 -117 c 0
 297 -196 188 -288 100 -288 c 0
 88 -288 82 -283 82 -269 c 0
 82 -257 99 -221 113 -221 c 0
 158 -221 233 -211 233 -146 c 0
 233 -124 223 -107 205 -107 c 0
 181 -107 153 -114 123 -114 c 0
 74 -114 30 -59 30 0 c 0
 30 213 175 414 275 414 c 0
 338 414 362 368 362 314 c 0
314 306 m 0
 314 334 299 350 282 350 c 0
 219 350 117 242 117 187 c 0
 117 171 130 164 150 164 c 0
 258 164 314 212 314 306 c 0
EndSplineSet
Validated: 33
EndChar

StartChar: chi
Encoding: 967 967 649
Width: 636
VWidth: 2048
Flags: MW
LayerCount: 2
Fore
SplineSet
205 342 m 0
 163 342 145 313 134 270 c 0
 131 259 132 249 119 249 c 0
 103 249 72 281 72 330 c 0
 72 363 121 411 177 411 c 0
 287 412 321 334 321 190 c 0
 321 159 326 163 347 183 c 2
 575 405 l 2
 585 414 593 421 602 421 c 0
 617 421 625 411 625 393 c 0
 625 382 622 370 611 361 c 2
 362 144 l 2
 326 112 321 86 321 69 c 0
 321 32 319 -22 325 -51 c 0
 339 -118 383 -157 431 -157 c 0
 489 -157 560 -79 560 -19 c 0
 560 4 566 21 577 21 c 0
 596 21 610 -21 610 -74 c 0
 610 -145 523 -206 447 -206 c 0
 356 -206 307 -162 292 -81 c 0
 286 -46 286 8 287 51 c 0
 287 65 284 58 276 50 c 2
 111 -114 l 2
 104 -121 56 -199 28 -199 c 0
 13 -199 0 -194 0 -179 c 0
 0 -172 7 -157 17 -146 c 2
 258 102 l 1
 276 119 286 138 286 160 c 0
 286 259 271 342 205 342 c 0
EndSplineSet
Validated: 33
EndChar

StartChar: uni041A
Encoding: 1050 1050 660
Width: 661
VWidth: 0
Flags: MW
AnchorPoint: "below_accent" 355 -100 basechar 0
AnchorPoint: "top_accent" 544 700 basechar 0
LayerCount: 2
Fore
SplineSet
211 98 m 2
 197 51 218 33 262 24 c 0
 282 20 287 15 287 6 c 0
 287 -2 273 -5 257 -5 c 0
 207 -5 191 0 149 0 c 24
 102 0 79 -5 29 -5 c 0
 13 -5 5 -2 5 6 c 0
 5 15 18 20 41 24 c 0
 90 33 123 51 137 98 c 2
 275 550 l 2
 289 597 278 613 234 622 c 0
 214 626 210 633 210 642 c 0
 210 650 224 653 240 653 c 0
 290 653 306 650 348 650 c 24
 388 650 400 653 450 653 c 0
 466 653 474 650 474 642 c 0
 474 633 460 626 437 622 c 0
 388 613 363 597 349 550 c 10
 296 376 l 18
 292 362 291 358 296 358 c 0
 342 358 362 362 370 365 c 8
 474 409 520 476 574 570 c 0
 605 623 649 670 711 670 c 0
 737 670 758 647 758 616 c 0
 758 591 737 573 713 573 c 0
 695 573 672 588 649 588 c 0
 632 588 618 569 595 528 c 8
 550 448 509 408 432 360 c 16
 423 354 422 353 429 351 c 0
 449 345 461 320 469 300 c 0
 486 256 523 121 548 67 c 0
 562 36 591 25 647 25 c 0
 651 25 661 21 661 14 c 0
 661 -3 613 -18 557 -18 c 0
 501 -18 474 31 456 83 c 0
 437 139 421 202 407 246 c 0
 401 264 380 310 344 318 c 0
 317 324 304 324 288 324 c 0
 279 324 278 315 275 305 c 2
 211 98 l 2
EndSplineSet
Validated: 33
EndChar

StartChar: uni1D43
Encoding: 7491 7491 713
Width: 250
VWidth: 0
Flags: MW
LayerCount: 2
Fore
SplineSet
178 342 m 0
 171 319 186 308 198 308 c 0
 214 308 229 319 241 327 c 0
 247 331 249 335 254 350 c 10
 264 379 l 18
 268 391 265 393 254 390 c 0
 203 376 182 356 178 342 c 0
285 268 m 0
 251 268 248 299 243 299 c 0
 235 299 209 268 160 268 c 0
 135 268 116 304 123 327 c 0
 131 352 141 368 174 380 c 10
 256 408 l 18
 274 414 275 416 280 432 c 2
 287 455 l 26
 293 475 286 491 264 491 c 0
 249 491 227 486 220 478 c 0
 215 472 212 460 211 453 c 0
 209 445 178 438 163 434 c 0
 159 433 157 437 162 444 c 0
 172 459 178 469 197 482 c 0
 221 499 271 524 303 524 c 0
 332 524 353 499 344 471 c 10
 304 347 l 26
 299 330 293 308 311 308 c 0
 322 308 327 310 333 316 c 0
 340 323 345 307 341 301 c 0
 339 298 307 268 285 268 c 0
EndSplineSet
Validated: 33
EndChar

StartChar: uni1D47
Encoding: 7495 7495 714
Width: 296
VWidth: 0
Flags: MW
LayerCount: 2
Fore
SplineSet
169 290 m 0
 163 290 153 285 149 283 c 0
 143 280 130 284 132 289 c 0
 139 306 148 331 153 346 c 2
 233 607 l 2
 236 616 236 647 218 651 c 8
 211 653 216 671 224 673 c 16
 257 680 289 690 311 697 c 0
 313 697 l 0
 315 697 316 695 315 693 c 0
 314 690 304 664 294 630 c 2
 259 516 l 2
 255 503 254 496 260 496 c 1
 283 510 315 518 335 518 c 0
 398 518 431 470 411 405 c 0
 390 335 310 274 244 274 c 0
 206 274 177 290 169 290 c 0
351 393 m 0
 365 440 364 489 305 489 c 0
 288 489 270 480 257 469 c 1
 245 460 236 443 230 423 c 2
 211 361 l 2
 202 330 227 300 260 299 c 0
 261 299 261 299 262 299 c 0
 290 299 329 321 351 393 c 0
EndSplineSet
Validated: 33
EndChar

StartChar: uni1D48
Encoding: 7496 7496 715
Width: 290
VWidth: 0
Flags: MW
LayerCount: 2
Fore
SplineSet
288 271 m 0
 280 271 289 306 287 306 c 0
 286 306 242 274 202 274 c 0
 133 274 106 327 125 388 c 0
 151 473 217 531 308 531 c 0
 334 531 342 523 346 523 c 0
 349 523 350 527 353 538 c 2
 376 613 l 2
 379 622 387 653 368 657 c 8
 360 659 366 679 375 681 c 16
 422 691 449 705 458 705 c 0
 460 705 462 704 462 702 c 1
 460 695 446 674 429 620 c 2
 351 364 l 2
 336 316 338 307 349 307 c 0
 361 307 373 314 380 314 c 0
 387 314 378 289 372 288 c 0
 341 283 296 271 288 271 c 0
281 502 m 0
 258 502 210 483 186 403 c 0
 158 311 195 300 221 300 c 0
 241 300 288 321 300 361 c 2
 323 438 l 2
 333 472 318 502 281 502 c 0
EndSplineSet
Validated: 33
EndChar

StartChar: uni1D49
Encoding: 7497 7497 716
Width: 215
VWidth: 0
Flags: MW
LayerCount: 2
Fore
SplineSet
127 390 m 0
 155 483 226 524 294 524 c 1
 295 524 295 524 296 524 c 0
 333 524 362 498 350 460 c 0
 346 446 339 426 328 421 c 0
 318 417 300 417 283 417 c 18
 194 415 l 2
 185 415 181 405 177 389 c 0
 168 358 183 314 229 313 c 0
 249 313 266 322 289 338 c 0
 290 339 292 339 293 339 c 0
 301 339 309 327 305 322 c 0
 280 294 246 271 200 271 c 0
 146 271 105 318 127 390 c 0
207 453 m 0
 201 444 206 444 210 444 c 18
 245 444 l 10
 263 444 278 445 291 449 c 8
 299 451 303 464 305 469 c 0
 312 491 295 497 276 497 c 0
 243 497 222 476 207 453 c 0
EndSplineSet
Validated: 33
EndChar

StartChar: uni1D4D
Encoding: 7501 7501 717
Width: 257
VWidth: 0
Flags: MW
LayerCount: 2
Fore
SplineSet
108 185 m 0
 97 146 118 134 165 134 c 0
 212 134 251 175 261 209 c 0
 268 231 251 239 233 243 c 0
 219 246 194 250 180 251 c 0
 179 251 179 251 178 251 c 0
 163 251 149 242 139 232 c 0
 125 220 113 205 108 185 c 0
257 498 m 8
 228 498 200 465 191 436 c 8
 180 401 186 364 220 364 c 0
 250 364 276 394 288 433 c 8
 298 466 290 498 257 498 c 8
273 524 m 8
 306 524 327 505 364 505 c 0
 372 505 376 505 383 505 c 0
 386 505 390 505 395 505 c 0
 399 505 400 499 398 494 c 0
 396 489 393 484 389 484 c 0
 355 484 362 480 353 479 c 1
 348 472 346 460 343 451 c 0
 325 393 264 338 207 338 c 16
 194 338 185 337 181 341 c 1
 165 331 162 330 160 322 c 0
 155 305 183 298 202 296 c 0
 277 289 328 278 313 228 c 0
 293 162 212 100 139 100 c 8
 88 100 32 116 48 169 c 0
 59 205 108 225 135 255 c 1
 116 259 101 273 110 301 c 0
 113 310 115 313 125 320 c 0
 138 330 146 337 160 351 c 1
 156 352 123 378 139 429 c 0
 157 489 220 524 273 524 c 8
EndSplineSet
Validated: 33
EndChar

StartChar: uni1D4F
Encoding: 7503 7503 718
Width: 302
VWidth: 0
Flags: MW
LayerCount: 2
Fore
SplineSet
357 273 m 2
 248 273 l 2
 245 273 235 276 237 282 c 0
 242 299 281 299 271 319 c 1
 222 398 l 2
 221 400 217 399 215 394 c 0
 211 383 208 372 204 360 c 0
 200 348 197 336 193 322 c 0
 188 306 192 301 203 297 c 0
 209 295 215 288 213 282 c 0
 211 276 199 273 196 273 c 2
 106 273 l 2
 103 273 92 276 94 282 c 0
 96 288 106 295 113 297 c 0
 126 301 138 306 143 322 c 2
 229 605 l 2
 232 614 238 645 220 649 c 8
 212 651 217 671 226 673 c 16
 259 680 287 690 309 697 c 0
 310 697 l 0
 312 697 312 696 312 694 c 0
 311 687 298 665 282 612 c 2
 224 424 l 2
 223 421 224 420 226 420 c 0
 231 420 244 428 251 433 c 0
 292 461 307 471 320 481 c 0
 324 484 333 495 323 497 c 0
 321 498 312 504 314 509 c 0
 317 518 328 519 331 519 c 10
 416 519 l 2
 418 519 421 512 420 510 c 0
 418 505 412 498 406 497 c 0
 390 494 372 489 359 482 c 0
 350 477 310 452 274 427 c 0
 271 425 268 420 271 413 c 0
 290 374 314 336 324 325 c 1
 333 312 353 301 364 297 c 0
 370 295 375 288 373 282 c 0
 371 276 360 273 357 273 c 2
EndSplineSet
Validated: 33
EndChar

StartChar: uni1D50
Encoding: 7504 7504 719
Width: 449
VWidth: 0
Flags: MW
LayerCount: 2
Fore
SplineSet
507 319 m 2
 502 303 511 301 522 297 c 0
 528 295 534 288 532 282 c 0
 530 276 518 272 515 272 c 2
 418 272 l 2
 415 272 405 276 407 282 c 0
 409 288 419 295 426 297 c 0
 439 301 450 303 455 319 c 2
 488 428 l 10
 497 457 487 485 461 485 c 0
 441 485 423 481 404 469 c 0
 395 464 386 450 379 426 c 2
 346 319 l 2
 341 303 350 301 361 297 c 0
 367 295 373 288 371 282 c 0
 369 276 357 272 354 272 c 2
 258 272 l 2
 255 272 245 276 247 282 c 0
 249 288 259 295 266 297 c 0
 279 301 289 303 294 319 c 2
 327 428 l 10
 336 457 327 485 301 485 c 0
 281 485 263 481 244 469 c 0
 235 464 227 451 219 426 c 2
 186 319 l 1
 182 303 190 301 201 297 c 0
 207 295 212 288 210 282 c 0
 208 276 196 272 193 272 c 2
 99 272 l 2
 96 272 86 276 88 282 c 0
 90 288 100 295 107 297 c 0
 120 301 130 303 136 319 c 1
 170 432 l 2
 177 454 182 472 163 476 c 8
 155 478 161 497 170 499 c 16
 203 506 215 519 239 533 c 0
 240 533 240 534 241 534 c 0
 245 534 250 531 250 529 c 1
 248 522 232 486 234 482 c 1
 255 497 295 524 342 524 c 0
 371 524 385 512 387 487 c 0
 388 477 392 478 405 489 c 0
 424 505 465 524 503 524 c 0
 542 524 561 498 547 451 c 2
 507 319 l 2
EndSplineSet
Validated: 33
EndChar

StartChar: uni1D52
Encoding: 7506 7506 720
Width: 286
VWidth: 0
Flags: MW
LayerCount: 2
Fore
SplineSet
289 493 m 0
 247 493 218 448 204 402 c 0
 187 347 198 297 239 297 c 0
 280 297 309 341 324 389 c 0
 340 441 331 493 289 493 c 0
309 524 m 0
 369 524 407 469 387 404 c 0
 366 334 303 268 219 268 c 0
 157 268 119 316 141 388 c 0
 164 462 240 524 309 524 c 0
EndSplineSet
Validated: 33
EndChar

StartChar: uni1D56
Encoding: 7510 7510 721
Width: 298
VWidth: 0
Flags: MW
LayerCount: 2
Fore
SplineSet
91 158 m 2
 177 440 l 2
 180 449 181 480 163 484 c 8
 155 486 161 505 170 507 c 16
 203 514 228 523 250 531 c 0
 250 531 250 531 251 531 c 0
 255 531 261 529 261 527 c 0
 260 520 244 489 246 485 c 1
 261 496 307 524 345 524 c 0
 408 524 428 467 410 410 c 0
 388 340 307 274 232 274 c 0
 215 274 197 293 185 293 c 0
 183 293 175 266 174 262 c 2
 142 158 l 2
 137 142 146 139 157 135 c 0
 163 133 169 126 167 120 c 0
 165 114 153 111 150 111 c 2
 51 111 l 2
 48 111 37 114 39 120 c 0
 41 126 51 133 58 135 c 0
 71 139 86 142 91 158 c 2
249 300 m 0
 272 300 331 338 349 398 c 0
 369 465 338 490 312 490 c 0
 292 490 273 480 255 469 c 0
 244 462 233 451 224 426 c 0
 216 402 209 378 204 357 c 0
 197 324 206 300 249 300 c 0
EndSplineSet
Validated: 33
EndChar

StartChar: uni1D57
Encoding: 7511 7511 722
Width: 171
VWidth: 0
Flags: MW
LayerCount: 2
Fore
SplineSet
156 481 m 0
 153 482 156 510 161 512 c 0
 189 522 210 543 225 564 c 0
 228 569 244 571 254 571 c 0
 259 571 262 570 262 569 c 10
 246 527 l 18
 244 522 249 519 256 519 c 10
 318 519 l 18
 321 519 319 510 316 500 c 0
 313 490 309 481 306 481 c 10
 254 481 l 18
 226 481 230 480 225 464 c 10
 190 352 l 18
 183 328 188 307 209 307 c 0
 236 307 248 313 259 320 c 0
 265 324 261 303 257 299 c 0
 249 290 211 271 179 271 c 8
 146 271 120 294 131 329 c 26
 175 472 l 2
 178 483 169 480 156 481 c 0
EndSplineSet
Validated: 33
EndChar

StartChar: uni1D58
Encoding: 7512 7512 723
Width: 302
VWidth: 0
Flags: MW
LayerCount: 2
Fore
SplineSet
403 532 m 0
 409 532 418 523 414 518 c 0
 410 514 397 486 394 476 c 2
 357 357 l 2
 350 333 345 315 354 315 c 0
 355 315 l 0
 362 316 385 316 391 317 c 0
 394 318 394 313 393 309 c 0
 392 305 387 293 384 293 c 0
 351 289 322 279 302 272 c 0
 300 271 290 268 286 268 c 0
 285 268 284 269 284 269 c 0
 285 276 299 306 301 314 c 1
 260 283 225 272 188 272 c 0
 149 272 127 296 141 343 c 2
 176 457 l 2
 181 474 173 484 157 491 c 0
 155 492 156 500 157 504 c 0
 159 509 164 518 167 518 c 0
 200 519 216 524 241 529 c 0
 247 530 254 526 251 520 c 0
 242 501 237 484 231 466 c 2
 200 365 l 2
 191 336 198 310 224 310 c 0
 244 310 252 311 270 322 c 0
 281 329 302 342 310 367 c 2
 339 461 l 2
 347 486 314 489 310 491 c 0
 308 492 307 500 308 504 c 0
 309 508 315 518 318 518 c 0
 380 521 380 526 403 532 c 0
EndSplineSet
Validated: 33
EndChar

StartChar: uni1D5B
Encoding: 7515 7515 724
Width: 266
VWidth: 0
Flags: MW
LayerCount: 2
Fore
SplineSet
326 495 m 0
 320 497 315 504 317 510 c 0
 319 516 330 519 333 519 c 2
 410 519 l 2
 413 519 423 516 421 510 c 0
 419 504 409 497 402 495 c 0
 389 491 369 482 356 464 c 26
 218 274 l 2
 216 271 214 270 212 270 c 0
 210 270 209 272 209 274 c 2
 186 471 l 10
 184 484 177 491 166 495 c 0
 160 497 155 504 157 510 c 0
 159 516 171 519 174 519 c 2
 260 519 l 2
 263 519 273 516 271 510 c 0
 269 504 260 497 253 495 c 0
 240 491 239 475 240 463 c 18
 248 361 l 2
 249 353 249 352 254 360 c 2
 324 460 l 10
 333 473 337 491 326 495 c 0
EndSplineSet
Validated: 33
EndChar

StartChar: uni1D9C
Encoding: 7580 7580 732
Width: 221
VWidth: 0
Flags: MW
LayerCount: 2
Fore
SplineSet
130 389 m 8
 153 464 229 524 299 524 c 16
 325 524 350 517 362 495 c 0
 366 485 354 472 342 464 c 24
 334 458 322 461 321 466 c 0
 315 487 306 495 276 495 c 8
 237 495 200 453 187 411 c 16
 169 353 186 313 232 313 c 16
 257 313 275 320 297 340 c 0
 298 341 300 342 302 342 c 0
 309 342 317 332 314 326 c 0
 302 305 253 271 197 271 c 8
 138 271 111 327 130 389 c 8
EndSplineSet
Validated: 33
EndChar

StartChar: uni1DA0
Encoding: 7584 7584 733
Width: 207
VWidth: 0
Flags: MW
LayerCount: 2
Fore
SplineSet
275 560 m 2
 267 532 l 2
 264 521 270 519 277 519 c 10
 342 519 l 18
 348 519 330 481 324 481 c 10
 275 481 l 18
 247 481 249 474 246 465 c 2
 203 323 l 1
 199 307 210 301 221 297 c 0
 227 295 232 288 230 282 c 0
 228 276 216 273 213 273 c 2
 111 273 l 2
 108 273 98 276 100 282 c 0
 102 288 111 295 118 297 c 0
 131 301 146 307 151 323 c 2
 199 480 l 1
 192 480 183 480 170 481 c 0
 167 482 170 507 175 508 c 0
 195 513 197 514 211 520 c 1
 253 659 346 698 399 698 c 0
 426 698 438 695 454 680 c 24
 471 664 432 630 417 630 c 0
 398 630 420 666 369 666 c 0
 332 666 300 641 275 560 c 2
EndSplineSet
Validated: 33
EndChar

StartChar: uni1DBB
Encoding: 7611 7611 734
Width: 222
VWidth: 0
Flags: MW
LayerCount: 2
Fore
SplineSet
222 518 m 16
 239 517 256 517 271 517 c 0
 305 517 335 518 365 519 c 0
 368 519 369 514 367 512 c 0
 356 502 352 494 340 482 c 2
 170 306 l 2
 166 301 170 297 174 297 c 2
 239 297 l 2
 258 297 274 317 301 343 c 0
 304 346 316 358 323 358 c 0
 329 358 325 346 324 344 c 0
 322 339 294 292 288 282 c 0
 286 279 281 273 277 273 c 2
 101 273 l 2
 98 273 95 280 96 283 c 0
 97 286 100 294 112 305 c 0
 171 363 220 412 285 482 c 0
 288 485 290 488 281 488 c 2
 225 488 l 2
 214 488 196 476 179 460 c 0
 175 456 165 446 159 446 c 0
 153 446 153 456 157 461 c 0
 165 472 178 501 184 515 c 0
 187 521 190 527 198 527 c 0
 203 527 211 519 222 518 c 16
EndSplineSet
Validated: 1
EndChar

StartChar: uni2010
Encoding: 8208 8208 775
Width: 253
VWidth: 0
Flags: MW
LayerCount: 2
Fore
SplineSet
88 170 m 0
 87 170 85 170 84 170 c 0
 79 170 79 172 80 176 c 8
 89 198 102 229 112 230 c 0
 174 239 236 248 298 255 c 0
 302 255 304 253 303 249 c 0
 293 224 282 197 267 195 c 0
 208 186 150 177 88 170 c 0
EndSplineSet
Validated: 1
Substitution2: "'case' Case-Sensitive Forms lookup 8 subtable" uni2010.cap
EndChar

StartChar: uni2011
Encoding: 8209 8209 776
Width: 253
VWidth: 0
Flags: MW
LayerCount: 2
Fore
SplineSet
88 170 m 0
 87 170 85 170 84 170 c 0
 79 170 79 172 80 176 c 8
 89 198 102 229 112 230 c 0
 174 239 236 248 298 255 c 0
 302 255 304 253 303 249 c 0
 293 224 282 197 267 195 c 0
 208 186 150 177 88 170 c 0
EndSplineSet
Validated: 1
Substitution2: "'case' Case-Sensitive Forms lookup 8 subtable" uni2011.cap
EndChar

StartChar: figuredash
Encoding: 8210 8210 777
Width: 490
VWidth: 0
Flags: MW
LayerCount: 2
Fore
SplineSet
107 241 m 26
 538 241 l 26
 545 241 549 234 545 227 c 24
 533 206 522 181 502 181 c 26
 79 181 l 26
 72 181 68 187 70 193 c 0
 73 202 87 241 107 241 c 26
EndSplineSet
Validated: 1
Substitution2: "'case' Case-Sensitive Forms lookup 8 subtable" figuredash.cap
EndChar

StartChar: uni2015
Encoding: 8213 8213 778
Width: 1858
VWidth: 0
Flags: MW
LayerCount: 2
Fore
SplineSet
141 239 m 26
 1873 239 l 26
 1880 239 1885 232 1881 225 c 24
 1870 206 1859 185 1840 185 c 26
 115 185 l 26
 108 185 104 191 106 197 c 0
 109 206 123 239 141 239 c 26
EndSplineSet
Validated: 1
EndChar

StartChar: uni2070
Encoding: 8304 8304 796
Width: 278
VWidth: 0
Flags: MW
LayerCount: 2
Fore
SplineSet
371 760 m 8
 313 760 278 681 259 619 c 0
 237 548 215 455 281 455 c 16
 342 455 375 541 395 607 c 16
 415 674 433 760 371 760 c 8
388 785 m 16
 463 785 479 700 454 619 c 16
 426 527 349 433 264 433 c 8
 186 433 174 524 200 608 c 8
 227 697 305 785 388 785 c 16
EndSplineSet
Validated: 33
EndChar

StartChar: uni2071
Encoding: 8305 8305 797
Width: 144
VWidth: 0
Flags: MW
LayerCount: 2
Fore
SplineSet
227 623 m 0
 233 641 254 658 271 658 c 0
 289 658 300 641 294 623 c 0
 289 606 268 589 250 589 c 0
 233 589 222 606 227 623 c 0
194 320 m 2
 189 304 206 302 217 298 c 0
 223 296 229 289 227 283 c 0
 225 277 213 273 210 273 c 2
 104 273 l 2
 101 273 91 277 93 283 c 0
 95 289 104 296 111 298 c 0
 124 302 141 304 146 320 c 2
 178 426 l 2
 184 447 184 465 165 469 c 8
 156 471 162 493 172 495 c 16
 206 503 223 517 247 530 c 0
 248 530 250 530 252 530 c 0
 258 530 266 529 265 527 c 0
 259 513 245 486 229 434 c 2
 194 320 l 2
EndSplineSet
Validated: 33
EndChar

StartChar: uni2074
Encoding: 8308 8308 798
Width: 278
VWidth: 0
Flags: MW
LayerCount: 2
Fore
SplineSet
327 580 m 2
 331 580 335 582 336 585 c 2
 370 696 l 2
 371 698 367 699 365 697 c 24
 317 655 282 622 245 585 c 0
 243 583 241 580 243 580 c 2
 327 580 l 2
174 541 m 2
 211 578 l 1
 345 705 l 2
 361 720 389 745 418 770 c 25
 425 775 433 781 437 782 c 0
 438 782 l 0
 441 782 441 777 440 774 c 0
 432 748 406 657 384 583 c 24
 384 581 384 579 386 579 c 16
 392 579 397 579 402 579 c 0
 414 579 425 579 440 580 c 0
 444 580 447 578 446 574 c 24
 439 560 426 539 422 539 c 0
 412 539 401 540 391 540 c 0
 386 540 382 540 378 539 c 0
 376 538 369 536 369 535 c 2
 346 459 l 2
 341 444 302 432 298 432 c 0
 292 432 290 434 292 440 c 2
 320 532 l 2
 321 536 314 537 314 537 c 1
 268 537 235 534 177 533 c 0
 173 533 172 539 174 541 c 2
EndSplineSet
Validated: 1
EndChar

StartChar: uni2075
Encoding: 8309 8309 799
Width: 276
VWidth: 0
Flags: MW
LayerCount: 2
Fore
SplineSet
403 567 m 0
 385 509 343 477 303 457 c 0
 279 445 238 430 199 430 c 16
 190 430 187 435 188 439 c 0
 190 445 197 455 211 455 c 0
 263 455 319 475 341 547 c 0
 360 609 284 617 254 629 c 0
 246 632 244 644 246 650 c 0
 254 674 284 721 295 737 c 0
 303 749 312 758 326 761 c 0
 365 770 396 775 438 775 c 0
 442 775 442 770 440 765 c 0
 439 761 418 727 400 726 c 1
 367 722 341 724 321 721 c 0
 318 721 308 719 303 711 c 1
 297 704 294 700 292 693 c 0
 291 689 294 683 301 681 c 0
 362 661 429 653 403 567 c 0
EndSplineSet
Validated: 33
EndChar

StartChar: uni2076
Encoding: 8310 8310 800
Width: 277
VWidth: 0
Flags: MW
LayerCount: 2
Fore
SplineSet
367 530 m 0
 377 563 377 598 346 598 c 0
 332 598 319 594 306 586 c 0
 300 582 294 578 289 578 c 0
 284 578 284 583 286 588 c 0
 288 596 293 601 300 606 c 0
 315 617 355 640 375 640 c 0
 435 640 437 602 425 562 c 0
 407 504 343 426 265 426 c 0
 192 426 169 473 189 538 c 0
 213 621 274 675 301 696 c 0
 337 724 394 756 467 774 c 0
 471 774 474 769 471 764 c 24
 465 755 453 750 449 748 c 0
 392 727 287 670 247 538 c 0
 229 478 251 446 287 446 c 0
 321 446 350 474 367 530 c 0
EndSplineSet
Validated: 33
EndChar

StartChar: uni2077
Encoding: 8311 8311 801
Width: 278
VWidth: 0
Flags: MW
LayerCount: 2
Fore
SplineSet
425 710 m 2
 428 714 432 719 418 719 c 2
 295 719 l 2
 275 719 267 713 256 696 c 0
 251 689 236 672 227 672 c 0
 212 672 263 751 267 758 c 0
 272 767 276 769 279 769 c 2
 490 769 l 2
 494 769 495 759 493 755 c 0
 479 737 470 728 452 707 c 2
 243 452 l 2
 234 441 221 425 217 425 c 0
 203 425 198 432 203 447 c 0
 204 451 217 467 227 479 c 18
 425 710 l 2
EndSplineSet
Validated: 33
EndChar

StartChar: uni2078
Encoding: 8312 8312 802
Width: 277
VWidth: 0
Flags: MW
LayerCount: 2
Fore
SplineSet
349 636 m 0
 380 657 391 683 401 716 c 16
 410 745 402 772 375 772 c 8
 349 772 319 752 311 725 c 8
 298 683 315 669 342 637 c 1
 344 636 347 634 349 636 c 0
358 624 m 0
 390 597 418 575 405 531 c 8
 386 470 314 431 262 431 c 8
 212 431 171 462 187 516 c 16
 202 565 260 589 292 605 c 0
 298 608 295 608 293 612 c 0
 270 640 245 666 260 714 c 16
 274 759 334 785 381 785 c 16
 424 785 463 760 449 713 c 16
 441 686 414 670 399 659 c 0
 386 650 379 645 364 636 c 0
 353 629 353 628 358 624 c 0
295 595 m 0
 267 576 256 560 245 525 c 8
 233 487 240 447 275 447 c 16
 307 447 333 476 343 508 c 16
 353 542 335 571 311 593 c 0
 308 596 306 598 303 598 c 0
 301 598 298 597 295 595 c 0
EndSplineSet
Validated: 33
EndChar

StartChar: uni2079
Encoding: 8313 8313 803
Width: 277
VWidth: 0
Flags: MW
LayerCount: 2
Fore
SplineSet
385 783 m 0
 444 783 476 731 455 661 c 0
 434 592 378 538 336 506 c 0
 293 474 213 429 170 423 c 0
 168 423 l 0
 164 423 162 427 163 431 c 8
 165 438 172 446 177 447 c 0
 215 458 280 507 316 541 c 1
 347 569 381 600 402 668 c 0
 417 718 401 755 357 755 c 0
 329 755 297 727 285 687 c 0
 275 654 286 628 319 628 c 0
 333 628 338 630 346 633 c 0
 354 636 365 646 372 649 c 0
 375 651 373 632 371 630 c 0
 365 622 350 613 342 608 c 0
 331 601 305 588 283 588 c 0
 241 588 214 620 227 664 c 0
 244 718 312 783 385 783 c 0
EndSplineSet
Validated: 33
EndChar

StartChar: uni207F
Encoding: 8319 8319 808
Width: 308
VWidth: 0
Flags: MW
LayerCount: 2
Fore
SplineSet
366 324 m 2
 361 307 371 300 382 297 c 1
 388 294 394 289 392 283 c 0
 390 277 378 273 375 273 c 2
 275 273 l 2
 272 273 262 277 264 283 c 0
 266 289 275 294 282 297 c 1
 295 300 311 307 316 324 c 2
 347 426 l 2
 358 461 340 482 307 482 c 0
 287 482 274 480 255 468 c 0
 245 462 230 449 222 424 c 2
 191 324 l 18
 187 310 194 300 205 297 c 1
 212 294 217 289 215 283 c 0
 213 277 202 273 198 273 c 2
 99 273 l 2
 96 273 86 277 88 283 c 0
 90 289 100 294 107 297 c 1
 120 300 137 309 141 324 c 10
 177 441 l 2
 184 463 183 480 164 485 c 8
 159 486 162 499 168 500 c 16
 202 507 232 522 248 533 c 1
 250 533 l 0
 254 533 260 530 259 528 c 0
 257 521 240 488 242 484 c 1
 264 498 314 524 352 524 c 0
 391 524 419 499 405 452 c 2
 366 324 l 2
EndSplineSet
Validated: 33
Substitution2: "'case' Case-Sensitive Forms lookup 8 subtable" uni207F.cap
Substitution2: "'smcp' Lowercase to small capitals POJ subtable" uni207F.sc
EndChar

StartChar: uni2080
Encoding: 8320 8320 809
Width: 278
VWidth: 0
Flags: MW
LayerCount: 2
Fore
SplineSet
183 147 m 8
 125 147 90 68 71 6 c 0
 49 -65 28 -158 94 -158 c 16
 155 -158 187 -72 207 -6 c 16
 227 61 245 147 183 147 c 8
201 172 m 16
 276 172 292 87 267 6 c 16
 239 -86 162 -180 77 -180 c 8
 -1 -180 -14 -89 12 -5 c 8
 39 84 118 172 201 172 c 16
EndSplineSet
Validated: 33
EndChar

StartChar: uni2081
Encoding: 8321 8321 810
Width: 179
VWidth: 0
Flags: MW
LayerCount: 2
Fore
SplineSet
160 172 m 0
 163 173 165 174 167 174 c 0
 173 174 175 168 172 160 c 0
 166 146 156 122 146 90 c 0
 132 46 121 9 112 -21 c 0
 103 -51 95 -76 88 -100 c 0
 77 -139 82 -140 121 -146 c 0
 136 -148 128 -171 113 -171 c 0
 60 -171 68 -166 38 -166 c 24
 8 -166 11 -171 -39 -171 c 0
 -50 -171 -48 -147 -32 -146 c 0
 -6 -144 20 -141 33 -100 c 2
 79 53 l 2
 87 80 58 94 44 100 c 0
 29 106 42 126 51 127 c 0
 100 132 147 166 160 172 c 0
EndSplineSet
Validated: 33
EndChar

StartChar: uni2082
Encoding: 8322 8322 811
Width: 278
VWidth: 0
Flags: MW
LayerCount: 2
Fore
SplineSet
61 72 m 1
 53 62 44 67 47 78 c 0
 53 98 118 164 183 164 c 0
 230 164 255 123 239 72 c 16
 229 38 206 17 183 -8 c 0
 152 -41 70 -100 61 -108 c 0
 56 -112 66 -114 70 -114 c 0
 77 -114 82 -113 87 -113 c 0
 98 -113 109 -114 134 -114 c 0
 162 -114 195 -94 218 -64 c 0
 221 -59 230 -55 235 -56 c 24
 239 -56 237 -61 235 -64 c 0
 212 -100 197 -125 182 -156 c 0
 177 -167 172 -169 169 -169 c 0
 168 -169 168 -168 167 -168 c 0
 120 -165 120 -166 89 -166 c 24
 44 -166 22 -166 -26 -168 c 0
 -31 -169 -30 -159 -21 -152 c 2
 28 -112 l 2
 48 -96 159 -17 179 46 c 0
 192 84 175 110 146 110 c 0
 113 110 96 102 61 72 c 1
EndSplineSet
Validated: 33
EndChar

StartChar: uni2083
Encoding: 8323 8323 812
Width: 277
VWidth: 0
Flags: MW
LayerCount: 2
Fore
SplineSet
49 -179 m 0
 22 -179 -11 -174 -2 -146 c 0
 0 -138 15 -118 23 -118 c 0
 29 -118 33 -121 34 -123 c 0
 43 -131 60 -145 88 -145 c 0
 100 -145 144 -141 162 -83 c 8
 173 -47 154 -18 119 -18 c 0
 110 -18 94 -22 83 -25 c 0
 77 -27 67 -19 73 -14 c 24
 92 1 111 2 126 11 c 0
 160 31 186 41 196 73 c 16
 203 94 180 110 163 110 c 0
 162 110 163 110 162 110 c 0
 141 109 116 100 88 80 c 0
 84 77 80 73 77 74 c 24
 74 76 71 81 74 85 c 0
 98 116 143 157 192 157 c 1
 239 156 268 137 252 86 c 0
 244 61 216 37 177 19 c 0
 173 17 171 14 175 14 c 8
 209 12 230 -15 219 -52 c 16
 194 -133 98 -179 49 -179 c 0
EndSplineSet
Validated: 33
EndChar

StartChar: uni2084
Encoding: 8324 8324 813
Width: 278
VWidth: 0
Flags: MW
LayerCount: 2
Fore
SplineSet
141 -31 m 2
 144 -31 149 -29 150 -26 c 2
 184 85 l 2
 185 87 181 88 179 86 c 24
 131 44 96 11 58 -26 c 0
 56 -28 54 -31 56 -31 c 2
 141 -31 l 2
236 -72 m 0
 230 -72 218 -71 206 -71 c 0
 195 -71 184 -72 183 -76 c 2
 160 -152 l 2
 155 -167 116 -179 112 -179 c 0
 107 -179 104 -177 106 -171 c 2
 134 -79 l 2
 135 -75 128 -74 127 -74 c 0
 81 -74 49 -77 -10 -78 c 0
 -14 -78 -15 -72 -13 -70 c 0
 44 -14 101 40 159 94 c 0
 175 109 204 134 233 159 c 24
 239 164 246 170 250 171 c 0
 251 171 l 0
 254 171 255 166 254 163 c 0
 246 137 219 46 198 -28 c 24
 197 -30 197 -32 199 -32 c 16
 205 -32 211 -32 216 -32 c 0
 229 -32 239 -32 254 -31 c 0
 269 -31 238 -72 236 -72 c 0
EndSplineSet
Validated: 33
EndChar

StartChar: uni2085
Encoding: 8325 8325 814
Width: 276
VWidth: 0
Flags: MW
LayerCount: 2
Fore
SplineSet
215 -47 m 0
 197 -105 156 -137 116 -157 c 0
 92 -169 51 -184 12 -184 c 16
 3 -184 -1 -179 0 -175 c 0
 2 -169 9 -159 23 -159 c 0
 75 -159 131 -139 153 -67 c 0
 172 -5 96 3 66 15 c 0
 58 18 56 30 58 36 c 0
 66 60 96 107 107 123 c 0
 115 135 124 144 138 147 c 0
 177 156 208 161 250 161 c 0
 254 161 255 156 253 151 c 0
 252 147 231 113 213 112 c 1
 180 108 153 110 133 107 c 0
 130 107 120 105 115 97 c 1
 109 90 106 86 104 79 c 0
 103 75 106 69 113 67 c 0
 174 47 241 39 215 -47 c 0
EndSplineSet
Validated: 33
EndChar

StartChar: uni2086
Encoding: 8326 8326 815
Width: 277
VWidth: 0
Flags: MW
LayerCount: 2
Fore
SplineSet
181 -78 m 0
 191 -45 191 -10 160 -10 c 0
 146 -10 133 -14 120 -22 c 0
 114 -26 108 -30 103 -30 c 0
 98 -30 98 -25 100 -20 c 0
 102 -12 107 -7 114 -2 c 0
 129 9 169 32 189 32 c 0
 249 32 251 -6 239 -46 c 0
 221 -104 157 -182 79 -182 c 0
 6 -182 -17 -135 3 -70 c 0
 27 13 88 67 115 88 c 0
 151 116 208 148 281 166 c 0
 285 166 288 161 285 156 c 24
 279 147 267 142 263 140 c 0
 206 119 101 62 61 -70 c 0
 43 -130 66 -162 102 -162 c 0
 136 -162 164 -134 181 -78 c 0
EndSplineSet
Validated: 33
EndChar

StartChar: uni2087
Encoding: 8327 8327 816
Width: 278
VWidth: 0
Flags: MW
LayerCount: 2
Fore
SplineSet
237 95 m 2
 240 99 244 104 230 104 c 2
 107 104 l 2
 87 104 79 98 68 81 c 0
 63 74 48 57 39 57 c 0
 24 57 75 136 79 143 c 0
 84 152 88 154 91 154 c 2
 302 154 l 2
 306 154 307 144 305 140 c 0
 291 122 282 113 264 92 c 2
 55 -163 l 2
 46 -174 33 -190 29 -190 c 0
 15 -190 10 -183 15 -168 c 0
 16 -164 29 -148 39 -136 c 18
 237 95 l 2
EndSplineSet
Validated: 33
EndChar

StartChar: uni2088
Encoding: 8328 8328 817
Width: 277
VWidth: 0
Flags: MW
LayerCount: 2
Fore
SplineSet
164 23 m 0
 195 44 207 70 217 103 c 16
 226 132 217 159 190 159 c 8
 164 159 135 139 127 112 c 8
 114 70 130 56 157 24 c 1
 159 23 162 21 164 23 c 0
173 11 m 0
 205 -16 234 -38 221 -82 c 8
 202 -143 130 -182 78 -182 c 8
 28 -182 -14 -151 2 -97 c 16
 17 -48 76 -24 108 -8 c 0
 114 -5 111 -5 109 -1 c 0
 86 27 60 53 75 101 c 16
 89 146 149 172 196 172 c 16
 239 172 278 147 264 100 c 16
 256 73 229 57 214 46 c 0
 201 37 194 32 179 23 c 0
 168 16 168 15 173 11 c 0
110 -18 m 0
 82 -37 72 -53 61 -88 c 8
 49 -126 55 -166 90 -166 c 16
 122 -166 148 -137 158 -105 c 16
 168 -71 150 -42 126 -20 c 0
 123 -17 121 -15 118 -15 c 0
 116 -15 113 -16 110 -18 c 0
EndSplineSet
Validated: 33
EndChar

StartChar: uni2089
Encoding: 8329 8329 818
Width: 277
VWidth: 0
Flags: MW
LayerCount: 2
Fore
SplineSet
196 166 m 0
 255 166 288 114 267 44 c 0
 246 -25 189 -79 147 -111 c 0
 104 -143 24 -188 -19 -194 c 0
 -20 -194 l 0
 -24 -194 -27 -190 -26 -186 c 8
 -24 -179 -17 -171 -12 -170 c 0
 26 -159 92 -110 128 -76 c 1
 159 -48 192 -17 213 51 c 0
 228 101 212 138 168 138 c 0
 140 138 108 110 96 70 c 0
 86 37 97 11 130 11 c 0
 144 11 149 13 157 16 c 0
 165 19 176 29 183 32 c 0
 186 34 184 15 182 13 c 0
 176 5 161 -4 153 -9 c 0
 142 -16 117 -29 95 -29 c 0
 53 -29 25 3 38 47 c 0
 55 101 123 166 196 166 c 0
EndSplineSet
Validated: 33
EndChar

StartChar: uni2090
Encoding: 8336 8336 823
Width: 250
VWidth: 0
Flags: MW
LayerCount: 2
Fore
SplineSet
38 -103 m 0
 31 -126 45 -137 57 -137 c 0
 73 -137 88 -126 100 -118 c 0
 106 -114 109 -110 114 -95 c 10
 124 -66 l 18
 128 -54 124 -52 113 -55 c 0
 62 -69 42 -89 38 -103 c 0
145 -177 m 0
 111 -177 108 -146 103 -146 c 0
 95 -146 68 -177 19 -177 c 0
 -6 -177 -25 -141 -18 -118 c 0
 -10 -93 1 -77 34 -65 c 10
 116 -37 l 18
 134 -31 135 -29 140 -13 c 2
 147 10 l 26
 153 30 145 46 123 46 c 0
 108 46 86 41 79 33 c 0
 74 27 71 15 70 8 c 0
 68 0 37 -7 22 -11 c 0
 18 -12 17 -8 22 -1 c 0
 32 14 37 24 56 37 c 0
 80 54 130 79 162 79 c 0
 191 79 213 54 204 26 c 10
 163 -98 l 26
 158 -115 153 -137 171 -137 c 0
 182 -137 187 -135 193 -129 c 0
 200 -122 204 -138 200 -144 c 0
 198 -147 167 -177 145 -177 c 0
EndSplineSet
Validated: 33
EndChar

StartChar: uni2091
Encoding: 8337 8337 824
Width: 215
VWidth: 0
Flags: MW
LayerCount: 2
Fore
SplineSet
-10 -58 m 0
 18 35 90 78 158 78 c 1
 159 78 159 78 160 78 c 0
 197 78 225 52 213 14 c 0
 209 0 202 -20 191 -25 c 0
 181 -29 163 -29 146 -29 c 18
 58 -31 l 2
 49 -31 46 -41 42 -57 c 0
 33 -88 46 -136 92 -137 c 0
 112 -137 129 -128 152 -112 c 0
 153 -111 155 -111 156 -111 c 0
 164 -111 171 -123 167 -128 c 0
 142 -156 108 -179 62 -179 c 0
 8 -179 -32 -130 -10 -58 c 0
72 7 m 0
 66 -2 71 -2 75 -2 c 18
 109 -2 l 10
 125 -2 139 -1 152 3 c 8
 160 5 164 18 166 23 c 0
 173 45 159 51 140 51 c 0
 107 51 89 32 72 7 c 0
EndSplineSet
Validated: 33
EndChar

StartChar: uni2092
Encoding: 8338 8338 825
Width: 286
VWidth: 0
Flags: MW
LayerCount: 2
Fore
SplineSet
151 42 m 0
 109 42 79 -1 65 -47 c 0
 48 -102 61 -150 102 -150 c 0
 143 -150 174 -108 189 -60 c 0
 205 -8 193 42 151 42 c 0
171 75 m 0
 231 75 270 20 250 -45 c 0
 229 -115 166 -181 82 -181 c 0
 20 -181 -18 -133 4 -61 c 0
 27 13 102 75 171 75 c 0
EndSplineSet
Validated: 33
EndChar

StartChar: uni20A8
Encoding: 8360 8360 827
Width: 887
VWidth: 0
Flags: M
LayerCount: 2
Fore
SplineSet
311 366 m 0
 300 332 316 330 345 329 c 0
 346 329 348 329 349 329 c 0
 399 329 429 346 458 368 c 0
 492 395 519 431 537 489 c 0
 554 546 559 627 454 627 c 0
 403 627 388 603 378 573 c 0
 353 501 336 445 311 366 c 0
589 -26 m 0
 536 -26 497 -10 478 33 c 0
 451 93 430 129 400 241 c 0
 395 259 388 270 372 280 c 24
 350 294 322 300 306 302 c 0
 296 303 290 294 286 282 c 2
 233 110 l 2
 220 67 225 33 269 24 c 0
 289 20 297 15 294 6 c 0
 292 -2 280 -5 264 -5 c 0
 214 -5 211 2 175 2 c 24
 128 2 102 -5 52 -5 c 0
 36 -5 26 -2 28 6 c 0
 31 15 41 20 64 24 c 0
 113 33 141 51 156 100 c 2
 285 522 l 2
 303 582 302 613 258 622 c 0
 238 626 231 633 234 642 c 0
 236 650 248 653 264 653 c 0
 314 653 317 652 355 652 c 0
 390 652 409 657 463 657 c 0
 599 657 653 598 620 489 c 0
 606 444 565 394 546 379 c 0
 520 359 473 327 460 321 c 0
 455 319 456 318 458 312 c 0
 487 218 516 150 569 58 c 24
 584 32 595 13 628 13 c 0
 680 13 699 44 711 84 c 0
 722 120 703 143 672 174 c 0
 638 208 605 251 620 300 c 0
 636 353 693 414 784 414 c 0
 821 414 844 401 850 391 c 1
 857 376 851 341 842 313 c 0
 841 310 839 309 836 309 c 0
 826 309 808 321 810 330 c 0
 815 354 799 388 768 388 c 0
 717 388 692 348 683 320 c 0
 672 285 711 251 735 231 c 0
 757 212 805 172 785 106 c 0
 764 37 692 -26 589 -26 c 0
EndSplineSet
Validated: 33
EndChar

StartChar: uni2112
Encoding: 8466 8466 832
Width: 490
Flags: MW
LayerCount: 2
Fore
SplineSet
344 629 m 0
 345 629 346 629 347 629 c 0
 424 629 448 593 448 547 c 0
 448 520 419 491 406 491 c 0
 389 491 395 507 395 527 c 0
 394 560 360 600 326 600 c 0
 260 600 218 502 218 337 c 0
 218 241 163 126 135 102 c 0
 132 100 132 93 139 93 c 0
 258 93 280 34 375 32 c 0
 376 32 376 32 377 32 c 0
 407 32 434 57 434 87 c 0
 434 106 422 118 421 138 c 0
 421 147 421 159 430 158 c 0
 459 155 477 133 477 105 c 0
 477 28 405 -36 324 -36 c 0
 257 -36 219 -12 164 26 c 0
 142 42 110 55 100 55 c 0
 94 55 70 32 56 6 c 0
 48 -9 34 -14 20 -14 c 0
 3 -14 -10 0 -10 17 c 0
 -10 37 35 81 86 91 c 0
 92 92 94 97 97 103 c 0
 117 140 130 248 130 341 c 0
 130 474 199 628 344 629 c 0
EndSplineSet
Validated: 33
EndChar

StartChar: minus
Encoding: 8722 8722 871
Width: 600
Flags: MW
LayerCount: 2
Fore
SplineSet
64 222 m 2
 57 222 50 228 50 234 c 0
 50 243 53 282 74 282 c 2
 537 282 l 2
 544 282 552 275 550 268 c 0
 544 247 541 222 519 222 c 2
 64 222 l 2
EndSplineSet
Validated: 1
EndChar

StartChar: uni2216
Encoding: 8726 8726 873
Width: 370
Flags: MW
LayerCount: 2
Fore
SplineSet
378 -47 m 2
 381 -55 371 -62 362 -62 c 0
 347 -62 332 -61 326 -47 c 2
 29 648 l 2
 26 656 34 665 42 665 c 0
 59 665 74 663 81 648 c 2
 378 -47 l 2
EndSplineSet
Validated: 1
EndChar

StartChar: uni226A
Encoding: 8810 8810 882
Width: 836
Flags: MW
LayerCount: 2
Fore
SplineSet
399 229 m 2
 779 55 l 2
 798 46 803 16 803 7 c 0
 803 2 798 -6 792 -6 c 0
 791 -6 790 -5 789 -5 c 2
 360 195 l 2
 343 203 319 216 319 222 c 0
 319 231 332 259 352 268 c 2
 789 468 l 2
 790 468 791 469 792 469 c 0
 798 469 804 460 802 454 c 0
 796 433 791 417 771 408 c 2
 398 234 l 2
 395 233 396 230 399 229 c 2
103 229 m 2
 483 55 l 2
 502 46 507 16 507 7 c 0
 507 2 502 -6 496 -6 c 0
 495 -6 494 -5 493 -5 c 2
 64 195 l 2
 47 203 23 216 23 222 c 0
 23 231 36 259 56 268 c 2
 493 468 l 2
 494 468 495 469 496 469 c 0
 502 469 508 460 506 454 c 0
 500 433 495 417 475 408 c 2
 102 234 l 2
 99 233 100 230 103 229 c 2
EndSplineSet
Validated: 1
EndChar

StartChar: uni226B
Encoding: 8811 8811 883
Width: 836
Flags: MW
LayerCount: 2
Fore
SplineSet
427 229 m 2
 430 230 431 233 428 234 c 2
 55 408 l 2
 35 417 30 433 24 454 c 0
 22 460 28 469 34 469 c 0
 35 469 36 468 37 468 c 2
 474 268 l 2
 494 259 507 231 507 222 c 0
 507 216 483 203 466 195 c 2
 37 -5 l 2
 36 -5 35 -6 34 -6 c 0
 28 -6 23 2 23 7 c 0
 23 16 28 46 47 55 c 2
 427 229 l 2
723 229 m 2
 726 230 727 233 724 234 c 2
 351 408 l 2
 331 417 326 433 320 454 c 0
 318 460 324 469 330 469 c 0
 331 469 332 468 333 468 c 2
 770 268 l 2
 790 259 803 231 803 222 c 0
 803 216 779 203 762 195 c 2
 333 -5 l 2
 332 -5 331 -6 330 -6 c 0
 324 -6 319 2 319 7 c 0
 319 16 324 46 343 55 c 2
 723 229 l 2
EndSplineSet
Validated: 1
EndChar

StartChar: f_f
Encoding: 64256 64256 958
Width: 477
Flags: MW
LayerCount: 2
Fore
SplineSet
228 362 m 2
 199 361 191 351 187 336 c 2
 107 0 l 2
 91 -68 70 -121 47 -163 c 0
 45 -167 44 -173 47 -177 c 0
 59 -191 78 -209 107 -209 c 0
 150 -209 221 -192 254 -58 c 2
 254 -58 351 332 354 347 c 0
 357 360 354 365 340 365 c 2
 228 362 l 2
438 580 m 0
 439 581 439 586 439 587 c 0
 439 609 411 628 361 628 c 0
 280 626 228 495 210 422 c 0
 209 419 209 416 209 414 c 0
 209 403 216 400 225 400 c 0
 259 400 359 406 359 406 c 2
 366 406 368 409 370 419 c 0
 386 486 410 538 438 580 c 0
493 644 m 0
 542 688 593 706 630 706 c 0
 673 706 717 696 717 651 c 0
 717 626 696 590 675 590 c 0
 664 590 663 604 663 618 c 0
 663 640 648 663 598 663 c 0
 506 661 456 512 435 430 c 0
 434 427 434 424 434 422 c 0
 434 411 441 408 450 408 c 0
 484 408 518 410 552 411 c 0
 554 411 559 406 559 404 c 0
 559 395 540 373 533 373 c 2
 453 370 l 2
 413 369 416 359 412 344 c 2
 332 0 l 2
 282 -214 131 -249 75 -249 c 0
 42 -249 17 -242 3 -227 c 1
 -34 -270 -72 -288 -99 -288 c 0
 -149 -288 -190 -277 -190 -238 c 0
 -190 -214 -171 -194 -151 -194 c 0
 -131 -194 -117 -248 -67 -248 c 0
 -24 -248 -5 -192 29 -58 c 2
 29 -58 126 324 129 339 c 0
 132 352 129 357 115 357 c 2
 49 356 l 2
 40 356 36 361 36 368 c 0
 36 379 45 393 55 394 c 2
 134 398 l 2
 141 398 143 401 145 411 c 0
 195 611 331 669 405 669 c 0
 436 669 467 664 482 645 c 0
 486 640 488 639 493 644 c 0
EndSplineSet
Validated: 1
Substitution2: "Single Substitution lookup 81 subtable" f_f.short
Substitution2: "Single Substitution lookup 80 subtable" f_f.short
Ligature2: "liga_standard subtable" f.DEU f.DEU
Ligature2: "liga_standard subtable" f f
LCarets2: 1 973
EndChar

StartChar: uniFB01
Encoding: 64257 64257 959
Width: 494
VWidth: 0
Flags: MW
LayerCount: 2
Fore
SplineSet
372 365 m 2
 228 362 l 2
 188 361 191 351 187 336 c 2
 107 0 l 2
 56 -214 -43 -288 -99 -288 c 0
 -149 -288 -190 -277 -190 -238 c 0
 -190 -214 -171 -194 -151 -194 c 0
 -131 -194 -117 -248 -67 -248 c 0
 -24 -248 -5 -192 29 -58 c 2
 29 -58 126 324 129 339 c 0
 132 352 129 357 115 357 c 2
 49 356 l 2
 40 356 36 361 36 368 c 0
 36 379 45 393 55 394 c 2
 134 398 l 2
 141 398 143 401 145 411 c 0
 199 635 344 704 418 704 c 8
 476 704 546 685 546 629 c 8
 546 603 526 580 500 580 c 16
 478 580 470 600 470 614 c 0
 470 642 449 668 399 668 c 0
 319 666 211 507 211 414 c 0
 211 403 216 400 225 400 c 0
 259 400 384 401 384 401 c 2
 420 401 440 409 456 418 c 0
 462 421 473 419 473 408 c 0
 473 394 471 387 465 370 c 2
 362 86 l 2
 358 75 357 65 357 57 c 0
 357 47 360 41 367 41 c 0
 399 41 469 108 479 118 c 0
 480 119 481 120 483 120 c 0
 486 120 489 118 489 115 c 0
 489 38 360 -14 325 -14 c 0
 293 -14 283 2 283 21 c 0
 283 44 285 53 294 76 c 2
 391 324 l 2
 407 364 379 365 372 365 c 2
EndSplineSet
Validated: 33
Ligature2: "liga_standard subtable" f.DEU i
Ligature2: "liga_standard subtable" f i
LCarets2: 1 274
EndChar

StartChar: uniFB02
Encoding: 64258 64258 960
Width: 480
VWidth: 0
Flags: MW
LayerCount: 2
Fore
SplineSet
369 415 m 2
 412 559 l 2
 418 578 422 599 422 616 c 0
 422 638 397 665 347 665 c 0
 294 664 257 605 237 557 c 0
 230 539 200 438 196 422 c 0
 195 419 195 416 195 414 c 0
 195 403 202 400 211 400 c 2
 356 403 l 2
 363 403 367 408 369 415 c 2
344 365 m 2
 214 362 l 2
 182 361 177 354 173 336 c 2
 93 0 l 2
 42 -214 -57 -288 -113 -288 c 0
 -163 -288 -204 -277 -204 -238 c 0
 -204 -214 -185 -194 -165 -194 c 0
 -145 -194 -131 -248 -81 -248 c 0
 -38 -248 -19 -192 15 -58 c 2
 15 -58 112 324 115 339 c 0
 118 352 115 357 101 357 c 2
 35 356 l 2
 26 356 22 361 22 368 c 0
 22 379 31 393 41 394 c 2
 120 398 l 2
 127 398 129 401 131 411 c 0
 185 635 317 706 391 706 c 0
 409 706 439 700 451 689 c 0
 455 686 462 685 466 688 c 0
 482 700 505 707 512 707 c 0
 518 707 519 707 519 697 c 0
 519 686 518 683 515 674 c 2
 343 86 l 2
 340 75 338 65 338 57 c 0
 338 47 341 41 348 41 c 0
 380 41 435 89 445 99 c 0
 453 107 460 120 465 120 c 0
 470 120 470 115 470 107 c 0
 470 47 341 -14 306 -14 c 0
 274 -14 256 2 256 21 c 0
 256 38 260 52 267 76 c 2
 351 357 l 2
 352 362 351 365 344 365 c 2
EndSplineSet
Validated: 1
Ligature2: "liga_standard subtable" f.DEU l
Ligature2: "liga_standard subtable" f l
LCarets2: 1 256
EndChar

StartChar: uniFB03
Encoding: 64259 64259 961
Width: 701
Flags: MW
LayerCount: 2
Fore
SplineSet
595 372 m 2
 453 370 l 2
 413 369 416 359 412 344 c 2
 332 0 l 2
 282 -214 131 -249 75 -249 c 0
 42 -249 17 -242 3 -227 c 1
 -34 -270 -72 -288 -99 -288 c 0
 -149 -288 -190 -277 -190 -238 c 0
 -190 -214 -171 -194 -151 -194 c 0
 -131 -194 -117 -248 -67 -248 c 0
 -24 -248 -5 -192 29 -58 c 2
 29 -58 126 324 129 339 c 0
 132 352 129 357 115 357 c 2
 49 356 l 2
 40 356 36 361 36 368 c 0
 36 379 45 393 55 394 c 2
 134 398 l 2
 141 398 143 401 145 411 c 0
 195 611 331 669 405 669 c 0
 436 669 467 664 482 645 c 0
 486 640 488 639 493 644 c 0
 542 688 591 704 625 704 c 0
 683 704 753 685 753 629 c 8
 753 603 733 580 707 580 c 16
 685 580 677 600 677 614 c 0
 677 642 644 661 607 661 c 8
 495 661 457 518 435 430 c 0
 434 427 434 424 434 422 c 0
 434 411 441 408 450 408 c 0
 484 408 562 409 596 412 c 2
 632 413 659 419 669 419 c 0
 676 419 680 419 680 408 c 0
 680 394 678 387 672 370 c 2
 569 86 l 2
 565 75 564 65 564 57 c 0
 564 47 567 41 574 41 c 0
 606 41 676 108 686 118 c 0
 687 119 688 120 690 120 c 0
 693 120 696 118 696 115 c 0
 696 38 567 -14 532 -14 c 0
 500 -14 490 2 490 21 c 0
 490 44 492 53 501 76 c 2
 598 324 l 2
 614 364 602 372 595 372 c 2
228 362 m 2
 199 361 191 351 187 336 c 2
 107 0 l 2
 91 -68 70 -121 47 -163 c 0
 45 -167 44 -173 47 -177 c 0
 59 -191 78 -209 107 -209 c 0
 150 -209 221 -192 254 -58 c 2
 254 -58 351 332 354 347 c 0
 357 360 354 365 340 365 c 2
 228 362 l 2
438 580 m 0
 439 581 439 586 439 587 c 0
 439 609 411 628 361 628 c 0
 280 626 228 495 210 422 c 0
 209 419 209 416 209 414 c 0
 209 403 216 400 225 400 c 0
 259 400 359 406 359 406 c 2
 366 406 368 409 370 419 c 0
 386 486 410 538 438 580 c 0
EndSplineSet
Validated: 33
Ligature2: "liga_standard subtable" f.DEU f.DEU i
Ligature2: "liga_standard subtable" f.DEU f i
Ligature2: "liga_standard subtable" f f.DEU i
Ligature2: "liga_standard subtable" f f i
LCarets2: 2 254 504
EndChar

StartChar: uniFB04
Encoding: 64260 64260 962
Width: 718
Flags: MW
AnchorPoint: "below_accent" 606 -100 basechar 0
LayerCount: 2
Fore
SplineSet
597 415 m 2
 604 415 608 420 610 427 c 2
 650 559 l 2
 656 578 660 599 660 616 c 0
 660 638 643 657 593 657 c 0
 504 655 455 512 435 430 c 0
 434 427 434 424 434 422 c 0
 434 411 441 408 450 408 c 0
 484 408 597 415 597 415 c 2
453 370 m 2
 413 369 416 359 412 344 c 2
 332 0 l 2
 282 -214 131 -249 75 -249 c 0
 42 -249 17 -242 3 -227 c 1
 -34 -270 -72 -288 -99 -288 c 0
 -149 -288 -190 -277 -190 -238 c 0
 -190 -214 -171 -194 -151 -194 c 0
 -131 -194 -117 -248 -67 -248 c 0
 -24 -248 -5 -192 29 -58 c 2
 29 -58 126 324 129 339 c 0
 132 352 129 357 115 357 c 2
 49 356 l 2
 40 356 36 361 36 368 c 0
 36 379 45 393 55 394 c 2
 134 398 l 2
 141 398 143 401 145 411 c 0
 195 611 331 669 405 669 c 0
 436 669 467 664 482 645 c 0
 486 640 488 639 493 644 c 0
 542 688 595 706 629 706 c 0
 647 706 677 700 689 689 c 0
 693 686 700 685 704 688 c 0
 720 700 743 707 750 707 c 0
 756 707 757 707 757 697 c 0
 757 686 756 683 753 674 c 2
 581 86 l 2
 578 75 576 65 576 57 c 0
 576 47 579 41 586 41 c 0
 618 41 673 89 683 99 c 0
 691 107 698 120 703 120 c 0
 708 120 708 115 708 107 c 0
 708 47 579 -14 544 -14 c 0
 512 -14 494 2 494 21 c 0
 494 38 498 52 505 76 c 2
 591 365 l 2
 592 370 591 373 584 373 c 2
 453 370 l 2
228 362 m 2
 199 361 191 351 187 336 c 2
 107 0 l 2
 91 -68 70 -121 47 -163 c 0
 45 -167 44 -173 47 -177 c 0
 59 -191 78 -209 107 -209 c 0
 150 -209 221 -192 254 -58 c 2
 254 -58 351 332 354 347 c 0
 357 360 354 365 340 365 c 2
 228 362 l 2
438 580 m 0
 439 581 439 586 439 587 c 0
 439 609 411 628 361 628 c 0
 280 626 228 495 210 422 c 0
 209 419 209 416 209 414 c 0
 209 403 216 400 225 400 c 0
 259 400 359 406 359 406 c 2
 366 406 368 409 370 419 c 0
 386 486 410 538 438 580 c 0
EndSplineSet
Validated: 1
Ligature2: "liga_standard subtable" f f l
LCarets2: 2 254 510
EndChar

StartChar: uniFB05
Encoding: 64261 64261 963
Width: 546
VWidth: 0
Flags: MW
LayerCount: 2
Fore
SplineSet
449 618 m 0
 449 640 445 665 395 665 c 0
 342 664 288 600 257 532 c 24
 166 334 128 172 88 0 c 0
 38 -216 -67 -288 -120 -288 c 0
 -170 -288 -216 -266 -216 -244 c 0
 -216 -220 -194 -191 -180 -191 c 0
 -154 -191 -134 -240 -92 -240 c 0
 -57 -240 -28 -206 8 -58 c 0
 39 69 106 318 142 411 c 0
 223 621 346 706 419 706 c 0
 462 706 520 696 520 633 c 0
 520 618 506 560 494 531 c 2
 437 411 l 2
 433 402 439 400 450 400 c 0
 477 400 507 395 525 392 c 0
 546 388 548 384 548 377 c 0
 548 374 544 366 529 365 c 0
 519 364 459 362 443 362 c 0
 431 362 415 357 412 348 c 2
 330 99 l 2
 324 80 329 59 348 59 c 0
 375 59 394 76 416 93 c 0
 432 105 444 106 444 98 c 0
 444 89 439 79 427 68 c 0
 379 23 308 -14 280 -14 c 0
 259 -14 247 -5 247 23 c 0
 247 35 249 42 261 79 c 2
 351 346 l 2
 354 355 347 358 341 358 c 2
 301 360 l 2
 284 361 283 369 283 374 c 0
 283 377 299 398 317 398 c 0
 327 398 331 398 353 398 c 0
 367 398 370 401 377 416 c 2
 434 543 l 2
 443 566 449 604 449 618 c 0
EndSplineSet
Validated: 33
Ligature2: "liga_standard subtable" longs t
LCarets2: 1 279
EndChar

StartChar: uniFB06
Encoding: 64262 64262 964
Width: 554
Flags: HMW
AnchorPoint: "cedilla" 114 8 basechar 0
AnchorPoint: "below_accent" 167 -100 basechar 0
LayerCount: 2
Fore
SplineSet
223 410 m 1
 221 412 220 414 219 416 c 0
 207 438 170 487 170 538 c 0
 170 616 253 678 338 678 c 0
 413 678 416 655 467 655 c 0
 493 655 509 658 533 662 c 1
 544 684 569 706 594 706 c 0
 613 706 630 690 630 672 c 0
 630 652 609 639 579 629 c 1
 574 614 l 1
 508 411 l 2
 505 402 510 400 521 400 c 0
 548 400 578 395 596 392 c 0
 617 388 619 384 619 377 c 0
 619 374 615 366 600 365 c 0
 590 364 530 362 514 362 c 0
 502 362 486 357 483 348 c 2
 401 99 l 2
 395 80 400 59 419 59 c 0
 446 59 465 76 487 93 c 0
 503 105 515 106 515 98 c 0
 515 89 510 79 498 68 c 0
 450 23 379 -14 351 -14 c 0
 330 -14 318 -5 318 23 c 0
 318 35 320 42 332 79 c 2
 422 346 l 2
 425 355 418 358 412 358 c 2
 372 360 l 2
 355 361 354 369 354 374 c 0
 354 377 370 398 388 398 c 0
 398 398 402 398 424 398 c 0
 438 398 443 400 448 416 c 2
 516 615 l 1
 490 611 464 610 443 610 c 0
 405 610 382 629 320 629 c 0
 267 629 212 600 212 547 c 0
 212 480 235 440 253 417 c 0
 254 415 255 414 256 412 c 1
 279 406 294 386 294 377 c 0
 294 365 278 335 266 335 c 0
 251 335 243 368 207 368 c 0
 185 368 167 348 167 319 c 0
 167 302 184 254 200 227 c 0
 216 200 230 153 230 123 c 0
 230 44 124 -14 44 -14 c 0
 10 -14 -10 10 -10 30 c 0
 -10 45 8 76 18 76 c 0
 34 76 52 34 109 34 c 0
 143 34 165 62 166 94 c 0
 167 132 156 164 142 190 c 0
 123 225 110 255 110 275 c 0
 110 343 179 396 223 410 c 1
EndSplineSet
Ligature2: "'hlig' Historic Ligatures lookup 61 subtable" s t
LCarets2: 1 284
EndChar

StartChar: macroncomb
Encoding: 772 772 980
Width: 0
VWidth: 0
Flags: MW
AnchorPoint: "top_accent" 137 550 mark 0
LayerCount: 2
Fore
SplineSet
34 578 m 26
 241 578 l 18
 246 578 250 573 250 568 c 0
 250 551 227 534 214 534 c 26
 14 534 l 18
 9 534 5 538 5 543 c 0
 5 554 18 578 34 578 c 26
EndSplineSet
Validated: 1
Substitution2: "Smallcaps1 subtable" macroncomb.sc
Substitution2: "Single Substitution lookup 17 subtable" uni0304.stack
Substitution2: "Single Substitution lookup 15 subtable" uni0304.stack
Substitution2: "'case' Case-Sensitive Forms lookup 8 subtable" macroncomb.cap
EndChar

StartChar: gravecomb
Encoding: 768 768 981
Width: 0
VWidth: 0
Flags: HMW
AnchorPoint: "top_accent" 90 550 mark 0
LayerCount: 2
Fore
SplineSet
70.6171875 489.352539062 m 4
 52.8955078125 520.751953125 2.9150390625 608.404296875 2.046875 613.329101562 c 4
 -2.12109375 636.963867188 22.6181640625 663.666015625 38.375 666.444335938 c 4
 50.193359375 668.52734375 57.083984375 652.48046875 63.0478515625 630.177734375 c 4
 73.1220703125 590.321289062 97.1494140625 500.123046875 98.8857421875 490.275390625 c 4
 100.275390625 482.396484375 98.189453125 476.952148438 93.2646484375 476.083007812 c 4
 84.40234375 474.520507812 77.9716796875 476.43359375 70.6171875 489.352539062 c 4
EndSplineSet
Substitution2: "Smallcaps1 subtable" gravecomb.sc
Substitution2: "Single Substitution lookup 24 subtable" gravecomb.grkstack
Substitution2: "Single Substitution lookup 22 subtable" gravecomb.grk
Substitution2: "Single Substitution lookup 17 subtable" gravecomb.stack
Substitution2: "Single Substitution lookup 15 subtable" gravecomb.flat
Substitution2: "Single Substitution lookup 13 subtable" gravecomb.flat
Substitution2: "'case' Case-Sensitive Forms lookup 8 subtable" gravecomb.cap
EndChar

StartChar: uni0305
Encoding: 773 773 983
Width: 0
VWidth: 0
Flags: MW
AnchorPoint: "top_accent" 200 550 mark 0
LayerCount: 2
Fore
SplineSet
4 532 m 0
 4 543 23 583 42 583 c 26
 379 583 l 18
 384 583 388 579 388 574 c 0
 388 551 357 523 344 523 c 26
 14 523 l 18
 8 523 4 527 4 532 c 0
EndSplineSet
Validated: 1
EndChar

StartChar: degree
Encoding: 176 176 984
Width: 290
Flags: MW
LayerCount: 2
Fore
SplineSet
145 645 m 0
 208 645 265 592 265 528 c 0
 265 464 208 402 145 402 c 0
 82 402 25 464 25 528 c 0
 25 592 82 645 145 645 c 0
72 523 m 0
 72 483 105 449 145 449 c 0
 185 449 218 483 218 523 c 0
 218 564 185 597 145 597 c 0
 105 597 72 564 72 523 c 0
EndSplineSet
Validated: 1
EndChar

StartChar: caron
Encoding: 711 711 985
Width: 237
VWidth: 0
Flags: HMW
LayerCount: 2
Fore
SplineSet
244 630 m 6
 279 534 l 5
 373 630 l 6
 380 637 394 648 405 648 c 4
 412 648 415 639 406 627 c 6
 406 627 324 519 288 476 c 4
 273 458 260 447 253 447 c 4
 246 447 240 458 236 476 c 4
 227 513 209 627 209 627 c 6
 207 639 216 648 223 648 c 4
 234 648 241 638 244 630 c 6
EndSplineSet
Validated: 1
EndChar

StartChar: vlinecomb
Encoding: 781 781 986
Width: 0
Flags: HMW
AnchorPoint: "top_accent" 40 550 mark 0
LayerCount: 2
Fore
SplineSet
47.3681640625 660.98046875 m 2
 49.70703125 668.630859375 73.287109375 671.87890625 83.6162109375 668.720703125 c 0
 92.7958984375 665.9140625 96.1953125 656.509765625 93.85546875 648.858398438 c 2
 53.2158203125 515.932617188 l 2
 51.169921875 509.23828125 31.302734375 501.717773438 16.3837890625 506.279296875 c 0
 7.2041015625 509.0859375 4.3896484375 520.403320312 7.021484375 529.009765625 c 2
 47.3681640625 660.98046875 l 2
EndSplineSet
Substitution2: "'case' Case-Sensitive Forms lookup 8 subtable" vlinecomb.cap
EndChar

StartChar: uni0311
Encoding: 785 785 987
Width: 0
VWidth: 0
Flags: MW
AnchorPoint: "top_accent" 139 550 mark 0
LayerCount: 2
Fore
SplineSet
63 518 m 0
 60 507 50 497 41 497 c 0
 35 497 32 502 32 509 c 0
 32 596 117 637 169 637 c 0
 218 637 241 600 241 558 c 0
 241 538 233 497 212 497 c 0
 203 497 204 509 203 518 c 0
 201 551 194 588 154 588 c 0
 113 588 78 572 63 518 c 0
EndSplineSet
Validated: 1
Substitution2: "Smallcaps1 subtable" uni0311.sc
Substitution2: "'case' Case-Sensitive Forms lookup 8 subtable" uni0311.cap
EndChar

StartChar: Adieresis.deu
Encoding: 65536 -1 990
Width: 772
VWidth: 0
Flags: HMW
LayerCount: 2
Fore
SplineSet
904 712 m 16
 925 712 940 691 940 669 c 16
 940 639 913 612 883 612 c 8
 862 612 846 631 846 651 c 8
 846 684 871 712 904 712 c 16
636 712 m 16
 657 712 672 691 672 669 c 16
 672 639 645 612 615 612 c 8
 594 612 578 631 578 651 c 8
 578 684 603 712 636 712 c 16
EndSplineSet
Refer: 31 65 N 1 0 0 1 0 0 3
Substitution2: "c2sc subtable" Adieresis.sc
EndChar

StartChar: Odieresis.deu
Encoding: 65537 -1 991
Width: 712
VWidth: 0
Flags: HMW
LayerCount: 2
Fore
SplineSet
755 712 m 16
 776 712 791 691 791 669 c 16
 791 639 764 612 734 612 c 8
 713 612 697 631 697 651 c 8
 697 684 722 712 755 712 c 16
236 712 m 16
 257 712 272 691 272 669 c 16
 272 639 245 612 215 612 c 8
 194 612 178 631 178 651 c 8
 178 684 203 712 236 712 c 16
EndSplineSet
Refer: 46 79 N 1 0 0 1 0 0 3
Substitution2: "c2sc subtable" Odieresis.sc
EndChar

StartChar: Udieresis.deu
Encoding: 65538 -1 992
Width: 737
VWidth: 0
Flags: HMW
LayerCount: 2
Fore
SplineSet
752 547 m 0
 710 432 684 346 653 254 c 0
 601 99 523 -14 344 -14 c 8
 225 -14 104 55 152 222 c 2
 246 547 l 2
 260 595 244 614 225 620 c 0
 205 626 193 633 193 642 c 0
 193 650 215 653 231 653 c 0
 259 653 285 650 320 650 c 24
 343 650 359 652 379 652 c 0
 395 652 402 649 402 641 c 0
 402 632 388.939937498 628.188940646 366 621 c 0
 362.183038686 619.803836831 333 589 321 549 c 2
 234 238 l 2
 193 90 272 26 370 26 c 16
 516 26 579 144 627 300 c 0
 640 344 666 434 688 511 c 0
 703 562 711.335388151 615.89656252 699 620 c 0
 686.996718453 623.992960317 674 631 674 640 c 0
 674 648 689 651 705 651 c 0
 733 651 737 650 758 650 c 24
 788 650 813 653 834 653 c 0
 850 653 858 650 858 642 c 0
 858 633 844 627 821 622 c 0
 786 615 766 587 752 547 c 0
618 712 m 16
 639 712 654 691 654 669 c 16
 654 639 627 612 597 612 c 8
 576 612 560 631 560 651 c 8
 560 684 585 712 618 712 c 16
494 712 m 16
 515 712 530 691 530 669 c 16
 530 639 503 612 473 612 c 8
 452 612 436 631 436 651 c 8
 436 684 461 712 494 712 c 16
EndSplineSet
Substitution2: "c2sc subtable" Udieresis.sc
EndChar

StartChar: Hbar
Encoding: 294 294 993
Width: 799
VWidth: 0
Flags: MW
AnchorPoint: "cedilla" 168 8 basechar 0
AnchorPoint: "below_accent" 356 -100 basechar 0
AnchorPoint: "top_accent" 578 710 basechar 0
LayerCount: 2
Fore
SplineSet
174 456 m 2
 168 456 165 460 165 466 c 0
 165 479 181 492 194 492 c 2
 255 492 l 1
 273 551 l 2
 287 597 289 613 245 622 c 0
 225 626 221 633 221 642 c 0
 221 650 235 653 251 653 c 0
 301 653 309 650 346 650 c 0
 384 650 395 653 445 653 c 0
 461 653 469 650 469 642 c 0
 469 633 455 626 432 622 c 0
 383 613 359 590 347 551 c 2
 329 492 l 1
 694 492 l 1
 712 552 l 2
 723 588 716 613 672 622 c 0
 652 626 648 633 648 642 c 0
 648 650 662 653 678 653 c 0
 728 653 743 650 785 650 c 0
 818 650 820 653 870 653 c 0
 886 653 894 650 894 642 c 0
 894 633 880 626 857 622 c 0
 808 613 799 590 787 552 c 2
 769 492 l 1
 842 492 l 2
 847 492 853 489 853 484 c 0
 853 468 823 456 814 456 c 2
 757 456 l 1
 648 100 l 2
 633 51 632 33 676 24 c 0
 696 20 701 15 701 6 c 0
 701 -2 687 -5 671 -5 c 0
 621 -5 614 0 576 0 c 0
 537 0 525 -5 475 -5 c 0
 459 -5 451 -2 451 6 c 0
 451 15 464 20 487 24 c 0
 529 32 560 54 573 97 c 2
 631 287 l 2
 633 294 637 302 631 302 c 2
 276 302 l 2
 272 302 270 299 268 291 c 2
 211 106 l 2
 198 64 220 32 260 24 c 0
 280 20 285 15 285 6 c 0
 285 -2 271 -5 255 -5 c 0
 205 -5 189 0 147 0 c 0
 107 0 93 -5 43 -5 c 0
 27 -5 20 -2 20 6 c 0
 20 15 33 20 56 24 c 0
 105 33 120 51 135 99 c 2
 244 456 l 1
 174 456 l 2
683 456 m 1
 318 456 l 1
 289 359 l 2
 287 351 293 350 299 350 c 2
 644 350 l 2
 649 350 651 353 654 362 c 2
 683 456 l 1
EndSplineSet
Validated: 33
Substitution2: "c2sc subtable" Hbar.sc
EndChar

StartChar: Dcroat
Encoding: 272 272 994
Width: 754
VWidth: 0
Flags: MW
LayerCount: 2
Fore
SplineSet
173 353 m 26
 459 353 l 26
 466 353 471 346 466 339 c 24
 456 326 445 317 431 317 c 26
 153 317 l 26
 145 317 143 329 145 335 c 0
 148 344 162 353 173 353 c 26
EndSplineSet
Refer: 43 68 N 1 0 0 1 0 0 2
Validated: 5
Substitution2: "c2sc subtable" Dcroat.sc
EndChar

StartChar: hbar
Encoding: 295 295 995
Width: 504
Flags: MW
AnchorPoint: "cedilla" 67 8 basechar 0
AnchorPoint: "below_accent" 231 -100 basechar 0
AnchorPoint: "top_accent" 309 757 basechar 0
LayerCount: 2
Fore
SplineSet
122 532 m 2
 114 532 113 547 115 553 c 0
 118 562 131 571 141 571 c 2
 204 571 l 1
 210 593 217 621 213 632 c 0
 209 644 160 650 160 659 c 0
 160 664 162 668 166 670 c 0
 196 685 263 707 279 707 c 0
 285 707 296 707 296 697 c 0
 296 686 294 683 292 674 c 2
 263 571 l 1
 382 571 l 2
 388 571 394 564 389 557 c 0
 379 544 369 532 356 532 c 2
 251 532 l 1
 160 212 l 2
 157 202 164 202 169 208 c 0
 296 368 383 421 448 421 c 0
 487 421 504 394 504 333 c 0
 504 213 402 -14 265 -14 c 0
 242 -14 222 1 222 23 c 0
 222 36 237 52 249 52 c 0
 273 52 283 27 305 27 c 0
 373 27 438 255 438 332 c 0
 438 356 428 379 415 379 c 0
 393 379 359 368 283 292 c 0
 248 258 165 151 125 78 c 0
 90 14 79 -18 63 -18 c 0
 53 -18 46 4 46 16 c 0
 46 22 48 36 59 75 c 2
 192 532 l 1
 122 532 l 2
EndSplineSet
Validated: 33
Substitution2: "Smallcaps1 subtable" hbar.sc
EndChar

StartChar: dcroat
Encoding: 273 273 996
Width: 480
VWidth: 0
Flags: MW
LayerCount: 2
Fore
SplineSet
366 571 m 26
 604 571 l 26
 610 571 616 564 611 557 c 24
 601 544 591 535 578 535 c 26
 346 535 l 26
 338 535 338 547 340 553 c 0
 343 562 356 571 366 571 c 26
EndSplineSet
Refer: 11 100 N 1 0 0 1 0 0 2
Substitution2: "Smallcaps1 subtable" dcroat.sc
EndChar

StartChar: Tbar
Encoding: 358 358 998
Width: 635
VWidth: 0
Flags: MW
AnchorPoint: "cedilla" 290 18 basechar 0
AnchorPoint: "below_accent" 247 -100 basechar 0
AnchorPoint: "top_accent" 450 710 basechar 0
LayerCount: 2
Fore
SplineSet
327 102 m 2
 313 54 333 31 377 22 c 0
 397 18 402 15 402 6 c 0
 402 -2 388 -5 372 -5 c 0
 322 -5 307 0 265 0 c 24
 218 0 194 -5 144 -5 c 0
 128 -5 120 -2 120 6 c 0
 120 15 134 18 157 22 c 0
 206 31 239 54 253 102 c 2
 383 557 l 2
 389 575 393 607 379 607 c 0
 349 607 289 607 250 607 c 0
 194 607 161 560 142 524 c 0
 135 511 131 506 123 506 c 0
 115 506 115 506 115 517 c 0
 115 522 143 596 161 646 c 0
 164 655 169 666 174 666 c 0
 184 666 184 642 223 642 c 2
 691 642 l 2
 720 642 733 666 743 666 c 0
 746 666 749 658 749 650 c 0
 749 643 745 634 741 627 c 0
 734 614 714 565 706 511 c 0
 704 500 700 497 695 497 c 0
 686 497 681 506 681 520 c 0
 681 525 697 607 630 607 c 0
 582 607 507 607 488 607 c 0
 474 607 463 575 457 557 c 2
 327 102 l 2
205 362 m 2
 199 362 197 368 197 374 c 0
 197 388 213 398 226 398 c 2
 530 398 l 2
 535 398 540 394 540 389 c 0
 540 373 512 362 502 362 c 2
 205 362 l 2
EndSplineSet
Validated: 37
Substitution2: "c2sc subtable" Tbar.sc
EndChar

StartChar: tbar
Encoding: 359 359 999
Width: 285
Flags: MW
AnchorPoint: "top_right" 397 634 basechar 0
AnchorPoint: "cedilla" 139 8 basechar 0
AnchorPoint: "below_accent" 52 -100 basechar 0
AnchorPoint: "top_accent" 277 594 basechar 0
LayerCount: 2
Fore
SplineSet
229 68 m 0
 181 23 110 -14 82 -14 c 0
 61 -14 49 -5 49 23 c 0
 49 35 51 42 63 79 c 2
 153 346 l 2
 156 355 149 358 143 358 c 2
 103 360 l 2
 86 361 85 369 85 374 c 0
 85 377 101 398 119 398 c 0
 129 398 133 398 155 398 c 0
 169 398 172 401 179 416 c 2
 199 457 l 2
 210 479 244 502 253 502 c 0
 269 502 263 475 261 470 c 2
 239 411 l 2
 236 402 241 400 252 400 c 0
 279 400 309 395 327 392 c 0
 348 388 350 384 350 377 c 0
 350 374 346 366 331 365 c 0
 321 364 261 362 245 362 c 0
 233 362 217 357 214 348 c 2
 132 99 l 2
 126 80 131 59 150 59 c 0
 177 59 196 76 218 93 c 0
 234 105 246 106 246 98 c 0
 246 89 241 79 229 68 c 0
58 198 m 2
 53 198 51 204 51 209 c 0
 51 223 66 237 78 237 c 2
 244 237 l 2
 248 237 253 233 253 228 c 0
 253 213 227 198 218 198 c 2
 58 198 l 2
EndSplineSet
Validated: 37
Substitution2: "Smallcaps1 subtable" tbar.sc
EndChar

StartChar: AE
Encoding: 198 198 1000
Width: 805
VWidth: 0
Flags: MW
AnchorPoint: "top_accent" 670 710 basechar 0
LayerCount: 2
Fore
SplineSet
140 1 m 0
 98 1 52 -5 21 -5 c 0
 5 -5 -5 -2 -3 6 c 0
 0 15 12 21 35 28 c 0
 70 38 120 78 161 126 c 2
 558 594 l 2
 565 602 560 610 548 611 c 1
 470 626 l 1
 456 632 469 651 478 651 c 16
 517 651 577 648 640 648 c 16
 744 648 882 653 921 653 c 0
 924 653 927 653 929 653 c 0
 936 653 944 651 943 644 c 0
 938 606 933 576 923 541 c 0
 921 535 913 532 907 532 c 0
 900 532 900 535 900 542 c 0
 900 564 898 581 893 591 c 0
 882 612 862 618 839 618 c 2
 717 618 l 2
 707 618 692 604 686 592 c 0
 656 534 625 426 603 354 c 0
 600 343 597 332 606 332 c 0
 645 332 680 333 703 334 c 0
 721 335 733 336 748 347 c 0
 759 355 763 359 771 371 c 0
 774 376 788 388 793 388 c 0
 798 388 804 381 800 372 c 0
 779 320 773 291 760 240 c 0
 757 231 753 223 746 223 c 8
 734 223 732 239 732 246 c 0
 732 277 715 284 700 285 c 0
 662 287 639 287 605 287 c 0
 592 287 579 279 575 262 c 1
 556 201 548 170 532 113 c 0
 520 72 525 35 567 35 c 2
 664 35 l 2
 669 35 725 43 740 53 c 0
 761 67 785 99 798 116 c 0
 804 124 807 126 814 126 c 24
 820 125 826 121 823 114 c 0
 807 75 793 44 776 12 c 0
 772 4 766 -5 757 -5 c 0
 648 -5 564 1 477 1 c 0
 471 1 464 1 458 1 c 8
 416 1 399 -5 349 -5 c 0
 333 -5 324 -2 326 6 c 0
 329 15 339 20 362 24 c 0
 411 33 440 51 454 99 c 0
 470 154 491 224 504 267 c 0
 507 277 508 285 489 285 c 2
 358 285 l 10
 344 285 333 275 323 262 c 0
 285 218 250 174 201 112 c 0
 158 58 196 39 228 30 c 0
 248 24 255 19 252 10 c 0
 250 2 238 -1 222 -1 c 0
 205 -1 174 1 140 1 c 0
585 581 m 2
 386 343 l 2
 375 330 376 328 392 328 c 2
 508 328 l 2
 522 328 522 328 527 343 c 2
 600 580 l 2
 604 592 605 598 602 598 c 0
 599 598 594 592 585 581 c 2
EndSplineSet
Validated: 33
Substitution2: "c2sc subtable" AE.sc
EndChar

StartChar: uni0311.cap
Encoding: 65539 -1 1003
Width: 0
VWidth: 0
Flags: MW
AnchorPoint: "top_accent" 127 710 mark 0
LayerCount: 2
Fore
SplineSet
38 727 m 0
 31 718 20 706 11 706 c 0
 7 706 5 709 5 713 c 0
 5 790 91 820 169 820 c 0
 211 820 252 793 252 752 c 0
 252 729 241 706 225 706 c 0
 216 706 218 719 216 727 c 0
 209 757 179 768 148 768 c 0
 102 768 67 764 38 727 c 0
EndSplineSet
Validated: 1
Substitution2: "c2sc subtable" uni0311.sc
EndChar

StartChar: thorn
Encoding: 254 254 1004
Width: 445
Flags: MW
LayerCount: 2
Fore
SplineSet
212 404 m 2
 209 394 204 384 210 384 c 0
 215 384 251 414 298 414 c 0
 353 414 408 368 408 282 c 0
 408 138 249 -14 151 -14 c 0
 126 -14 115 2 110 2 c 0
 100 2 94 -15 91 -24 c 2
 33 -208 l 2
 28 -223 27 -242 65 -246 c 0
 78 -247 95 -251 95 -261 c 0
 95 -269 81 -272 66 -272 c 0
 0 -272 -74 -281 -102 -286 c 0
 -109 -287 -122 -285 -122 -277 c 0
 -122 -267 -104 -259 -92 -257 c 0
 -64 -253 -48 -246 -40 -220 c 2
 198 559 l 2
 205 582 216 620 211 633 c 0
 207 645 155 651 155 660 c 0
 155 665 157 669 161 671 c 0
 191 686 266 707 282 707 c 0
 288 707 298 707 298 697 c 0
 298 686 298 683 295 674 c 2
 212 404 l 2
335 282 m 0
 335 330 311 376 269 376 c 0
 246 376 220 359 210 349 c 0
 203 342 193 328 191 318 c 2
 136 117 l 2
 126 80 125 71 125 57 c 0
 125 37 147 20 170 20 c 0
 209 20 335 137 335 282 c 0
EndSplineSet
Validated: 33
Substitution2: "Smallcaps1 subtable" thorn.sc
EndChar

StartChar: Thorn
Encoding: 222 222 1005
Width: 614
VWidth: 0
Flags: MW
AnchorPoint: "ogonek" 173 18 basechar 0
AnchorPoint: "below_accent" 130 -100 basechar 0
AnchorPoint: "top_accent" 359 710 basechar 0
LayerCount: 2
Fore
SplineSet
212 99 m 2
 198 52 218 33 262 24 c 0
 282 20 287 15 287 6 c 0
 287 -2 273 -5 257 -5 c 0
 207 -5 191 0 149 0 c 24
 102 0 79 -5 29 -5 c 0
 13 -5 5 -2 5 6 c 0
 5 15 18 20 41 24 c 0
 90 33 123 51 137 98 c 2
 275 550 l 2
 289 597 278 613 234 622 c 0
 214 626 210 633 210 642 c 0
 210 650 224 653 240 653 c 0
 290 653 306 650 348 650 c 24
 388 650 400 653 450 653 c 0
 466 653 474 650 474 642 c 0
 474 633 460 626 437 622 c 0
 388 613 363 597 349 550 c 2
 343 530 l 2
 341 523 341 520 344 521 c 0
 350 524 366 529 378 529 c 0
 485 529 590 467 590 356 c 8
 590 215 452 126 311 126 c 16
 298 126 269 128 269 139 c 0
 269 147 280 151 287 152 c 0
 416 166 507 229 507 343 c 8
 507 425 452 502 370 502 c 16
 335 502 331 490 322 460 c 2
 212 99 l 2
EndSplineSet
Validated: 33
Substitution2: "c2sc subtable" Thorn.sc
EndChar

StartChar: lslash
Encoding: 322 322 1006
Width: 264
Flags: MW
AnchorPoint: "top_right" 383 634 basechar 0
AnchorPoint: "top_right1" 372 624 basechar 0
AnchorPoint: "below_accent" 115 -100 basechar 0
AnchorPoint: "top_accent" 293 812 basechar 0
LayerCount: 2
Fore
SplineSet
233 99 m 0
 241 107 248 120 253 120 c 0
 258 120 258 115 258 107 c 0
 258 47 129 -14 94 -14 c 0
 62 -14 50 2 50 21 c 0
 50 38 54 52 61 76 c 2
 206 559 l 2
 212 578 220 607 220 624 c 0
 220 646 170 648 170 660 c 0
 170 665 172 669 176 671 c 0
 206 686 274 707 290 707 c 0
 296 707 307 707 307 697 c 0
 307 686 306 683 303 674 c 2
 131 86 l 2
 128 75 126 65 126 57 c 0
 126 47 129 41 136 41 c 0
 168 41 223 89 233 99 c 0
278 390 m 2
 78 288 l 2
 75 287 72 285 68 285 c 0
 64 285 62 287 62 295 c 0
 62 308 75 326 85 331 c 2
 292 437 l 2
 295 438 300 441 302 441 c 0
 305 441 308 438 308 431 c 0
 308 413 298 400 278 390 c 2
EndSplineSet
Validated: 5
Substitution2: "Smallcaps1 subtable" lslash.sc
EndChar

StartChar: Lslash
Encoding: 321 321 1007
Width: 619
VWidth: 0
Flags: MW
AnchorPoint: "top_right" 650 605 basechar 0
AnchorPoint: "cedilla" 183 8 basechar 0
AnchorPoint: "below_accent" 314 -100 basechar 0
AnchorPoint: "top_accent" 186 700 basechar 0
LayerCount: 2
Fore
SplineSet
134 257 m 2
 128 255 125 254 122 254 c 0
 116 254 113 257 113 263 c 0
 113 271 121 290 139 296 c 2
 221 325 l 1
 293 560 l 2
 308 608 300 613 256 622 c 0
 236 626 231 633 231 642 c 0
 231 650 245 653 261 653 c 0
 311 653 324 650 365 650 c 0
 411 650 433 653 483 653 c 0
 499 653 506 650 506 642 c 0
 506 633 493 626 470 622 c 0
 421 613 382 606 370 567 c 2
 307 356 l 1
 475 415 l 2
 480 417 488 420 490 420 c 0
 495 420 495 414 495 410 c 0
 495 395 477 377 462 372 c 2
 295 313 l 1
 235 113 l 2
 220 62 227 30 269 30 c 2
 450 30 l 2
 522 30 555 77 585 116 c 0
 591 124 593 126 601 126 c 0
 607 126 609 122 609 114 c 0
 609 96 585 39 567 11 c 0
 562 3 553 -5 544 -5 c 0
 393 -5 251 1 158 1 c 0
 109 1 83 -5 33 -5 c 0
 17 -5 9 -2 9 6 c 0
 9 15 22 20 45 24 c 0
 94 33 138 52 152 99 c 2
 208 283 l 1
 134 257 l 2
EndSplineSet
Validated: 33
Substitution2: "c2sc subtable" Lslash.sc
EndChar

StartChar: oslash
Encoding: 248 248 1008
Width: 400
Flags: MW
AnchorPoint: "ogonek" 228 18 basechar 0
AnchorPoint: "below_accent" 137 -100 basechar 0
AnchorPoint: "top_accent" 322 550 basechar 0
LayerCount: 2
Fore
SplineSet
326 304 m 0
 326 354 317 384 283 384 c 0
 203 384 109 189 109 96 c 0
 109 46 118 16 152 16 c 0
 232 16 326 211 326 304 c 0
390 296 m 0
 390 176 290 -14 140 -14 c 0
 100 -14 45 28 45 104 c 0
 45 224 145 414 295 414 c 0
 335 414 390 372 390 296 c 0
70 -23 m 2
 66 -29 62 -31 57 -31 c 0
 49 -31 45 -15 45 -5 c 0
 45 5 54 16 61 25 c 2
 368 420 l 2
 372 426 378 432 384 432 c 0
 390 432 390 407 390 400 c 0
 390 391 380 377 371 365 c 2
 70 -23 l 2
EndSplineSet
Validated: 5
Substitution2: "Smallcaps1 subtable" oslash.sc
EndChar

StartChar: Oslash
Encoding: 216 216 1009
Width: 712
VWidth: 0
Flags: HMW
AnchorPoint: "cedilla" 341 8 basechar 0
AnchorPoint: "ogonek" 463 18 basechar 0
AnchorPoint: "below_accent" 304 -100 basechar 0
AnchorPoint: "top_accent" 501 710 basechar 0
LayerCount: 2
Fore
SplineSet
479 628 m 0
 279 628 171 386 171 186 c 8
 171 95 245 21 336 21 c 16
 536 21 642 284 642 484 c 0
 642 569 564 628 479 628 c 0
484 664 m 16
 611 664 724 571 724 444 c 8
 724 208 565 -14 329 -14 c 8
 197 -14 89 94 89 226 c 16
 89 456 254 664 484 664 c 16
143 7 m 2
 135 -1 122 -14 116 -14 c 0
 106 -14 89 -6 89 4 c 0
 89 14 96 23 105 33 c 2
 680 650 l 2
 686 657 696 666 706 666 c 0
 716 666 726 659 726 649 c 0
 726 639 718 624 707 612 c 2
 143 7 l 2
EndSplineSet
Substitution2: "c2sc subtable" Oslash.sc
EndChar

StartChar: ae
Encoding: 230 230 1010
Width: 472
VWidth: 0
Flags: MW
AnchorPoint: "top_accent" 298 550 basechar 0
LayerCount: 2
Fore
SplineSet
319 365 m 0
 282 365 256 288 256 218 c 0
 256 212 260 208 266 208 c 0
 282 208 349 259 349 319 c 0
 349 346 341 365 319 365 c 0
190 253 m 0
 150 253 89 164 89 90 c 8
 89 71 92 46 111 46 c 0
 173 46 211 148 211 230 c 16
 211 242 210 253 190 253 c 0
206 319 m 0
 211 319 217 317 218 312 c 0
 219 308 221 311 222 315 c 0
 236 361 281 414 342 414 c 16
 378 414 398 380 398 344 c 8
 398 264 337 222 267 186 c 0
 257 181 256 175 256 164 c 0
 256 97 259 46 317 46 c 0
 346 46 368 62 380 80 c 0
 390 94 393 106 398 106 c 0
 403 106 404 97 404 92 c 0
 404 45 345 -9 289 -9 c 0
 254 -9 214 9 202 77 c 0
 201 81 198 86 194 76 c 0
 173 21 133 -12 72 -12 c 8
 38 -12 24 26 24 60 c 16
 24 140 163 319 206 319 c 0
EndSplineSet
Validated: 1
Substitution2: "Smallcaps1 subtable" ae.sc
Ligature2: "LATliga subtable" a e
LCarets2: 1 195
EndChar

StartChar: uni1E9E
Encoding: 7838 7838 1012
Width: 648
VWidth: 0
Flags: MW
LayerCount: 2
Fore
SplineSet
568 664 m 16
 650 664 715 639 745 626 c 0
 750 624 755 613 750 608 c 2
 694 554 l 2
 631 492 589 453 526 384 c 24
 522 379 519 370 525 370 c 8
 554 370 587 351 592 349 c 8
 657 323 693 268 667 184 c 8
 629 61 524 -14 376 -14 c 0
 357 -14 331 -8 302 0 c 0
 290 3 292 7 292 12 c 0
 289 35 296 114 306 150 c 0
 308 158 319 166 329 166 c 0
 339 166 328 20 414 20 c 0
 488 20 555 100 579 179 c 16
 597 237 588 280 549 308 c 16
 535 318 501 334 427 334 c 0
 422 334 403 334 413 344 c 2
 643 584 l 2
 651 592 645 597 635 604 c 0
 625 611 604 624 542 624 c 0
 422 624 333 483 287 356 c 16
 278 331 264 288 250 242 c 0
 236 196 221 145 209 102 c 1
 197 62 213 35 226 30 c 0
 245 23 254 19 251 10 c 0
 249 2 236 -1 220 -1 c 0
 201 -1 178 1 150 1 c 0
 149 1 148 1 147 1 c 8
 112 1 84 -2 56 -2 c 0
 40 -2 31 1 33 9 c 0
 36 18 47 25 70 31 c 0
 92 37 120 56 135 104 c 0
 148 146 187 270 204 328 c 8
 253 499 409 664 568 664 c 16
EndSplineSet
Validated: 33
EndChar

StartChar: percent
Encoding: 37 37 1013
Width: 681
VWidth: 0
Flags: MW
LayerCount: 2
Fore
SplineSet
609 321 m 0
 572 321 523 238 505 177 c 24
 485 107 475 10 517 10 c 0
 559 10 603 100 622 165 c 24
 641 231 646 321 609 321 c 0
627 348 m 16
 704 348 717 262 691 177 c 0
 662 83 588 -14 500 -14 c 8
 420 -14 409 74 437 166 c 0
 463 252 542 348 627 348 c 16
354 603 m 0
 317 603 268 520 250 459 c 24
 230 389 220 292 262 292 c 0
 304 292 348 382 367 447 c 24
 386 513 391 603 354 603 c 0
372 630 m 16
 449 630 462 544 436 459 c 0
 407 365 333 268 245 268 c 8
 165 268 154 356 182 448 c 0
 208 534 287 630 372 630 c 16
122 -11 m 26
 704 638 l 26
 717 652 729 655 745 655 c 24
 752 655 758 645 752 638 c 26
 170 -11 l 26
 159 -24 146 -26 132 -26 c 24
 124 -26 115 -18 122 -11 c 26
EndSplineSet
Validated: 33
Substitution2: "'onum' Minuskelziffern lookup 34 subtable" percent.sc
Substitution2: "sups subtable" percent.sups
Substitution2: "sinf subtable" percent.sinf
Substitution2: "ordn subtable" percent.ordn
Substitution2: "subs subtable" percent.subs
EndChar

StartChar: ampersand
Encoding: 38 38 1014
Width: 876
VWidth: 0
Flags: MW
LayerCount: 2
Fore
SplineSet
336 590 m 16
 396 590 444 556 444 514 c 8
 444 488 439 462 404 462 c 0
 382 462 366 538 292 538 c 0
 246 538 197 498 197 454 c 0
 197 413 221 385 243 385 c 0
 260 385 286 390 308 390 c 0
 321 390 333 377 333 365 c 8
 333 333 300 304 278 304 c 0
 256 304 232 312 202 312 c 0
 140 312 94 258 94 204 c 8
 94 37 253 -65 428 -65 c 0
 579 -65 757 36 757 199 c 0
 757 287 738 365 663 409 c 0
 650 416 635 418 621 418 c 0
 601 418 514 377 514 312 c 8
 514 274 529 231 567 231 c 16
 584 231 591 248 591 264 c 16
 591 284 590 311 610 311 c 16
 644 311 669 284 669 251 c 16
 669 214 636 182 600 182 c 8
 529 182 466 230 466 304 c 0
 466 413 633 498 696 508 c 0
 798 524 846 553 846 572 c 0
 846 603 829 634 798 634 c 8
 785 634 779 634 770 618 c 0
 765 609 758 606 748 606 c 8
 738 606 731 614 731 624 c 16
 731 659 761 686 796 686 c 16
 852 686 906 634 906 578 c 8
 906 493 764 458 725 456 c 0
 687 454 683 450 683 445 c 0
 683 440 686 436 699 428 c 0
 762 389 801 323 801 241 c 0
 801 17 607 -144 383 -144 c 8
 202 -144 28 -30 28 156 c 0
 28 271 116 322 164 336 c 0
 174 339 174 349 168 354 c 0
 154 365 137 389 137 416 c 16
 137 529 233 590 336 590 c 16
EndSplineSet
Validated: 33
Substitution2: "ampersand_alt subtable" ampersand.01
Substitution2: "sups subtable" ampersand.sups
Substitution2: "sinf subtable" ampersand.sinf
Substitution2: "ordn subtable" ampersand.ordn
Substitution2: "subs subtable" ampersand.subs
EndChar

StartChar: asterisk
Encoding: 42 42 1015
Width: 339
VWidth: 0
Flags: HMW
LayerCount: 2
Fore
SplineSet
155 623 m 0
 155 632.475585938 162.442382812 637 169 637 c 0
 174.760742188 637 181.84765625 634.15234375 185 631 c 0
 208 605 230 583 249 562 c 1
 258 589 269 617 283 649 c 0
 287 657 292 664 300 664 c 0
 310.271484375 664 316 654.16015625 316 645 c 0
 316 638 296.65625 577.533203125 288 549 c 1
 315.595703125 553.927734375 378 562 386 562 c 0
 394.440429688 562 404 553.249023438 404 545 c 0
 404 536.19140625 394.685546875 530.196289062 387 528 c 2
 297 507 l 1
 315 485 333 463 353 434 c 0
 356 430 358 424 358 419 c 0
 358 409.524414062 350.557617188 405 344 405 c 0
 338.239257812 405 331.15234375 407.84765625 328 411 c 0
 305 437 283 459 264 480 c 1
 255 453 244 425 230 393 c 0
 226 385 221 378 213 378 c 0
 202.073242188 378 195.794921875 391.493164062 198 404 c 0
 200.430664062 417.787109375 225 493 225 493 c 1
 197.404296875 488.072265625 161.0703125 482.98046875 127 480 c 0
 118.591796875 479.264648438 109 487.750976562 109 496 c 0
 109 504.80859375 118.319335938 510.797851562 126 513 c 0
 138.49609375 516.583007812 216 535 216 535 c 1
 198 557 180 579 160 608 c 0
 157 612 155 618 155 623 c 0
EndSplineSet
Substitution2: "sups subtable" asterisk.sups
Substitution2: "sinf subtable" asterisk.sinf
Substitution2: "ordn subtable" asterisk.ordn
Substitution2: "subs subtable" asterisk.subs
EndChar

StartChar: braceleft
Encoding: 123 123 1016
Width: 345
VWidth: 0
Flags: MW
LayerCount: 2
Fore
SplineSet
168 279 m 0
 196 270 247 213 227 147 c 16
 209 89 183 42 162 -26 c 16
 140 -99 191 -127 251 -127 c 16
 261 -127 274 -128 271 -139 c 16
 268 -148 258 -154 250 -154 c 8
 162 -154 74 -115 103 -21 c 8
 124 49 150 95 169 157 c 8
 187 215 160 253 116 273 c 8
 112 275 107 276 109 282 c 0
 111 288 116 286 121 288 c 16
 177 308 227 346 245 404 c 16
 264 466 266 512 287 582 c 16
 316 676 428 715 516 715 c 16
 524 715 531 709 528 700 c 8
 525 689 510 688 500 688 c 8
 440 688 371 660 349 587 c 8
 328 519 326 472 308 414 c 8
 288 348 212 300 168 283 c 0
 164 281 166 280 168 279 c 0
EndSplineSet
Validated: 33
Substitution2: "sups subtable" braceleft.sups
Substitution2: "sinf subtable" braceleft.sinf
Substitution2: "ordn subtable" braceleft.ordn
Substitution2: "subs subtable" braceleft.subs
EndChar

